SplineFontDB: 3.2
FontName: Kilroy2-8ptBold
FullName: Kilroy2 8pt Bold
FamilyName: Kilroy2 8pt
Weight: Bold
Copyright: Copyright 2020 The Roboto Serif Project Authors (https://github.com/googlefonts/RobotoSerif) OFL
Version: 1.008
ItalicAngle: 0
UnderlinePosition: -200
UnderlineWidth: 100
Ascent: 800
Descent: 200
InvalidEm: 0
sfntRevision: 0x0001020c
LayerCount: 2
Layer: 0 1 "Back" 1
Layer: 1 1 "Fore" 0
XUID: [1021 1018 -1064020043 17841]
StyleMap: 0x0040
FSType: 0
OS2Version: 4
OS2_WeightWidthSlopeOnly: 0
OS2_UseTypoMetrics: 1
CreationTime: 1586430965
ModificationTime: 1751690891
PfmFamily: 81
TTFWeight: 700
TTFWidth: 5
LineGap: 0
VLineGap: 0
Panose: 0 0 0 0 0 0 0 0 0 0
OS2TypoAscent: 927
OS2TypoAOffset: 0
OS2TypoDescent: -244
OS2TypoDOffset: 0
OS2TypoLinegap: 0
OS2WinAscent: 1048
OS2WinAOffset: 0
OS2WinDescent: 251
OS2WinDOffset: 0
HheadAscent: 927
HheadAOffset: 0
HheadDescent: -244
HheadDOffset: 0
OS2SubXSize: 650
OS2SubYSize: 600
OS2SubXOff: 0
OS2SubYOff: 75
OS2SupXSize: 650
OS2SupYSize: 600
OS2SupXOff: 0
OS2SupYOff: 350
OS2StrikeYSize: 100
OS2StrikeYPos: 311
OS2CapHeight: 710
OS2XHeight: 518
OS2Vendor: 'COMM'
OS2CodePages: 20000193.00000000
OS2UnicodeRanges: a10000ef.4000267a.00000000.00000000
Lookup: 5 0 0 "'locl' Localized Forms in Latin lookup 0" { "'locl' Localized Forms in Latin lookup 0 subtable"  } ['locl' ('latn' <'AZE ' 'CRT ' 'TRK ' > ) ]
Lookup: 1 0 0 "Single Substitution lookup 1" { "Single Substitution lookup 1 subtable"  } []
Lookup: 5 0 0 "'locl' Localized Forms in Latin lookup 2" { "'locl' Localized Forms in Latin lookup 2 subtable"  } ['locl' ('latn' <'PLK ' > ) ]
Lookup: 1 0 0 "Single Substitution lookup 3" { "Single Substitution lookup 3 subtable"  } []
Lookup: 6 0 0 "'locl' Localized Forms in Latin lookup 4" { "'locl' Localized Forms in Latin lookup 4 subtable"  } ['locl' ('latn' <'CAT ' > ) ]
Lookup: 4 0 0 "Ligature Substitution lookup 5" { "Ligature Substitution lookup 5 subtable"  } []

StartChar: .notdef
Encoding: 65536 -1 0
Width: 400
GlyphClass: 1
Flags: W
LayerCount: 2
Fore
SplineSet
0 0 m 1,0,-1
 0 700 l 1,1,-1
 400 700 l 1,2,-1
 400 0 l 1,3,-1
 0 0 l 1,0,-1
50 650 m 1,4,-1
 50 50 l 1,5,-1
 350 50 l 1,6,-1
 350 650 l 1,7,-1
 50 650 l 1,4,-1
EndSplineSet
EndChar

StartChar: A
Encoding: 65 65 6
Width: 770
GlyphClass: 2
Flags: W
AnchorPoint: "Anchor-2" 609 0 basechar 0
AnchorPoint: "Anchor-1" 384 0 basechar 0
AnchorPoint: "Anchor-0" 384 721 basechar 0
LayerCount: 2
Fore
SplineSet
201 291 m 1,0,-1
 474 291 l 1,1,-1
 486 219 l 1,2,-1
 190 219 l 1,3,-1
 201 291 l 1,0,-1
331 658 m 1,4,-1
 348 656 l 1,5,-1
 180 106 l 2,6,7
 180 100 180 100 188 94.5 c 128,-1,8
 196 89 196 89 211.5 86 c 128,-1,9
 227 83 227 83 251 83 c 2,10,-1
 260 83 l 1,11,-1
 260 0 l 1,12,-1
 25 0 l 1,13,-1
 25 83 l 1,14,-1
 31 83 l 2,15,16
 56 83 56 83 74.5 96 c 128,-1,17
 93 109 93 109 104 147 c 2,18,-1
 281 718 l 1,19,-1
 489 718 l 1,20,-1
 666 147 l 2,21,22
 678 109 678 109 695.5 96 c 128,-1,23
 713 83 713 83 740 83 c 2,24,-1
 746 83 l 1,25,-1
 746 0 l 1,26,-1
 421 0 l 1,27,-1
 421 83 l 1,28,-1
 430 83 l 2,29,30
 454 83 454 83 469.5 84.5 c 128,-1,31
 485 86 485 86 492.5 88.5 c 128,-1,32
 500 91 500 91 500 94 c 2,33,-1
 331 658 l 1,4,-1
EndSplineSet
EndChar

StartChar: Aogonek
Encoding: 260 260 15
Width: 770
GlyphClass: 1
Flags: W
LayerCount: 2
Fore
SplineSet
199 291 m 1,0,-1
 473 291 l 1,1,-1
 485 219 l 1,2,-1
 188 219 l 1,3,-1
 199 291 l 1,0,-1
593 52 m 1,4,-1
 614 7 l 1,5,6
 558 -31 558 -31 529.5 -53.5 c 128,-1,7
 501 -76 501 -76 491.5 -93 c 128,-1,8
 482 -110 482 -110 482 -132 c 0,9,10
 482 -156 482 -156 495.5 -168.5 c 128,-1,11
 509 -181 509 -181 535 -181 c 0,12,13
 564 -181 564 -181 584.5 -166 c 128,-1,14
 605 -151 605 -151 619 -136 c 1,15,-1
 662 -181 l 1,16,17
 633 -213 633 -213 594 -232.5 c 128,-1,18
 555 -252 555 -252 487 -252 c 0,19,20
 416 -252 416 -252 372.5 -229 c 128,-1,21
 329 -206 329 -206 329 -151 c 0,22,23
 329 -121 329 -121 341.5 -98.5 c 128,-1,24
 354 -76 354 -76 383.5 -55.5 c 128,-1,25
 413 -35 413 -35 464.5 -9.5 c 128,-1,26
 516 16 516 16 593 52 c 1,4,-1
746 0 m 1,27,-1
 527 0 l 1,28,-1
 330 661 l 1,29,-1
 347 660 l 1,30,-1
 179 106 l 2,31,32
 179 100 179 100 186.5 94.5 c 128,-1,33
 194 89 194 89 209.5 86 c 128,-1,34
 225 83 225 83 250 83 c 2,35,-1
 259 83 l 1,36,-1
 259 0 l 1,37,-1
 25 0 l 1,38,-1
 25 83 l 1,39,-1
 31 83 l 2,40,41
 56 83 56 83 74 96 c 128,-1,42
 92 109 92 109 103 147 c 2,43,-1
 279 722 l 1,44,-1
 487 722 l 1,45,-1
 665 147 l 2,46,47
 677 109 677 109 695 96 c 128,-1,48
 713 83 713 83 740 83 c 2,49,-1
 746 83 l 1,50,-1
 746 0 l 1,27,-1
EndSplineSet
EndChar

StartChar: Acaron
Encoding: 461 461 16
Width: 770
GlyphClass: 1
Flags: W
LayerCount: 2
Fore
SplineSet
320 792 m 1,0,-1
 439 792 l 1,1,-1
 584 957 l 1,2,-1
 584 995 l 1,3,-1
 523 995 l 1,4,-1
 346 884 l 1,5,-1
 422 886 l 1,6,-1
 242 995 l 1,7,-1
 175 995 l 1,8,-1
 175 957 l 1,9,-1
 320 792 l 1,0,-1
201 291 m 1,10,-1
 474 291 l 1,11,-1
 486 219 l 1,12,-1
 190 219 l 1,13,-1
 201 291 l 1,10,-1
331 658 m 1,14,-1
 348 656 l 1,15,-1
 180 106 l 2,16,17
 180 100 180 100 188 94.5 c 128,-1,18
 196 89 196 89 211.5 86 c 128,-1,19
 227 83 227 83 251 83 c 2,20,-1
 260 83 l 1,21,-1
 260 0 l 1,22,-1
 25 0 l 1,23,-1
 25 83 l 1,24,-1
 31 83 l 2,25,26
 56 83 56 83 74.5 96 c 128,-1,27
 93 109 93 109 104 147 c 2,28,-1
 281 718 l 1,29,-1
 489 718 l 1,30,-1
 666 147 l 2,31,32
 678 109 678 109 695.5 96 c 128,-1,33
 713 83 713 83 740 83 c 2,34,-1
 746 83 l 1,35,-1
 746 0 l 1,36,-1
 421 0 l 1,37,-1
 421 83 l 1,38,-1
 430 83 l 2,39,40
 454 83 454 83 469.5 84.5 c 128,-1,41
 485 86 485 86 492.5 88.5 c 128,-1,42
 500 91 500 91 500 94 c 2,43,-1
 331 658 l 1,14,-1
EndSplineSet
EndChar

StartChar: Adblgrave
Encoding: 512 512 18
Width: 770
GlyphClass: 1
Flags: W
LayerCount: 2
Fore
SplineSet
524 925 m 2,0,-1
 568 821 l 1,1,-1
 568 785 l 1,2,-1
 521 785 l 1,3,-1
 433 839 l 2,4,5
 401 859 401 859 378.5 881 c 128,-1,6
 356 903 356 903 356 937 c 0,7,8
 356 966 356 966 375.5 984.5 c 128,-1,9
 395 1003 395 1003 430 1003 c 0,10,11
 455 1003 455 1003 472.5 993 c 128,-1,12
 490 983 490 983 503 965.5 c 128,-1,13
 516 948 516 948 524 925 c 2,0,-1
293 925 m 2,14,-1
 335 821 l 1,15,-1
 335 785 l 1,16,-1
 288 785 l 1,17,-1
 201 839 l 2,18,19
 168 859 168 859 146 881 c 128,-1,20
 124 903 124 903 124 937 c 0,21,22
 124 966 124 966 143 984.5 c 128,-1,23
 162 1003 162 1003 197 1003 c 0,24,25
 222 1003 222 1003 240 993 c 128,-1,26
 258 983 258 983 271 965.5 c 128,-1,27
 284 948 284 948 293 925 c 2,14,-1
201 291 m 1,28,-1
 474 291 l 1,29,-1
 486 219 l 1,30,-1
 190 219 l 1,31,-1
 201 291 l 1,28,-1
331 658 m 1,32,-1
 348 656 l 1,33,-1
 180 106 l 2,34,35
 180 100 180 100 188 94.5 c 128,-1,36
 196 89 196 89 211.5 86 c 128,-1,37
 227 83 227 83 251 83 c 2,38,-1
 260 83 l 1,39,-1
 260 0 l 1,40,-1
 25 0 l 1,41,-1
 25 83 l 1,42,-1
 31 83 l 2,43,44
 56 83 56 83 74.5 96 c 128,-1,45
 93 109 93 109 104 147 c 2,46,-1
 281 718 l 1,47,-1
 489 718 l 1,48,-1
 666 147 l 2,49,50
 678 109 678 109 695.5 96 c 128,-1,51
 713 83 713 83 740 83 c 2,52,-1
 746 83 l 1,53,-1
 746 0 l 1,54,-1
 421 0 l 1,55,-1
 421 83 l 1,56,-1
 430 83 l 2,57,58
 454 83 454 83 469.5 84.5 c 128,-1,59
 485 86 485 86 492.5 88.5 c 128,-1,60
 500 91 500 91 500 94 c 2,61,-1
 331 658 l 1,32,-1
EndSplineSet
EndChar

StartChar: Ainvertedbreve
Encoding: 514 514 19
Width: 770
GlyphClass: 1
Flags: W
LayerCount: 2
Fore
SplineSet
378 968 m 0,0,1
 308 968 308 968 263.5 947.5 c 128,-1,2
 219 927 219 927 198.5 883.5 c 128,-1,3
 178 840 178 840 177 769 c 1,4,-1
 266 769 l 1,5,6
 267 802 267 802 276 820 c 128,-1,7
 285 838 285 838 308.5 845 c 128,-1,8
 332 852 332 852 376 852 c 0,9,10
 419 852 419 852 441.5 845 c 128,-1,11
 464 838 464 838 474 820 c 128,-1,12
 484 802 484 802 485 769 c 1,13,-1
 578 769 l 1,14,15
 578 840 578 840 556.5 883.5 c 128,-1,16
 535 927 535 927 491 947.5 c 128,-1,17
 447 968 447 968 378 968 c 0,0,1
201 291 m 1,18,-1
 474 291 l 1,19,-1
 486 219 l 1,20,-1
 190 219 l 1,21,-1
 201 291 l 1,18,-1
331 658 m 1,22,-1
 348 656 l 1,23,-1
 180 106 l 2,24,25
 180 100 180 100 188 94.5 c 128,-1,26
 196 89 196 89 211.5 86 c 128,-1,27
 227 83 227 83 251 83 c 2,28,-1
 260 83 l 1,29,-1
 260 0 l 1,30,-1
 25 0 l 1,31,-1
 25 83 l 1,32,-1
 31 83 l 2,33,34
 56 83 56 83 74.5 96 c 128,-1,35
 93 109 93 109 104 147 c 2,36,-1
 281 718 l 1,37,-1
 489 718 l 1,38,-1
 666 147 l 2,39,40
 678 109 678 109 695.5 96 c 128,-1,41
 713 83 713 83 740 83 c 2,42,-1
 746 83 l 1,43,-1
 746 0 l 1,44,-1
 421 0 l 1,45,-1
 421 83 l 1,46,-1
 430 83 l 2,47,48
 454 83 454 83 469.5 84.5 c 128,-1,49
 485 86 485 86 492.5 88.5 c 128,-1,50
 500 91 500 91 500 94 c 2,51,-1
 331 658 l 1,22,-1
EndSplineSet
EndChar

StartChar: B
Encoding: 66 66 32
Width: 769
GlyphClass: 2
Flags: W
AnchorPoint: "Anchor-0" 319 741 basechar 0
LayerCount: 2
Fore
SplineSet
451 710 m 2,0,1
 509 710 509 710 553.5 700.5 c 128,-1,2
 598 691 598 691 627.5 670.5 c 128,-1,3
 657 650 657 650 672 617.5 c 128,-1,4
 687 585 687 585 687 540 c 0,5,6
 687 488 687 488 663.5 453.5 c 128,-1,7
 640 419 640 419 594 401 c 128,-1,8
 548 383 548 383 481 379 c 1,9,-1
 488 406 l 1,10,-1
 488 335 l 1,11,-1
 480 370 l 1,12,13
 556 363 556 363 608 344 c 128,-1,14
 660 325 660 325 687.5 289.5 c 128,-1,15
 715 254 715 254 715 197 c 0,16,17
 715 145 715 145 698.5 107.5 c 128,-1,18
 682 70 682 70 649 46.5 c 128,-1,19
 616 23 616 23 568 11.5 c 128,-1,20
 520 0 520 0 458 0 c 2,21,-1
 46 0 l 1,22,-1
 46 83 l 1,23,-1
 57 83 l 2,24,25
 84 83 84 83 102 90 c 128,-1,26
 120 97 120 97 120 119 c 2,27,-1
 120 591 l 2,28,29
 120 613 120 613 102 620 c 128,-1,30
 84 627 84 627 57 627 c 2,31,-1
 46 627 l 1,32,-1
 46 710 l 1,33,-1
 451 710 l 2,0,1
246 408 m 1,34,-1
 412 408 l 2,35,36
 445 408 445 408 466 419.5 c 128,-1,37
 487 431 487 431 497.5 457.5 c 128,-1,38
 508 484 508 484 508 527 c 0,39,40
 508 559 508 559 498 582.5 c 128,-1,41
 488 606 488 606 467.5 618 c 128,-1,42
 447 630 447 630 415 630 c 2,43,-1
 298 630 l 1,44,-1
 298 80 l 1,45,-1
 420 80 l 2,46,47
 458 80 458 80 482.5 94 c 128,-1,48
 507 108 507 108 519.5 136.5 c 128,-1,49
 532 165 532 165 532 207 c 0,50,51
 532 251 532 251 518.5 279 c 128,-1,52
 505 307 505 307 478 320.5 c 128,-1,53
 451 334 451 334 408 334 c 2,54,-1
 246 334 l 1,55,-1
 246 408 l 1,34,-1
EndSplineSet
EndChar

StartChar: C
Encoding: 67 67 33
Width: 780
GlyphClass: 2
Flags: W
AnchorPoint: "Anchor-1" 412 0 basechar 0
AnchorPoint: "Anchor-0" 412 741 basechar 0
LayerCount: 2
Fore
SplineSet
420 648 m 0,0,1
 371 648 371 648 336.5 632.5 c 128,-1,2
 302 617 302 617 280 582 c 128,-1,3
 258 547 258 547 247 491 c 128,-1,4
 236 435 236 435 236 355 c 0,5,6
 236 273 236 273 247.5 216.5 c 128,-1,7
 259 160 259 160 282.5 126 c 128,-1,8
 306 92 306 92 342.5 77 c 128,-1,9
 379 62 379 62 430 62 c 0,10,11
 497 62 497 62 539.5 85.5 c 128,-1,12
 582 109 582 109 608 151 c 128,-1,13
 634 193 634 193 651 249 c 1,14,-1
 727 212 l 1,15,16
 705 136 705 136 664.5 83.5 c 128,-1,17
 624 31 624 31 562 3 c 128,-1,18
 500 -25 500 -25 410 -25 c 0,19,20
 328 -25 328 -25 262 -2 c 128,-1,21
 196 21 196 21 148.5 68.5 c 128,-1,22
 101 116 101 116 75.5 187.5 c 128,-1,23
 50 259 50 259 50 355 c 0,24,25
 50 454 50 454 76 525.5 c 128,-1,26
 102 597 102 597 149 643 c 128,-1,27
 196 689 196 689 260 712 c 128,-1,28
 324 735 324 735 399 735 c 256,29,30
 474 735 474 735 525.5 705.5 c 128,-1,31
 577 676 577 676 606.5 621 c 128,-1,32
 636 566 636 566 644 488 c 1,33,-1
 613 539 l 1,34,-1
 631 720 l 1,35,-1
 716 720 l 1,36,-1
 716 460 l 1,37,-1
 616 460 l 1,38,39
 601 518 601 518 575 560.5 c 128,-1,40
 549 603 549 603 510.5 625.5 c 128,-1,41
 472 648 472 648 420 648 c 0,0,1
EndSplineSet
EndChar

StartChar: Ccaron
Encoding: 268 268 38
Width: 780
GlyphClass: 1
Flags: W
LayerCount: 2
Fore
SplineSet
343 792 m 1,0,-1
 462 792 l 1,1,-1
 607 957 l 1,2,-1
 607 995 l 1,3,-1
 546 995 l 1,4,-1
 369 884 l 1,5,-1
 445 886 l 1,6,-1
 265 995 l 1,7,-1
 198 995 l 1,8,-1
 198 957 l 1,9,-1
 343 792 l 1,0,-1
420 648 m 0,10,11
 371 648 371 648 336.5 632.5 c 128,-1,12
 302 617 302 617 280 582 c 128,-1,13
 258 547 258 547 247 491 c 128,-1,14
 236 435 236 435 236 355 c 0,15,16
 236 273 236 273 247.5 216.5 c 128,-1,17
 259 160 259 160 282.5 126 c 128,-1,18
 306 92 306 92 342.5 77 c 128,-1,19
 379 62 379 62 430 62 c 0,20,21
 497 62 497 62 539.5 85.5 c 128,-1,22
 582 109 582 109 608 151 c 128,-1,23
 634 193 634 193 651 249 c 1,24,-1
 727 212 l 1,25,26
 705 136 705 136 664.5 83.5 c 128,-1,27
 624 31 624 31 562 3 c 128,-1,28
 500 -25 500 -25 410 -25 c 0,29,30
 328 -25 328 -25 262 -2 c 128,-1,31
 196 21 196 21 148.5 68.5 c 128,-1,32
 101 116 101 116 75.5 187.5 c 128,-1,33
 50 259 50 259 50 355 c 0,34,35
 50 454 50 454 76 525.5 c 128,-1,36
 102 597 102 597 149 643 c 128,-1,37
 196 689 196 689 260 712 c 128,-1,38
 324 735 324 735 399 735 c 256,39,40
 474 735 474 735 525.5 705.5 c 128,-1,41
 577 676 577 676 606.5 621 c 128,-1,42
 636 566 636 566 644 488 c 1,43,-1
 613 539 l 1,44,-1
 631 720 l 1,45,-1
 716 720 l 1,46,-1
 716 460 l 1,47,-1
 616 460 l 1,48,49
 601 518 601 518 575 560.5 c 128,-1,50
 549 603 549 603 510.5 625.5 c 128,-1,51
 472 648 472 648 420 648 c 0,10,11
EndSplineSet
EndChar

StartChar: D
Encoding: 68 68 40
Width: 837
GlyphClass: 2
Flags: W
AnchorPoint: "Anchor-1" 421 0 basechar 0
AnchorPoint: "Anchor-0" 421 741 basechar 0
LayerCount: 2
Fore
SplineSet
46 627 m 1,0,-1
 46 710 l 1,1,-1
 418 710 l 2,2,3
 501 710 501 710 569 689.5 c 128,-1,4
 637 669 637 669 685.5 626 c 128,-1,5
 734 583 734 583 760.5 516.5 c 128,-1,6
 787 450 787 450 787 359 c 0,7,8
 787 269 787 269 760.5 201 c 128,-1,9
 734 133 734 133 685.5 88.5 c 128,-1,10
 637 44 637 44 569 22 c 128,-1,11
 501 0 501 0 418 0 c 2,12,-1
 46 0 l 1,13,-1
 46 83 l 1,14,-1
 57 83 l 2,15,16
 84 83 84 83 102 90 c 128,-1,17
 120 97 120 97 120 119 c 2,18,-1
 120 591 l 2,19,20
 120 613 120 613 102 620 c 128,-1,21
 84 627 84 627 57 627 c 2,22,-1
 46 627 l 1,0,-1
397 628 m 2,23,-1
 298 628 l 1,24,-1
 298 82 l 1,25,-1
 397 82 l 2,26,27
 449 82 449 82 487.5 98 c 128,-1,28
 526 114 526 114 550.5 148 c 128,-1,29
 575 182 575 182 587.5 234.5 c 128,-1,30
 600 287 600 287 600 359 c 256,31,32
 600 431 600 431 587.5 482.5 c 128,-1,33
 575 534 575 534 550.5 566 c 128,-1,34
 526 598 526 598 487.5 613 c 128,-1,35
 449 628 449 628 397 628 c 2,23,-1
EndSplineSet
EndChar

StartChar: Dcaron
Encoding: 270 270 41
Width: 837
GlyphClass: 1
Flags: W
LayerCount: 2
Fore
SplineSet
342 792 m 1,0,-1
 462 792 l 1,1,-1
 607 957 l 1,2,-1
 607 995 l 1,3,-1
 546 995 l 1,4,-1
 369 884 l 1,5,-1
 445 886 l 1,6,-1
 265 995 l 1,7,-1
 198 995 l 1,8,-1
 198 957 l 1,9,-1
 342 792 l 1,0,-1
46 627 m 1,10,-1
 46 710 l 1,11,-1
 418 710 l 2,12,13
 501 710 501 710 569 689.5 c 128,-1,14
 637 669 637 669 685.5 626 c 128,-1,15
 734 583 734 583 760.5 516.5 c 128,-1,16
 787 450 787 450 787 359 c 0,17,18
 787 269 787 269 760.5 201 c 128,-1,19
 734 133 734 133 685.5 88.5 c 128,-1,20
 637 44 637 44 569 22 c 128,-1,21
 501 0 501 0 418 0 c 2,22,-1
 46 0 l 1,23,-1
 46 83 l 1,24,-1
 57 83 l 2,25,26
 84 83 84 83 102 90 c 128,-1,27
 120 97 120 97 120 119 c 2,28,-1
 120 591 l 2,29,30
 120 613 120 613 102 620 c 128,-1,31
 84 627 84 627 57 627 c 2,32,-1
 46 627 l 1,10,-1
397 628 m 2,33,-1
 298 628 l 1,34,-1
 298 82 l 1,35,-1
 397 82 l 2,36,37
 449 82 449 82 487.5 98 c 128,-1,38
 526 114 526 114 550.5 148 c 128,-1,39
 575 182 575 182 587.5 234.5 c 128,-1,40
 600 287 600 287 600 359 c 256,41,42
 600 431 600 431 587.5 482.5 c 128,-1,43
 575 534 575 534 550.5 566 c 128,-1,44
 526 598 526 598 487.5 613 c 128,-1,45
 449 628 449 628 397 628 c 2,33,-1
EndSplineSet
EndChar

StartChar: E
Encoding: 69 69 44
Width: 724
GlyphClass: 2
Flags: W
AnchorPoint: "Anchor-2" 501 0 basechar 0
AnchorPoint: "Anchor-1" 428 0 basechar 0
AnchorPoint: "Anchor-0" 428 741 basechar 0
LayerCount: 2
Fore
SplineSet
665 225 m 1,0,-1
 665 0 l 1,1,-1
 46 0 l 1,2,-1
 46 83 l 1,3,-1
 57 83 l 2,4,5
 84 83 84 83 102 90 c 128,-1,6
 120 97 120 97 120 119 c 2,7,-1
 120 591 l 2,8,9
 120 613 120 613 102 620 c 128,-1,10
 84 627 84 627 57 627 c 2,11,-1
 46 627 l 1,12,-1
 46 710 l 1,13,-1
 648 710 l 1,14,-1
 648 510 l 1,15,-1
 558 510 l 1,16,-1
 547 583 l 2,17,18
 544 601 544 601 532 610.5 c 128,-1,19
 520 620 520 620 497.5 624 c 128,-1,20
 475 628 475 628 441 628 c 2,21,-1
 298 628 l 1,22,-1
 298 82 l 1,23,-1
 440 82 l 2,24,25
 470 82 470 82 491.5 84 c 128,-1,26
 513 86 513 86 527 91 c 128,-1,27
 541 96 541 96 547.5 105 c 128,-1,28
 554 114 554 114 557 127 c 2,29,-1
 573 225 l 1,30,-1
 665 225 l 1,0,-1
282 402 m 1,31,32
 328 405 328 405 373.5 408.5 c 128,-1,33
 419 412 419 412 464.5 415.5 c 128,-1,34
 510 419 510 419 555 422 c 1,35,-1
 555 308 l 1,36,37
 510 312 510 312 464.5 315 c 128,-1,38
 419 318 419 318 373.5 321.5 c 128,-1,39
 328 325 328 325 282 328 c 1,40,-1
 282 402 l 1,31,32
EndSplineSet
Substitution2: "'ss01' Style Set 1 lookup 61 subtable" E.alt
EndChar

StartChar: Ecaron
Encoding: 282 282 53
Width: 724
GlyphClass: 1
Flags: W
LayerCount: 2
Fore
SplineSet
304 792 m 1,0,-1
 424 792 l 1,1,-1
 568 957 l 1,2,-1
 568 995 l 1,3,-1
 507 995 l 1,4,-1
 330 884 l 1,5,-1
 407 886 l 1,6,-1
 226 995 l 1,7,-1
 160 995 l 1,8,-1
 160 957 l 1,9,-1
 304 792 l 1,0,-1
665 225 m 1,10,-1
 665 0 l 1,11,-1
 46 0 l 1,12,-1
 46 83 l 1,13,-1
 57 83 l 2,14,15
 84 83 84 83 102 90 c 128,-1,16
 120 97 120 97 120 119 c 2,17,-1
 120 591 l 2,18,19
 120 613 120 613 102 620 c 128,-1,20
 84 627 84 627 57 627 c 2,21,-1
 46 627 l 1,22,-1
 46 710 l 1,23,-1
 648 710 l 1,24,-1
 648 510 l 1,25,-1
 558 510 l 1,26,-1
 547 583 l 2,27,28
 544 601 544 601 532 610.5 c 128,-1,29
 520 620 520 620 497.5 624 c 128,-1,30
 475 628 475 628 441 628 c 2,31,-1
 298 628 l 1,32,-1
 298 82 l 1,33,-1
 440 82 l 2,34,35
 470 82 470 82 491.5 84 c 128,-1,36
 513 86 513 86 527 91 c 128,-1,37
 541 96 541 96 547.5 105 c 128,-1,38
 554 114 554 114 557 127 c 2,39,-1
 573 225 l 1,40,-1
 665 225 l 1,10,-1
282 402 m 1,41,42
 328 405 328 405 373.5 408.5 c 128,-1,43
 419 412 419 412 464.5 415.5 c 128,-1,44
 510 419 510 419 555 422 c 1,45,-1
 555 308 l 1,46,47
 510 312 510 312 464.5 315 c 128,-1,48
 419 318 419 318 373.5 321.5 c 128,-1,49
 328 325 328 325 282 328 c 1,50,-1
 282 402 l 1,41,42
EndSplineSet
Substitution2: "'ss01' Style Set 1 lookup 61 subtable" Ecaron.alt
EndChar

StartChar: Edblgrave
Encoding: 516 516 54
Width: 724
GlyphClass: 1
Flags: W
LayerCount: 2
Fore
SplineSet
498 925 m 2,0,-1
 541 821 l 1,1,-1
 541 785 l 1,2,-1
 494 785 l 1,3,-1
 406 839 l 2,4,5
 374 859 374 859 351.5 881 c 128,-1,6
 329 903 329 903 329 937 c 0,7,8
 329 966 329 966 348.5 984.5 c 128,-1,9
 368 1003 368 1003 403 1003 c 0,10,11
 428 1003 428 1003 446 993 c 128,-1,12
 464 983 464 983 476.5 965.5 c 128,-1,13
 489 948 489 948 498 925 c 2,0,-1
266 925 m 2,14,-1
 308 821 l 1,15,-1
 308 785 l 1,16,-1
 261 785 l 1,17,-1
 174 839 l 2,18,19
 142 859 142 859 119.5 881 c 128,-1,20
 97 903 97 903 97 937 c 0,21,22
 97 966 97 966 116.5 984.5 c 128,-1,23
 136 1003 136 1003 171 1003 c 0,24,25
 196 1003 196 1003 214 993 c 128,-1,26
 232 983 232 983 245 965.5 c 128,-1,27
 258 948 258 948 266 925 c 2,14,-1
665 225 m 1,28,-1
 665 0 l 1,29,-1
 46 0 l 1,30,-1
 46 83 l 1,31,-1
 57 83 l 2,32,33
 84 83 84 83 102 90 c 128,-1,34
 120 97 120 97 120 119 c 2,35,-1
 120 591 l 2,36,37
 120 613 120 613 102 620 c 128,-1,38
 84 627 84 627 57 627 c 2,39,-1
 46 627 l 1,40,-1
 46 710 l 1,41,-1
 648 710 l 1,42,-1
 648 510 l 1,43,-1
 558 510 l 1,44,-1
 547 583 l 2,45,46
 544 601 544 601 532 610.5 c 128,-1,47
 520 620 520 620 497.5 624 c 128,-1,48
 475 628 475 628 441 628 c 2,49,-1
 298 628 l 1,50,-1
 298 82 l 1,51,-1
 440 82 l 2,52,53
 471 82 471 82 492 84 c 128,-1,54
 513 86 513 86 527 91 c 128,-1,55
 541 96 541 96 547.5 105 c 128,-1,56
 554 114 554 114 557 127 c 2,57,-1
 573 225 l 1,58,-1
 665 225 l 1,28,-1
282 402 m 1,59,60
 328 405 328 405 373.5 408.5 c 128,-1,61
 419 412 419 412 464.5 415.5 c 128,-1,62
 510 419 510 419 555 422 c 1,63,-1
 555 308 l 1,64,65
 510 312 510 312 464.5 315 c 128,-1,66
 419 318 419 318 373.5 321.5 c 128,-1,67
 328 325 328 325 282 328 c 1,68,-1
 282 402 l 1,59,60
EndSplineSet
Substitution2: "'ss01' Style Set 1 lookup 61 subtable" Edblgrave.alt
EndChar

StartChar: Einvertedbreve
Encoding: 518 518 55
Width: 724
GlyphClass: 1
Flags: W
LayerCount: 2
Fore
SplineSet
357 968 m 256,0,1
 288 968 288 968 243.5 947.5 c 128,-1,2
 199 927 199 927 178 883.5 c 128,-1,3
 157 840 157 840 156 769 c 1,4,-1
 245 769 l 1,5,6
 247 802 247 802 256 820 c 128,-1,7
 265 838 265 838 288 845 c 128,-1,8
 311 852 311 852 355 852 c 0,9,10
 398 852 398 852 421 845 c 128,-1,11
 444 838 444 838 453.5 820 c 128,-1,12
 463 802 463 802 464 769 c 1,13,-1
 558 769 l 1,14,15
 558 840 558 840 536.5 883.5 c 128,-1,16
 515 927 515 927 470.5 947.5 c 128,-1,17
 426 968 426 968 357 968 c 256,0,1
665 225 m 1,18,-1
 665 0 l 1,19,-1
 46 0 l 1,20,-1
 46 83 l 1,21,-1
 57 83 l 2,22,23
 84 83 84 83 102 90 c 128,-1,24
 120 97 120 97 120 119 c 2,25,-1
 120 591 l 2,26,27
 120 613 120 613 102 620 c 128,-1,28
 84 627 84 627 57 627 c 2,29,-1
 46 627 l 1,30,-1
 46 710 l 1,31,-1
 648 710 l 1,32,-1
 648 510 l 1,33,-1
 558 510 l 1,34,-1
 547 583 l 2,35,36
 544 601 544 601 532 610.5 c 128,-1,37
 520 620 520 620 497.5 624 c 128,-1,38
 475 628 475 628 441 628 c 2,39,-1
 298 628 l 1,40,-1
 298 82 l 1,41,-1
 440 82 l 2,42,43
 471 82 471 82 492 84 c 128,-1,44
 513 86 513 86 527 91 c 128,-1,45
 541 96 541 96 547.5 105 c 128,-1,46
 554 114 554 114 557 127 c 2,47,-1
 573 225 l 1,48,-1
 665 225 l 1,18,-1
282 402 m 1,49,50
 328 405 328 405 373.5 408.5 c 128,-1,51
 419 412 419 412 464.5 415.5 c 128,-1,52
 510 419 510 419 555 422 c 1,53,-1
 555 308 l 1,54,55
 510 312 510 312 464.5 315 c 128,-1,56
 419 318 419 318 373.5 321.5 c 128,-1,57
 328 325 328 325 282 328 c 1,58,-1
 282 402 l 1,49,50
EndSplineSet
Substitution2: "'ss01' Style Set 1 lookup 61 subtable" Einvertedbreve.alt
EndChar

StartChar: F
Encoding: 70 70 67
Width: 703
GlyphClass: 2
Flags: W
AnchorPoint: "Anchor-0" 312 741 basechar 0
LayerCount: 2
Fore
SplineSet
298 628 m 1,0,-1
 298 93 l 2,1,2
 298 90 298 90 304 88.5 c 128,-1,3
 310 87 310 87 320.5 85.5 c 128,-1,4
 331 84 331 84 345 83.5 c 128,-1,5
 359 83 359 83 374 83 c 2,6,-1
 393 83 l 1,7,-1
 393 0 l 1,8,-1
 46 0 l 1,9,-1
 46 83 l 1,10,-1
 56 83 l 2,11,12
 84 83 84 83 102 90 c 128,-1,13
 120 97 120 97 120 119 c 2,14,-1
 120 591 l 2,15,16
 120 613 120 613 102 620 c 128,-1,17
 84 627 84 627 56 627 c 2,18,-1
 46 627 l 1,19,-1
 46 710 l 1,20,-1
 648 710 l 1,21,-1
 648 508 l 1,22,-1
 558 508 l 1,23,-1
 547 583 l 2,24,25
 544 601 544 601 532 610.5 c 128,-1,26
 520 620 520 620 497.5 624 c 128,-1,27
 475 628 475 628 441 628 c 2,28,-1
 298 628 l 1,0,-1
282 386 m 1,29,30
 328 390 328 390 373.5 393.5 c 128,-1,31
 419 397 419 397 464 400.5 c 128,-1,32
 509 404 509 404 555 407 c 1,33,-1
 555 293 l 1,34,35
 509 297 509 297 464 300 c 128,-1,36
 419 303 419 303 373.5 306.5 c 128,-1,37
 328 310 328 310 282 313 c 1,38,-1
 282 386 l 1,29,30
EndSplineSet
Substitution2: "'ss01' Style Set 1 lookup 61 subtable" F.alt
EndChar

StartChar: G
Encoding: 71 71 68
Width: 840
GlyphClass: 2
Flags: W
AnchorPoint: "Anchor-1" 428 0 basechar 0
AnchorPoint: "Anchor-0" 428 741 basechar 0
LayerCount: 2
Fore
SplineSet
725 229 m 2,0,-1
 725 96 l 1,1,2
 710 79 710 79 681 58.5 c 128,-1,3
 652 38 652 38 611 18.5 c 128,-1,4
 570 -1 570 -1 520 -13 c 128,-1,5
 470 -25 470 -25 412 -25 c 0,6,7
 330 -25 330 -25 263 -1.5 c 128,-1,8
 196 22 196 22 148.5 69.5 c 128,-1,9
 101 117 101 117 75.5 188.5 c 128,-1,10
 50 260 50 260 50 355 c 0,11,12
 50 451 50 451 76.5 522.5 c 128,-1,13
 103 594 103 594 151 641 c 128,-1,14
 199 688 199 688 263.5 711.5 c 128,-1,15
 328 735 328 735 405 735 c 0,16,17
 478 735 478 735 528.5 707.5 c 128,-1,18
 579 680 579 680 609 629.5 c 128,-1,19
 639 579 639 579 650 509 c 1,20,-1
 616 561 l 1,21,-1
 631 720 l 1,22,-1
 719 720 l 1,23,-1
 719 482 l 1,24,-1
 622 482 l 1,25,26
 606 531 606 531 579 568.5 c 128,-1,27
 552 606 552 606 513.5 627 c 128,-1,28
 475 648 475 648 424 648 c 0,29,30
 376 648 376 648 340.5 631.5 c 128,-1,31
 305 615 305 615 282 580.5 c 128,-1,32
 259 546 259 546 247.5 490 c 128,-1,33
 236 434 236 434 236 355 c 0,34,35
 236 273 236 273 248.5 216.5 c 128,-1,36
 261 160 261 160 284.5 126 c 128,-1,37
 308 92 308 92 343.5 77 c 128,-1,38
 379 62 379 62 426 62 c 0,39,40
 464 62 464 62 490.5 69.5 c 128,-1,41
 517 77 517 77 534.5 88 c 128,-1,42
 552 99 552 99 563 109 c 1,43,-1
 563 229 l 2,44,45
 563 254 563 254 540.5 261.5 c 128,-1,46
 518 269 518 269 488 269 c 2,47,-1
 458 269 l 1,48,-1
 458 352 l 1,49,-1
 803 352 l 1,50,-1
 803 269 l 1,51,-1
 779 269 l 2,52,53
 751 269 751 269 738 261.5 c 128,-1,54
 725 254 725 254 725 229 c 2,0,-1
EndSplineSet
EndChar

StartChar: Gcaron
Encoding: 486 486 73
Width: 840
GlyphClass: 1
Flags: W
LayerCount: 2
Fore
SplineSet
357 792 m 1,0,-1
 477 792 l 1,1,-1
 621 957 l 1,2,-1
 621 995 l 1,3,-1
 560 995 l 1,4,-1
 383 884 l 1,5,-1
 460 886 l 1,6,-1
 279 995 l 1,7,-1
 213 995 l 1,8,-1
 213 957 l 1,9,-1
 357 792 l 1,0,-1
725 229 m 2,10,-1
 725 96 l 1,11,12
 710 79 710 79 681 58.5 c 128,-1,13
 652 38 652 38 611 18.5 c 128,-1,14
 570 -1 570 -1 520 -13 c 128,-1,15
 470 -25 470 -25 412 -25 c 0,16,17
 330 -25 330 -25 263 -1.5 c 128,-1,18
 196 22 196 22 148.5 69.5 c 128,-1,19
 101 117 101 117 75.5 188.5 c 128,-1,20
 50 260 50 260 50 355 c 0,21,22
 50 451 50 451 76.5 522.5 c 128,-1,23
 103 594 103 594 151 641 c 128,-1,24
 199 688 199 688 263.5 711.5 c 128,-1,25
 328 735 328 735 405 735 c 0,26,27
 478 735 478 735 528.5 707.5 c 128,-1,28
 579 680 579 680 609 629.5 c 128,-1,29
 639 579 639 579 650 509 c 1,30,-1
 616 561 l 1,31,-1
 631 720 l 1,32,-1
 719 720 l 1,33,-1
 719 482 l 1,34,-1
 622 482 l 1,35,36
 606 531 606 531 579 568.5 c 128,-1,37
 552 606 552 606 513.5 627 c 128,-1,38
 475 648 475 648 424 648 c 0,39,40
 376 648 376 648 340.5 631.5 c 128,-1,41
 305 615 305 615 282 580.5 c 128,-1,42
 259 546 259 546 247.5 490 c 128,-1,43
 236 434 236 434 236 355 c 0,44,45
 236 273 236 273 248.5 216.5 c 128,-1,46
 261 160 261 160 284.5 126 c 128,-1,47
 308 92 308 92 343.5 77 c 128,-1,48
 379 62 379 62 426 62 c 0,49,50
 464 62 464 62 490.5 69.5 c 128,-1,51
 517 77 517 77 534.5 88 c 128,-1,52
 552 99 552 99 563 109 c 1,53,-1
 563 229 l 2,54,55
 563 254 563 254 540.5 261.5 c 128,-1,56
 518 269 518 269 488 269 c 2,57,-1
 458 269 l 1,58,-1
 458 352 l 1,59,-1
 803 352 l 1,60,-1
 803 269 l 1,61,-1
 779 269 l 2,62,63
 751 269 751 269 738 261.5 c 128,-1,64
 725 254 725 254 725 229 c 2,10,-1
EndSplineSet
EndChar

StartChar: H
Encoding: 72 72 75
Width: 863
GlyphClass: 2
Flags: W
AnchorPoint: "Anchor-1" 432 0 basechar 0
AnchorPoint: "Anchor-0" 432 741 basechar 0
LayerCount: 2
Fore
SplineSet
210 407 m 1,0,-1
 627 407 l 1,1,-1
 627 324 l 1,2,-1
 210 324 l 1,3,-1
 210 407 l 1,0,-1
46 0 m 1,4,-1
 46 83 l 1,5,-1
 56 83 l 2,6,7
 84 83 84 83 102 90 c 128,-1,8
 120 97 120 97 120 119 c 2,9,-1
 120 591 l 2,10,11
 120 613 120 613 102 620 c 128,-1,12
 84 627 84 627 56 627 c 2,13,-1
 46 627 l 1,14,-1
 46 710 l 1,15,-1
 368 710 l 1,16,-1
 368 627 l 1,17,-1
 359 627 l 2,18,19
 350 627 350 627 339 626.5 c 128,-1,20
 328 626 328 626 318.5 624.5 c 128,-1,21
 309 623 309 623 303.5 621.5 c 128,-1,22
 298 620 298 620 298 617 c 2,23,-1
 298 92 l 2,24,25
 298 90 298 90 303.5 88.5 c 128,-1,26
 309 87 309 87 318.5 85.5 c 128,-1,27
 328 84 328 84 339 83.5 c 128,-1,28
 350 83 350 83 359 83 c 2,29,-1
 368 83 l 1,30,-1
 368 0 l 1,31,-1
 46 0 l 1,4,-1
495 0 m 1,32,-1
 495 83 l 1,33,-1
 503 83 l 2,34,35
 513 83 513 83 524 83.5 c 128,-1,36
 535 84 535 84 544 85.5 c 128,-1,37
 553 87 553 87 559 88.5 c 128,-1,38
 565 90 565 90 565 93 c 2,39,-1
 565 618 l 2,40,41
 565 620 565 620 559 621.5 c 128,-1,42
 553 623 553 623 544 624.5 c 128,-1,43
 535 626 535 626 524 626.5 c 128,-1,44
 513 627 513 627 503 627 c 2,45,-1
 495 627 l 1,46,-1
 495 710 l 1,47,-1
 817 710 l 1,48,-1
 817 627 l 1,49,-1
 806 627 l 2,50,51
 779 627 779 627 761 620 c 128,-1,52
 743 613 743 613 743 591 c 2,53,-1
 743 119 l 2,54,55
 743 97 743 97 761 90 c 128,-1,56
 779 83 779 83 806 83 c 2,57,-1
 817 83 l 1,58,-1
 817 0 l 1,59,-1
 495 0 l 1,32,-1
EndSplineSet
EndChar

StartChar: I
Encoding: 73 73 79
Width: 436
GlyphClass: 2
Flags: W
AnchorPoint: "Anchor-2" 287 0 basechar 0
AnchorPoint: "Anchor-1" 219 0 basechar 0
AnchorPoint: "Anchor-0" 219 741 basechar 0
LayerCount: 2
Fore
SplineSet
129 119 m 2,0,-1
 129 591 l 2,1,2
 129 613 129 613 111 620 c 128,-1,3
 93 627 93 627 65 627 c 2,4,-1
 46 627 l 1,5,-1
 46 710 l 1,6,-1
 391 710 l 1,7,-1
 391 627 l 1,8,-1
 371 627 l 2,9,10
 343 627 343 627 325 620 c 128,-1,11
 307 613 307 613 307 591 c 2,12,-1
 307 119 l 2,13,14
 307 97 307 97 325 90 c 128,-1,15
 343 83 343 83 371 83 c 2,16,-1
 391 83 l 1,17,-1
 391 0 l 1,18,-1
 46 0 l 1,19,-1
 46 83 l 1,20,-1
 65 83 l 2,21,22
 93 83 93 83 111 90 c 128,-1,23
 129 97 129 97 129 119 c 2,0,-1
EndSplineSet
EndChar

StartChar: Icaron
Encoding: 463 463 89
Width: 436
GlyphClass: 1
Flags: W
LayerCount: 2
Fore
SplineSet
158 792 m 1,0,-1
 278 792 l 1,1,-1
 422 957 l 1,2,-1
 422 995 l 1,3,-1
 361 995 l 1,4,-1
 184 884 l 1,5,-1
 261 886 l 1,6,-1
 81 995 l 1,7,-1
 14 995 l 1,8,-1
 14 957 l 1,9,-1
 158 792 l 1,0,-1
129 119 m 2,10,-1
 129 591 l 2,11,12
 129 613 129 613 111 620 c 128,-1,13
 93 627 93 627 65 627 c 2,14,-1
 46 627 l 1,15,-1
 46 710 l 1,16,-1
 391 710 l 1,17,-1
 391 627 l 1,18,-1
 371 627 l 2,19,20
 343 627 343 627 325 620 c 128,-1,21
 307 613 307 613 307 591 c 2,22,-1
 307 119 l 2,23,24
 307 97 307 97 325 90 c 128,-1,25
 343 83 343 83 371 83 c 2,26,-1
 391 83 l 1,27,-1
 391 0 l 1,28,-1
 46 0 l 1,29,-1
 46 83 l 1,30,-1
 65 83 l 2,31,32
 93 83 93 83 111 90 c 128,-1,33
 129 97 129 97 129 119 c 2,10,-1
EndSplineSet
EndChar

StartChar: Idblgrave
Encoding: 520 520 90
Width: 436
GlyphClass: 1
Flags: W
LayerCount: 2
Fore
SplineSet
355 925 m 2,0,-1
 398 821 l 1,1,-1
 398 785 l 1,2,-1
 351 785 l 1,3,-1
 263 839 l 2,4,5
 231 859 231 859 208.5 881 c 128,-1,6
 186 903 186 903 186 937 c 0,7,8
 186 966 186 966 205.5 984.5 c 128,-1,9
 225 1003 225 1003 260 1003 c 0,10,11
 285 1003 285 1003 302.5 993 c 128,-1,12
 320 983 320 983 333 965.5 c 128,-1,13
 346 948 346 948 355 925 c 2,0,-1
123 925 m 2,14,-1
 165 821 l 1,15,-1
 165 785 l 1,16,-1
 118 785 l 1,17,-1
 31 839 l 2,18,19
 -1 859 -1 859 -23.5 881 c 128,-1,20
 -46 903 -46 903 -46 937 c 0,21,22
 -46 966 -46 966 -27 984.5 c 128,-1,23
 -8 1003 -8 1003 28 1003 c 0,24,25
 52 1003 52 1003 70.5 993 c 128,-1,26
 89 983 89 983 101.5 965.5 c 128,-1,27
 114 948 114 948 123 925 c 2,14,-1
129 119 m 2,28,-1
 129 591 l 2,29,30
 129 613 129 613 111 620 c 128,-1,31
 93 627 93 627 66 627 c 2,32,-1
 46 627 l 1,33,-1
 46 710 l 1,34,-1
 391 710 l 1,35,-1
 391 627 l 1,36,-1
 371 627 l 2,37,38
 343 627 343 627 325 620 c 128,-1,39
 307 613 307 613 307 591 c 2,40,-1
 307 119 l 2,41,42
 307 97 307 97 325 90 c 128,-1,43
 343 83 343 83 371 83 c 2,44,-1
 391 83 l 1,45,-1
 391 0 l 1,46,-1
 46 0 l 1,47,-1
 46 83 l 1,48,-1
 66 83 l 2,49,50
 93 83 93 83 111 90 c 128,-1,51
 129 97 129 97 129 119 c 2,28,-1
EndSplineSet
EndChar

StartChar: Iinvertedbreve
Encoding: 522 522 91
Width: 436
GlyphClass: 1
Flags: W
LayerCount: 2
Fore
SplineSet
219 968 m 0,0,1
 149 968 149 968 104.5 947.5 c 128,-1,2
 60 927 60 927 39 883.5 c 128,-1,3
 18 840 18 840 18 769 c 1,4,-1
 107 769 l 1,5,6
 108 802 108 802 117 820 c 128,-1,7
 126 838 126 838 149.5 845 c 128,-1,8
 173 852 173 852 217 852 c 0,9,10
 260 852 260 852 282.5 845 c 128,-1,11
 305 838 305 838 314.5 820 c 128,-1,12
 324 802 324 802 326 769 c 1,13,-1
 419 769 l 1,14,15
 419 840 419 840 397 883.5 c 128,-1,16
 375 927 375 927 331 947.5 c 128,-1,17
 287 968 287 968 219 968 c 0,0,1
129 119 m 2,18,-1
 129 591 l 2,19,20
 129 613 129 613 111 620 c 128,-1,21
 93 627 93 627 66 627 c 2,22,-1
 46 627 l 1,23,-1
 46 710 l 1,24,-1
 391 710 l 1,25,-1
 391 627 l 1,26,-1
 371 627 l 2,27,28
 343 627 343 627 325 620 c 128,-1,29
 307 613 307 613 307 591 c 2,30,-1
 307 119 l 2,31,32
 307 97 307 97 325 90 c 128,-1,33
 343 83 343 83 371 83 c 2,34,-1
 391 83 l 1,35,-1
 391 0 l 1,36,-1
 46 0 l 1,37,-1
 46 83 l 1,38,-1
 66 83 l 2,39,40
 93 83 93 83 111 90 c 128,-1,41
 129 97 129 97 129 119 c 2,18,-1
EndSplineSet
EndChar

StartChar: J
Encoding: 74 74 94
Width: 701
GlyphClass: 2
Flags: W
AnchorPoint: "Anchor-0" 471 741 basechar 0
LayerCount: 2
Fore
SplineSet
301 710 m 1,0,-1
 660 710 l 1,1,-1
 660 627 l 1,2,-1
 640 627 l 2,3,4
 613 627 613 627 595 620 c 128,-1,5
 577 613 577 613 577 591 c 2,6,-1
 577 233 l 2,7,8
 577 164 577 164 556.5 115 c 128,-1,9
 536 66 536 66 498 35 c 128,-1,10
 460 4 460 4 406.5 -10.5 c 128,-1,11
 353 -25 353 -25 287 -25 c 0,12,13
 223 -25 223 -25 173.5 -12 c 128,-1,14
 124 1 124 1 91.5 18 c 128,-1,15
 59 35 59 35 45 47 c 1,16,-1
 45 256 l 1,17,-1
 192 256 l 1,18,-1
 192 49 l 1,19,20
 176 54 176 54 161.5 65.5 c 128,-1,21
 147 77 147 77 138 88 c 128,-1,22
 129 99 129 99 129 105 c 128,-1,23
 129 111 129 111 142 105 c 0,24,25
 153 96 153 96 173.5 86 c 128,-1,26
 194 76 194 76 220.5 68.5 c 128,-1,27
 247 61 247 61 279 61 c 0,28,29
 319 61 319 61 345 75 c 128,-1,30
 371 89 371 89 384.5 125 c 128,-1,31
 398 161 398 161 398 227 c 2,32,-1
 398 591 l 2,33,34
 398 606 398 606 388.5 613.5 c 128,-1,35
 379 621 379 621 363 624 c 128,-1,36
 347 627 347 627 329 627 c 2,37,-1
 301 627 l 1,38,-1
 301 710 l 1,0,-1
EndSplineSet
EndChar

StartChar: K
Encoding: 75 75 96
Width: 846
GlyphClass: 2
Flags: W
AnchorPoint: "Anchor-1" 436 0 basechar 0
AnchorPoint: "Anchor-0" 436 741 basechar 0
LayerCount: 2
Fore
SplineSet
46 0 m 1,0,-1
 46 83 l 1,1,-1
 57 83 l 2,2,3
 84 83 84 83 102 90 c 128,-1,4
 120 97 120 97 120 119 c 2,5,-1
 120 591 l 2,6,7
 120 613 120 613 102 620 c 128,-1,8
 84 627 84 627 57 627 c 2,9,-1
 46 627 l 1,10,-1
 46 710 l 1,11,-1
 374 710 l 1,12,-1
 374 627 l 1,13,-1
 362 627 l 2,14,15
 350 627 350 627 338.5 626.5 c 128,-1,16
 327 626 327 626 318 624.5 c 128,-1,17
 309 623 309 623 303.5 621.5 c 128,-1,18
 298 620 298 620 298 617 c 2,19,-1
 298 93 l 2,20,21
 298 90 298 90 303.5 88.5 c 128,-1,22
 309 87 309 87 317 85.5 c 128,-1,23
 325 84 325 84 335 83.5 c 128,-1,24
 345 83 345 83 353 83 c 2,25,-1
 361 83 l 1,26,-1
 361 0 l 1,27,-1
 46 0 l 1,0,-1
470 0 m 1,28,-1
 470 83 l 1,29,-1
 477 83 l 2,30,31
 494 83 494 83 508 84 c 128,-1,32
 522 85 522 85 531 87.5 c 128,-1,33
 540 90 540 90 540 93 c 2,34,-1
 333 348 l 1,35,-1
 333 372 l 1,36,-1
 591 616 l 2,37,38
 591 620 591 620 578 622 c 128,-1,39
 565 624 565 624 547 625.5 c 128,-1,40
 529 627 529 627 511 627 c 2,41,-1
 496 627 l 1,42,-1
 496 710 l 1,43,-1
 786 710 l 1,44,-1
 786 627 l 1,45,-1
 761 627 l 2,46,47
 745 627 745 627 731.5 624.5 c 128,-1,48
 718 622 718 622 706 616 c 128,-1,49
 694 610 694 610 682 598 c 2,50,-1
 422 353 l 1,51,-1
 469 449 l 1,52,-1
 750 104 l 2,53,54
 758 95 758 95 766.5 90.5 c 128,-1,55
 775 86 775 86 785 84.5 c 128,-1,56
 795 83 795 83 806 83 c 2,57,-1
 819 83 l 1,58,-1
 819 0 l 1,59,-1
 470 0 l 1,28,-1
EndSplineSet
EndChar

StartChar: L
Encoding: 76 76 98
Width: 696
GlyphClass: 2
Flags: W
AnchorPoint: "Anchor-2" 530 710 basechar 0
AnchorPoint: "Anchor-1" 427 0 basechar 0
AnchorPoint: "Anchor-0" 427 741 basechar 0
LayerCount: 2
Fore
SplineSet
389 710 m 1,0,-1
 46 710 l 1,1,-1
 46 627 l 1,2,-1
 56 627 l 2,3,4
 84 627 84 627 102 620 c 128,-1,5
 120 613 120 613 120 591 c 2,6,-1
 120 119 l 2,7,8
 120 97 120 97 102 90 c 128,-1,9
 84 83 84 83 56 83 c 2,10,-1
 46 83 l 1,11,-1
 46 0 l 1,12,-1
 653 0 l 1,13,-1
 653 261 l 1,14,-1
 561 261 l 1,15,-1
 545 127 l 2,16,17
 543 109 543 109 531 99 c 128,-1,18
 519 89 519 89 494 85.5 c 128,-1,19
 469 82 469 82 428 82 c 2,20,-1
 298 82 l 1,21,-1
 298 591 l 2,22,23
 298 613 298 613 318 620 c 128,-1,24
 338 627 338 627 370 627 c 2,25,-1
 389 627 l 1,26,-1
 389 710 l 1,0,-1
EndSplineSet
EndChar

StartChar: M
Encoding: 77 77 104
Width: 1027
GlyphClass: 2
Flags: W
AnchorPoint: "Anchor-1" 501 0 basechar 0
LayerCount: 2
Fore
SplineSet
46 0 m 1,0,-1
 46 83 l 1,1,-1
 57 83 l 2,2,3
 76 83 76 83 90 86 c 128,-1,4
 104 89 104 89 112.5 97 c 128,-1,5
 121 105 121 105 121 119 c 2,6,-1
 121 591 l 2,7,8
 121 606 121 606 112.5 613.5 c 128,-1,9
 104 621 104 621 90 624 c 128,-1,10
 76 627 76 627 57 627 c 2,11,-1
 46 627 l 1,12,-1
 46 710 l 1,13,-1
 377 710 l 1,14,-1
 539 187 l 1,15,-1
 506 230 l 1,16,-1
 661 710 l 1,17,-1
 980 710 l 1,18,-1
 980 627 l 1,19,-1
 970 627 l 2,20,21
 942 627 942 627 924 620 c 128,-1,22
 906 613 906 613 906 591 c 2,23,-1
 906 119 l 2,24,25
 906 97 906 97 924 90 c 128,-1,26
 942 83 942 83 970 83 c 2,27,-1
 980 83 l 1,28,-1
 980 0 l 1,29,-1
 659 0 l 1,30,-1
 659 83 l 1,31,-1
 668 83 l 2,32,33
 678 83 678 83 692 84 c 128,-1,34
 706 85 706 85 717.5 87.5 c 128,-1,35
 729 90 729 90 729 93 c 2,36,-1
 729 685 l 1,37,-1
 738 691 l 1,38,-1
 513 -6 l 1,39,-1
 424 -6 l 1,40,-1
 198 689 l 1,41,-1
 209 695 l 1,42,-1
 209 93 l 2,43,44
 209 90 209 90 218.5 87.5 c 128,-1,45
 228 85 228 85 241 84 c 128,-1,46
 254 83 254 83 262 83 c 2,47,-1
 268 83 l 1,48,-1
 268 0 l 1,49,-1
 46 0 l 1,0,-1
EndSplineSet
EndChar

StartChar: N
Encoding: 78 78 106
Width: 834
GlyphClass: 2
Flags: W
AnchorPoint: "Anchor-1" 427 0 basechar 0
AnchorPoint: "Anchor-0" 427 741 basechar 0
LayerCount: 2
Fore
SplineSet
46 0 m 1,0,-1
 46 83 l 1,1,-1
 57 83 l 2,2,3
 76 83 76 83 90 86 c 128,-1,4
 104 89 104 89 112.5 97 c 128,-1,5
 121 105 121 105 121 119 c 2,6,-1
 121 591 l 2,7,8
 121 606 121 606 112.5 613.5 c 128,-1,9
 104 621 104 621 90 624 c 128,-1,10
 76 627 76 627 57 627 c 2,11,-1
 46 627 l 1,12,-1
 46 710 l 1,13,-1
 352 710 l 1,14,-1
 649 149 l 1,15,-1
 631 146 l 1,16,-1
 631 617 l 2,17,18
 631 621 631 621 621 623 c 128,-1,19
 611 625 611 625 597 626 c 128,-1,20
 583 627 583 627 570 627 c 2,21,-1
 557 627 l 1,22,-1
 557 710 l 1,23,-1
 793 710 l 1,24,-1
 793 627 l 1,25,-1
 783 627 l 2,26,27
 765 627 765 627 750 624.5 c 128,-1,28
 735 622 735 622 727 615.5 c 128,-1,29
 719 609 719 609 719 594 c 2,30,-1
 719 0 l 1,31,-1
 534 0 l 1,32,-1
 184 666 l 1,33,-1
 209 657 l 1,34,-1
 209 93 l 2,35,36
 209 90 209 90 219 87.5 c 128,-1,37
 229 85 229 85 243.5 84 c 128,-1,38
 258 83 258 83 270 83 c 2,39,-1
 283 83 l 1,40,-1
 283 0 l 1,41,-1
 46 0 l 1,0,-1
EndSplineSet
EndChar

StartChar: Ncaron
Encoding: 327 327 110
Width: 834
GlyphClass: 1
Flags: W
LayerCount: 2
Fore
SplineSet
368 792 m 1,0,-1
 487 792 l 1,1,-1
 632 957 l 1,2,-1
 632 995 l 1,3,-1
 571 995 l 1,4,-1
 394 884 l 1,5,-1
 470 886 l 1,6,-1
 290 995 l 1,7,-1
 223 995 l 1,8,-1
 223 957 l 1,9,-1
 368 792 l 1,0,-1
46 0 m 1,10,-1
 46 83 l 1,11,-1
 57 83 l 2,12,13
 76 83 76 83 90 86 c 128,-1,14
 104 89 104 89 112.5 97 c 128,-1,15
 121 105 121 105 121 119 c 2,16,-1
 121 591 l 2,17,18
 121 606 121 606 112.5 613.5 c 128,-1,19
 104 621 104 621 90 624 c 128,-1,20
 76 627 76 627 57 627 c 2,21,-1
 46 627 l 1,22,-1
 46 710 l 1,23,-1
 352 710 l 1,24,-1
 649 149 l 1,25,-1
 631 146 l 1,26,-1
 631 617 l 2,27,28
 631 621 631 621 621 623 c 128,-1,29
 611 625 611 625 597 626 c 128,-1,30
 583 627 583 627 570 627 c 2,31,-1
 557 627 l 1,32,-1
 557 710 l 1,33,-1
 793 710 l 1,34,-1
 793 627 l 1,35,-1
 783 627 l 2,36,37
 765 627 765 627 750 624.5 c 128,-1,38
 735 622 735 622 727 615.5 c 128,-1,39
 719 609 719 609 719 594 c 2,40,-1
 719 0 l 1,41,-1
 534 0 l 1,42,-1
 184 666 l 1,43,-1
 209 657 l 1,44,-1
 209 93 l 2,45,46
 209 90 209 90 219 87.5 c 128,-1,47
 229 85 229 85 243.5 84 c 128,-1,48
 258 83 258 83 270 83 c 2,49,-1
 283 83 l 1,50,-1
 283 0 l 1,51,-1
 46 0 l 1,10,-1
EndSplineSet
EndChar

StartChar: O
Encoding: 79 79 114
Width: 837
GlyphClass: 2
Flags: W
AnchorPoint: "Anchor-2" 461 0 basechar 0
AnchorPoint: "Anchor-1" 419 0 basechar 0
AnchorPoint: "Anchor-0" 419 741 basechar 0
LayerCount: 2
Fore
SplineSet
419 -25 m 256,0,1
 335 -25 335 -25 267.5 -1 c 128,-1,2
 200 23 200 23 151 70.5 c 128,-1,3
 102 118 102 118 76 189.5 c 128,-1,4
 50 261 50 261 50 355 c 0,5,6
 50 450 50 450 76 521 c 128,-1,7
 102 592 102 592 151 639.5 c 128,-1,8
 200 687 200 687 267.5 711 c 128,-1,9
 335 735 335 735 419 735 c 256,10,11
 503 735 503 735 571 711 c 128,-1,12
 639 687 639 687 687 639.5 c 128,-1,13
 735 592 735 592 761 521 c 128,-1,14
 787 450 787 450 787 355 c 0,15,16
 787 261 787 261 761 189.5 c 128,-1,17
 735 118 735 118 687 70.5 c 128,-1,18
 639 23 639 23 571 -1 c 128,-1,19
 503 -25 503 -25 419 -25 c 256,0,1
419 63 m 256,20,21
 465 63 465 63 499.5 78.5 c 128,-1,22
 534 94 534 94 556.5 128.5 c 128,-1,23
 579 163 579 163 590 219 c 128,-1,24
 601 275 601 275 601 355 c 256,25,26
 601 435 601 435 590 491 c 128,-1,27
 579 547 579 547 556.5 581.5 c 128,-1,28
 534 616 534 616 499.5 631.5 c 128,-1,29
 465 647 465 647 419 647 c 256,30,31
 373 647 373 647 338.5 631.5 c 128,-1,32
 304 616 304 616 281.5 581.5 c 128,-1,33
 259 547 259 547 247.5 491 c 128,-1,34
 236 435 236 435 236 355 c 256,35,36
 236 275 236 275 247.5 219 c 128,-1,37
 259 163 259 163 281 128.5 c 128,-1,38
 303 94 303 94 338 78.5 c 128,-1,39
 373 63 373 63 419 63 c 256,20,21
EndSplineSet
EndChar

StartChar: Ohorn
Encoding: 416 416 123
Width: 931
GlyphClass: 2
Flags: W
AnchorPoint: "Anchor-1" 462 -35 basechar 0
AnchorPoint: "Anchor-0" 462 742 basechar 0
LayerCount: 2
Fore
SplineSet
419 63 m 256,0,1
 465 63 465 63 499.5 78.5 c 128,-1,2
 534 94 534 94 556.5 128.5 c 128,-1,3
 579 163 579 163 590 219 c 128,-1,4
 601 275 601 275 601 355 c 256,5,6
 601 435 601 435 590 491 c 128,-1,7
 579 547 579 547 556.5 581.5 c 128,-1,8
 534 616 534 616 499.5 631.5 c 128,-1,9
 465 647 465 647 419 647 c 256,10,11
 373 647 373 647 338.5 631.5 c 128,-1,12
 304 616 304 616 281.5 581.5 c 128,-1,13
 259 547 259 547 247.5 491 c 128,-1,14
 236 435 236 435 236 355 c 256,15,16
 236 275 236 275 247.5 219 c 128,-1,17
 259 163 259 163 281 128.5 c 128,-1,18
 303 94 303 94 338 78.5 c 128,-1,19
 373 63 373 63 419 63 c 256,0,1
653 574 m 1,20,-1
 605 638 l 1,21,22
 645 616 645 616 678 589 c 128,-1,23
 711 562 711 562 736 527.5 c 128,-1,24
 761 493 761 493 774 449.5 c 128,-1,25
 787 406 787 406 787 350 c 0,26,27
 787 258 787 258 761 188 c 128,-1,28
 735 118 735 118 687 70.5 c 128,-1,29
 639 23 639 23 571 -1 c 128,-1,30
 503 -25 503 -25 419 -25 c 256,31,32
 335 -25 335 -25 267.5 -1 c 128,-1,33
 200 23 200 23 151 70.5 c 128,-1,34
 102 118 102 118 76 189.5 c 128,-1,35
 50 261 50 261 50 355 c 0,36,37
 50 450 50 450 76 521 c 128,-1,38
 102 592 102 592 151 639.5 c 128,-1,39
 200 687 200 687 267.5 711 c 128,-1,40
 335 735 335 735 419 735 c 0,41,42
 468 735 468 735 506.5 728.5 c 128,-1,43
 545 722 545 722 577 714 c 128,-1,44
 609 706 609 706 636.5 699.5 c 128,-1,45
 664 693 664 693 690 693 c 0,46,47
 717 693 717 693 735.5 704.5 c 128,-1,48
 754 716 754 716 766 740 c 128,-1,49
 778 764 778 764 785.5 802 c 128,-1,50
 793 840 793 840 796 893 c 1,51,-1
 931 893 l 1,52,53
 930 810 930 810 916 752.5 c 128,-1,54
 902 695 902 695 878 659.5 c 128,-1,55
 854 624 854 624 822.5 608.5 c 128,-1,56
 791 593 791 593 755 593 c 0,57,58
 737 593 737 593 718 596 c 128,-1,59
 699 599 699 599 678.5 605.5 c 128,-1,60
 658 612 658 612 637 621 c 128,-1,61
 616 630 616 630 595 641 c 1,62,-1
 653 628 l 1,63,-1
 653 574 l 1,20,-1
EndSplineSet
EndChar

StartChar: Ocaron
Encoding: 465 465 124
Width: 832
GlyphClass: 1
Flags: W
LayerCount: 2
Fore
SplineSet
356 792 m 1,0,-1
 476 792 l 1,1,-1
 620 957 l 1,2,-1
 620 995 l 1,3,-1
 559 995 l 1,4,-1
 382 884 l 1,5,-1
 459 886 l 1,6,-1
 279 995 l 1,7,-1
 212 995 l 1,8,-1
 212 957 l 1,9,-1
 356 792 l 1,0,-1
419 -25 m 0,10,11
 335 -25 335 -25 267 -1 c 128,-1,12
 199 23 199 23 150.5 70.5 c 128,-1,13
 102 118 102 118 76 189.5 c 128,-1,14
 50 261 50 261 50 355 c 0,15,16
 50 450 50 450 76 521 c 128,-1,17
 102 592 102 592 150.5 639.5 c 128,-1,18
 199 687 199 687 267 711 c 128,-1,19
 335 735 335 735 419 735 c 0,20,21
 502 735 502 735 570 711 c 128,-1,22
 638 687 638 687 686.5 639.5 c 128,-1,23
 735 592 735 592 761 521 c 128,-1,24
 787 450 787 450 787 355 c 0,25,26
 787 261 787 261 761 189.5 c 128,-1,27
 735 118 735 118 686.5 70.5 c 128,-1,28
 638 23 638 23 570 -1 c 128,-1,29
 502 -25 502 -25 419 -25 c 0,10,11
419 63 m 0,30,31
 465 63 465 63 499 78.5 c 128,-1,32
 533 94 533 94 556 128.5 c 128,-1,33
 579 163 579 163 590 219 c 128,-1,34
 601 275 601 275 601 355 c 256,35,36
 601 435 601 435 590 491 c 128,-1,37
 579 547 579 547 556 581.5 c 128,-1,38
 533 616 533 616 499 631.5 c 128,-1,39
 465 647 465 647 419 647 c 256,40,41
 373 647 373 647 338 631.5 c 128,-1,42
 303 616 303 616 280.5 581.5 c 128,-1,43
 258 547 258 547 247 491 c 128,-1,44
 236 435 236 435 236 355 c 256,45,46
 236 275 236 275 247 219 c 128,-1,47
 258 163 258 163 280.5 128.5 c 128,-1,48
 303 94 303 94 337.5 78.5 c 128,-1,49
 372 63 372 63 419 63 c 0,30,31
EndSplineSet
EndChar

StartChar: Oogonek
Encoding: 490 490 125
Width: 837
GlyphClass: 1
Flags: W
LayerCount: 2
Fore
SplineSet
419 63 m 256,0,1
 465 63 465 63 499.5 78.5 c 128,-1,2
 534 94 534 94 556.5 128.5 c 128,-1,3
 579 163 579 163 590 219 c 128,-1,4
 601 275 601 275 601 355 c 256,5,6
 601 435 601 435 590 491 c 128,-1,7
 579 547 579 547 556.5 581.5 c 128,-1,8
 534 616 534 616 499.5 631.5 c 128,-1,9
 465 647 465 647 419 647 c 256,10,11
 373 647 373 647 338.5 631.5 c 128,-1,12
 304 616 304 616 281.5 581.5 c 128,-1,13
 259 547 259 547 247.5 491 c 128,-1,14
 236 435 236 435 236 355 c 256,15,16
 236 275 236 275 247.5 219 c 128,-1,17
 259 163 259 163 281 128.5 c 128,-1,18
 303 94 303 94 338 78.5 c 128,-1,19
 373 63 373 63 419 63 c 256,0,1
687 70 m 0,20,21
 664 47 664 47 635 26.5 c 128,-1,22
 606 6 606 6 576.5 -13 c 128,-1,23
 547 -32 547 -32 522.5 -50.5 c 128,-1,24
 498 -69 498 -69 483 -89.5 c 128,-1,25
 468 -110 468 -110 468 -134 c 256,26,27
 468 -158 468 -158 481.5 -169.5 c 128,-1,28
 495 -181 495 -181 521 -181 c 0,29,30
 550 -181 550 -181 570 -166 c 128,-1,31
 590 -151 590 -151 604 -137 c 1,32,-1
 646 -183 l 1,33,34
 627 -203 627 -203 603.5 -219 c 128,-1,35
 580 -235 580 -235 548.5 -243.5 c 128,-1,36
 517 -252 517 -252 471 -252 c 0,37,38
 424 -252 424 -252 388.5 -242 c 128,-1,39
 353 -232 353 -232 334 -210.5 c 128,-1,40
 315 -189 315 -189 315 -155 c 0,41,42
 315 -128 315 -128 327.5 -108 c 128,-1,43
 340 -88 340 -88 370.5 -69.5 c 128,-1,44
 401 -51 401 -51 452.5 -27 c 128,-1,45
 504 -3 504 -3 581 31 c 1,46,-1
 557 -6 l 1,47,48
 536 -12 536 -12 514 -16 c 128,-1,49
 492 -20 492 -20 468 -22.5 c 128,-1,50
 444 -25 444 -25 419 -25 c 0,51,52
 335 -25 335 -25 267.5 -1 c 128,-1,53
 200 23 200 23 151 70.5 c 128,-1,54
 102 118 102 118 76 189.5 c 128,-1,55
 50 261 50 261 50 355 c 0,56,57
 50 450 50 450 76 521 c 128,-1,58
 102 592 102 592 151 639.5 c 128,-1,59
 200 687 200 687 267.5 711 c 128,-1,60
 335 735 335 735 419 735 c 256,61,62
 503 735 503 735 571 711 c 128,-1,63
 639 687 639 687 687 639.5 c 128,-1,64
 735 592 735 592 761 521 c 128,-1,65
 787 450 787 450 787 355 c 0,66,67
 787 292 787 292 775.5 239.5 c 128,-1,68
 764 187 764 187 742 145 c 128,-1,69
 720 103 720 103 687 70 c 0,20,21
EndSplineSet
EndChar

StartChar: Odblgrave
Encoding: 524 524 126
Width: 837
GlyphClass: 1
Flags: W
LayerCount: 2
Fore
SplineSet
562 925 m 2,0,-1
 605 821 l 1,1,-1
 605 785 l 1,2,-1
 558 785 l 1,3,-1
 470 839 l 2,4,5
 438 859 438 859 415.5 881 c 128,-1,6
 393 903 393 903 393 937 c 0,7,8
 393 966 393 966 412.5 984.5 c 128,-1,9
 432 1003 432 1003 467 1003 c 0,10,11
 492 1003 492 1003 510 993 c 128,-1,12
 528 983 528 983 540.5 965.5 c 128,-1,13
 553 948 553 948 562 925 c 2,0,-1
330 925 m 2,14,-1
 372 821 l 1,15,-1
 372 785 l 1,16,-1
 325 785 l 1,17,-1
 238 839 l 2,18,19
 206 859 206 859 183.5 881 c 128,-1,20
 161 903 161 903 161 937 c 0,21,22
 161 966 161 966 180 984.5 c 128,-1,23
 199 1003 199 1003 235 1003 c 0,24,25
 260 1003 260 1003 278 993 c 128,-1,26
 296 983 296 983 308.5 965.5 c 128,-1,27
 321 948 321 948 330 925 c 2,14,-1
419 -25 m 256,28,29
 335 -25 335 -25 267.5 -1 c 128,-1,30
 200 23 200 23 151 70.5 c 128,-1,31
 102 118 102 118 76 189.5 c 128,-1,32
 50 261 50 261 50 355 c 0,33,34
 50 450 50 450 76 521 c 128,-1,35
 102 592 102 592 151 639.5 c 128,-1,36
 200 687 200 687 267.5 711 c 128,-1,37
 335 735 335 735 419 735 c 256,38,39
 503 735 503 735 571 711 c 128,-1,40
 639 687 639 687 687 639.5 c 128,-1,41
 735 592 735 592 761 521 c 128,-1,42
 787 450 787 450 787 355 c 0,43,44
 787 261 787 261 761 189.5 c 128,-1,45
 735 118 735 118 687 70.5 c 128,-1,46
 639 23 639 23 571 -1 c 128,-1,47
 503 -25 503 -25 419 -25 c 256,28,29
419 63 m 256,48,49
 465 63 465 63 499.5 78.5 c 128,-1,50
 534 94 534 94 556.5 128.5 c 128,-1,51
 579 163 579 163 590 219 c 128,-1,52
 601 275 601 275 601 355 c 256,53,54
 601 435 601 435 590 491 c 128,-1,55
 579 547 579 547 556.5 581.5 c 128,-1,56
 534 616 534 616 499.5 631.5 c 128,-1,57
 465 647 465 647 419 647 c 256,58,59
 373 647 373 647 338.5 631.5 c 128,-1,60
 304 616 304 616 281.5 581.5 c 128,-1,61
 259 547 259 547 247.5 491 c 128,-1,62
 236 435 236 435 236 355 c 256,63,64
 236 275 236 275 247.5 219 c 128,-1,65
 259 163 259 163 281 128.5 c 128,-1,66
 303 94 303 94 338 78.5 c 128,-1,67
 373 63 373 63 419 63 c 256,48,49
EndSplineSet
EndChar

StartChar: Oinvertedbreve
Encoding: 526 526 127
Width: 837
GlyphClass: 1
Flags: W
LayerCount: 2
Fore
SplineSet
419 968 m 256,0,1
 350 968 350 968 305.5 947.5 c 128,-1,2
 261 927 261 927 239.5 883.5 c 128,-1,3
 218 840 218 840 219 769 c 1,4,-1
 307 769 l 1,5,6
 309 802 309 802 318 820 c 128,-1,7
 327 838 327 838 350 845 c 128,-1,8
 373 852 373 852 417 852 c 0,9,10
 460 852 460 852 483 845 c 128,-1,11
 506 838 506 838 515 820 c 128,-1,12
 524 802 524 802 526 769 c 1,13,-1
 620 769 l 1,14,15
 619 840 619 840 597.5 883.5 c 128,-1,16
 576 927 576 927 532 947.5 c 128,-1,17
 488 968 488 968 419 968 c 256,0,1
419 -25 m 256,18,19
 335 -25 335 -25 267.5 -1 c 128,-1,20
 200 23 200 23 151 70.5 c 128,-1,21
 102 118 102 118 76 189.5 c 128,-1,22
 50 261 50 261 50 355 c 0,23,24
 50 450 50 450 76 521 c 128,-1,25
 102 592 102 592 151 639.5 c 128,-1,26
 200 687 200 687 267.5 711 c 128,-1,27
 335 735 335 735 419 735 c 256,28,29
 503 735 503 735 571 711 c 128,-1,30
 639 687 639 687 687 639.5 c 128,-1,31
 735 592 735 592 761 521 c 128,-1,32
 787 450 787 450 787 355 c 0,33,34
 787 261 787 261 761 189.5 c 128,-1,35
 735 118 735 118 687 70.5 c 128,-1,36
 639 23 639 23 571 -1 c 128,-1,37
 503 -25 503 -25 419 -25 c 256,18,19
419 63 m 256,38,39
 465 63 465 63 499.5 78.5 c 128,-1,40
 534 94 534 94 556.5 128.5 c 128,-1,41
 579 163 579 163 590 219 c 128,-1,42
 601 275 601 275 601 355 c 256,43,44
 601 435 601 435 590 491 c 128,-1,45
 579 547 579 547 556.5 581.5 c 128,-1,46
 534 616 534 616 499.5 631.5 c 128,-1,47
 465 647 465 647 419 647 c 256,48,49
 373 647 373 647 338.5 631.5 c 128,-1,50
 304 616 304 616 281.5 581.5 c 128,-1,51
 259 547 259 547 247.5 491 c 128,-1,52
 236 435 236 435 236 355 c 256,53,54
 236 275 236 275 247.5 219 c 128,-1,55
 259 163 259 163 281 128.5 c 128,-1,56
 303 94 303 94 338 78.5 c 128,-1,57
 373 63 373 63 419 63 c 256,38,39
EndSplineSet
EndChar

StartChar: P
Encoding: 80 80 147
Width: 733
GlyphClass: 2
Flags: W
AnchorPoint: "Anchor-0" 319 741 basechar 0
LayerCount: 2
Fore
SplineSet
298 93 m 2,0,-1
 298 628 l 1,1,-1
 411 628 l 2,2,3
 446 628 446 628 470 613.5 c 128,-1,4
 494 599 494 599 506 570 c 128,-1,5
 518 541 518 541 518 493 c 0,6,7
 518 446 518 446 506 415.5 c 128,-1,8
 494 385 494 385 469.5 370 c 128,-1,9
 445 355 445 355 409 355 c 2,10,-1
 270 355 l 1,11,-1
 270 273 l 1,12,-1
 440 273 l 2,13,14
 516 273 516 273 573 299 c 128,-1,15
 630 325 630 325 662 375 c 128,-1,16
 694 425 694 425 694 496 c 0,17,18
 694 603 694 603 626.5 656.5 c 128,-1,19
 559 710 559 710 443 710 c 2,20,-1
 46 710 l 1,21,-1
 46 633 l 1,22,-1
 56 633 l 2,23,24
 84 633 84 633 101.5 626 c 128,-1,25
 119 619 119 619 119 597 c 2,26,-1
 119 113 l 2,27,28
 119 91 119 91 101.5 84 c 128,-1,29
 84 77 84 77 56 77 c 2,30,-1
 46 77 l 1,31,-1
 46 0 l 1,32,-1
 390 0 l 1,33,-1
 390 83 l 1,34,-1
 367 83 l 2,35,36
 353 83 353 83 340.5 83.5 c 128,-1,37
 328 84 328 84 318.5 85.5 c 128,-1,38
 309 87 309 87 303.5 88.5 c 128,-1,39
 298 90 298 90 298 93 c 2,0,-1
EndSplineSet
EndChar

StartChar: Q
Encoding: 81 81 148
Width: 837
GlyphClass: 1
Flags: W
LayerCount: 2
Fore
SplineSet
369 -3 m 1,0,-1
 466 10 l 1,1,2
 468 -45 468 -45 482.5 -79 c 128,-1,3
 497 -113 497 -113 530.5 -128 c 128,-1,4
 564 -143 564 -143 622 -143 c 0,5,6
 655 -143 655 -143 684 -138.5 c 128,-1,7
 713 -134 713 -134 739.5 -127 c 128,-1,8
 766 -120 766 -120 789 -113 c 1,9,-1
 789 -252 l 1,10,11
 758 -258 758 -258 715 -262.5 c 128,-1,12
 672 -267 672 -267 630 -267 c 0,13,14
 542 -267 542 -267 484 -240 c 128,-1,15
 426 -213 426 -213 397.5 -154.5 c 128,-1,16
 369 -96 369 -96 369 -3 c 1,0,-1
419 -25 m 256,17,18
 335 -25 335 -25 267.5 -1 c 128,-1,19
 200 23 200 23 151 70.5 c 128,-1,20
 102 118 102 118 76 189.5 c 128,-1,21
 50 261 50 261 50 355 c 0,22,23
 50 450 50 450 76 521 c 128,-1,24
 102 592 102 592 151 639.5 c 128,-1,25
 200 687 200 687 267.5 711 c 128,-1,26
 335 735 335 735 419 735 c 256,27,28
 503 735 503 735 571 711 c 128,-1,29
 639 687 639 687 687 639.5 c 128,-1,30
 735 592 735 592 761 521 c 128,-1,31
 787 450 787 450 787 355 c 0,32,33
 787 261 787 261 761 189.5 c 128,-1,34
 735 118 735 118 687 70.5 c 128,-1,35
 639 23 639 23 571 -1 c 128,-1,36
 503 -25 503 -25 419 -25 c 256,17,18
419 63 m 256,37,38
 465 63 465 63 499.5 78.5 c 128,-1,39
 534 94 534 94 556 128.5 c 128,-1,40
 578 163 578 163 589.5 219 c 128,-1,41
 601 275 601 275 601 355 c 0,42,43
 602 435 602 435 591 491 c 128,-1,44
 580 547 580 547 557 581.5 c 128,-1,45
 534 616 534 616 499.5 631.5 c 128,-1,46
 465 647 465 647 419 647 c 256,47,48
 373 647 373 647 338.5 631.5 c 128,-1,49
 304 616 304 616 281.5 581.5 c 128,-1,50
 259 547 259 547 247.5 491 c 128,-1,51
 236 435 236 435 236 355 c 256,52,53
 236 275 236 275 247.5 219 c 128,-1,54
 259 163 259 163 281 128.5 c 128,-1,55
 303 94 303 94 338 78.5 c 128,-1,56
 373 63 373 63 419 63 c 256,37,38
EndSplineSet
EndChar

StartChar: R
Encoding: 82 82 149
Width: 809
GlyphClass: 2
Flags: W
AnchorPoint: "Anchor-1" 453 0 basechar 0
AnchorPoint: "Anchor-0" 453 741 basechar 0
LayerCount: 2
Fore
SplineSet
395 320 m 1,0,-1
 554 0 l 1,1,-1
 777 0 l 1,2,-1
 777 83 l 1,3,-1
 767 83 l 2,4,5
 749 83 749 83 733.5 87.5 c 128,-1,6
 718 92 718 92 704.5 105.5 c 128,-1,7
 691 119 691 119 676 144 c 2,8,-1
 550 373 l 1,9,-1
 395 320 l 1,0,-1
298 93 m 2,10,-1
 298 631 l 1,11,-1
 422 631 l 2,12,13
 458 631 458 631 480.5 617.5 c 128,-1,14
 503 604 503 604 513.5 576.5 c 128,-1,15
 524 549 524 549 524 507 c 0,16,17
 524 464 524 464 512.5 432 c 128,-1,18
 501 400 501 400 477 383 c 128,-1,19
 453 366 453 366 416 366 c 2,20,-1
 271 366 l 1,21,-1
 271 289 l 1,22,-1
 478 289 l 1,23,24
 483 293 483 293 485.5 298 c 128,-1,25
 488 303 488 303 491.5 308.5 c 128,-1,26
 495 314 495 314 502 322 c 1,27,28
 567 334 567 334 613 360.5 c 128,-1,29
 659 387 659 387 683.5 427 c 128,-1,30
 708 467 708 467 708 520 c 0,31,32
 708 585 708 585 678 627 c 128,-1,33
 648 669 648 669 591 689.5 c 128,-1,34
 534 710 534 710 451 710 c 2,35,-1
 46 710 l 1,36,-1
 46 627 l 1,37,-1
 57 627 l 2,38,39
 84 627 84 627 102 620 c 128,-1,40
 120 613 120 613 120 591 c 2,41,-1
 120 119 l 2,42,43
 120 97 120 97 102 90 c 128,-1,44
 84 83 84 83 57 83 c 2,45,-1
 46 83 l 1,46,-1
 46 0 l 1,47,-1
 383 0 l 1,48,-1
 383 83 l 1,49,-1
 367 83 l 2,50,51
 353 83 353 83 340.5 83.5 c 128,-1,52
 328 84 328 84 318.5 85.5 c 128,-1,53
 309 87 309 87 303.5 88.5 c 128,-1,54
 298 90 298 90 298 93 c 2,10,-1
EndSplineSet
EndChar

StartChar: Rcaron
Encoding: 344 344 152
Width: 809
GlyphClass: 1
Flags: W
LayerCount: 2
Fore
SplineSet
330 792 m 1,0,-1
 449 792 l 1,1,-1
 594 957 l 1,2,-1
 594 995 l 1,3,-1
 533 995 l 1,4,-1
 356 884 l 1,5,-1
 432 886 l 1,6,-1
 252 995 l 1,7,-1
 185 995 l 1,8,-1
 185 957 l 1,9,-1
 330 792 l 1,0,-1
395 320 m 1,10,-1
 554 0 l 1,11,-1
 777 0 l 1,12,-1
 777 83 l 1,13,-1
 767 83 l 2,14,15
 749 83 749 83 733.5 87.5 c 128,-1,16
 718 92 718 92 704.5 105.5 c 128,-1,17
 691 119 691 119 676 144 c 2,18,-1
 550 373 l 1,19,-1
 395 320 l 1,10,-1
298 93 m 2,20,-1
 298 631 l 1,21,-1
 422 631 l 2,22,23
 458 631 458 631 480.5 617.5 c 128,-1,24
 503 604 503 604 513.5 576.5 c 128,-1,25
 524 549 524 549 524 507 c 0,26,27
 524 464 524 464 512.5 432 c 128,-1,28
 501 400 501 400 477.5 383 c 128,-1,29
 454 366 454 366 416 366 c 2,30,-1
 271 366 l 1,31,-1
 271 289 l 1,32,-1
 478 289 l 1,33,34
 483 293 483 293 485.5 298 c 128,-1,35
 488 303 488 303 491.5 308.5 c 128,-1,36
 495 314 495 314 502 322 c 1,37,38
 567 334 567 334 613 360.5 c 128,-1,39
 659 387 659 387 683.5 427 c 128,-1,40
 708 467 708 467 708 520 c 0,41,42
 708 585 708 585 678 627 c 128,-1,43
 648 669 648 669 591 689.5 c 128,-1,44
 534 710 534 710 451 710 c 2,45,-1
 46 710 l 1,46,-1
 46 627 l 1,47,-1
 57 627 l 2,48,49
 84 627 84 627 102 620 c 128,-1,50
 120 613 120 613 120 591 c 2,51,-1
 120 119 l 2,52,53
 120 97 120 97 102 90 c 128,-1,54
 84 83 84 83 57 83 c 2,55,-1
 46 83 l 1,56,-1
 46 0 l 1,57,-1
 383 0 l 1,58,-1
 383 83 l 1,59,-1
 367 83 l 2,60,61
 353 83 353 83 340.5 83.5 c 128,-1,62
 328 84 328 84 318.5 85.5 c 128,-1,63
 309 87 309 87 303.5 88.5 c 128,-1,64
 298 90 298 90 298 93 c 2,20,-1
EndSplineSet
EndChar

StartChar: Rdblgrave
Encoding: 528 528 153
Width: 809
GlyphClass: 1
Flags: W
LayerCount: 2
Fore
SplineSet
521 925 m 2,0,-1
 565 821 l 1,1,-1
 565 785 l 1,2,-1
 518 785 l 1,3,-1
 430 839 l 2,4,5
 398 859 398 859 375.5 881 c 128,-1,6
 353 903 353 903 353 937 c 0,7,8
 353 966 353 966 372.5 984.5 c 128,-1,9
 392 1003 392 1003 427 1003 c 0,10,11
 452 1003 452 1003 470 993 c 128,-1,12
 488 983 488 983 500.5 965.5 c 128,-1,13
 513 948 513 948 521 925 c 2,0,-1
290 925 m 2,14,-1
 332 821 l 1,15,-1
 332 785 l 1,16,-1
 285 785 l 1,17,-1
 198 839 l 2,18,19
 165 859 165 859 143 881 c 128,-1,20
 121 903 121 903 121 937 c 0,21,22
 121 966 121 966 140 984.5 c 128,-1,23
 159 1003 159 1003 194 1003 c 0,24,25
 219 1003 219 1003 237 993 c 128,-1,26
 255 983 255 983 268.5 965.5 c 128,-1,27
 282 948 282 948 290 925 c 2,14,-1
395 320 m 1,28,-1
 554 0 l 1,29,-1
 777 0 l 1,30,-1
 777 83 l 1,31,-1
 767 83 l 2,32,33
 749 83 749 83 733.5 87.5 c 128,-1,34
 718 92 718 92 704.5 105.5 c 128,-1,35
 691 119 691 119 676 144 c 2,36,-1
 550 373 l 1,37,-1
 395 320 l 1,28,-1
298 93 m 2,38,-1
 298 631 l 1,39,-1
 422 631 l 2,40,41
 458 631 458 631 480.5 617.5 c 128,-1,42
 503 604 503 604 513.5 576.5 c 128,-1,43
 524 549 524 549 524 507 c 0,44,45
 524 464 524 464 512.5 432 c 128,-1,46
 501 400 501 400 477.5 383 c 128,-1,47
 454 366 454 366 416 366 c 2,48,-1
 271 366 l 1,49,-1
 271 289 l 1,50,-1
 478 289 l 1,51,52
 483 293 483 293 485.5 298 c 128,-1,53
 488 303 488 303 491.5 308.5 c 128,-1,54
 495 314 495 314 502 322 c 1,55,56
 567 334 567 334 613 360.5 c 128,-1,57
 659 387 659 387 683.5 427 c 128,-1,58
 708 467 708 467 708 520 c 0,59,60
 708 585 708 585 678 627 c 128,-1,61
 648 669 648 669 591 689.5 c 128,-1,62
 534 710 534 710 451 710 c 2,63,-1
 46 710 l 1,64,-1
 46 627 l 1,65,-1
 57 627 l 2,66,67
 84 627 84 627 102 620 c 128,-1,68
 120 613 120 613 120 591 c 2,69,-1
 120 119 l 2,70,71
 120 97 120 97 102 90 c 128,-1,72
 84 83 84 83 57 83 c 2,73,-1
 46 83 l 1,74,-1
 46 0 l 1,75,-1
 383 0 l 1,76,-1
 383 83 l 1,77,-1
 367 83 l 2,78,79
 353 83 353 83 340.5 83.5 c 128,-1,80
 328 84 328 84 318.5 85.5 c 128,-1,81
 309 87 309 87 303.5 88.5 c 128,-1,82
 298 90 298 90 298 93 c 2,38,-1
EndSplineSet
EndChar

StartChar: Rinvertedbreve
Encoding: 530 530 154
Width: 809
GlyphClass: 1
Flags: W
LayerCount: 2
Fore
SplineSet
394 968 m 256,0,1
 325 968 325 968 280.5 947.5 c 128,-1,2
 236 927 236 927 215 883.5 c 128,-1,3
 194 840 194 840 193 769 c 1,4,-1
 282 769 l 1,5,6
 284 802 284 802 293 820 c 128,-1,7
 302 838 302 838 325 845 c 128,-1,8
 348 852 348 852 392 852 c 0,9,10
 435 852 435 852 458 845 c 128,-1,11
 481 838 481 838 490.5 820 c 128,-1,12
 500 802 500 802 501 769 c 1,13,-1
 594 769 l 1,14,15
 595 840 595 840 573 883.5 c 128,-1,16
 551 927 551 927 507 947.5 c 128,-1,17
 463 968 463 968 394 968 c 256,0,1
395 320 m 1,18,-1
 554 0 l 1,19,-1
 777 0 l 1,20,-1
 777 83 l 1,21,-1
 767 83 l 2,22,23
 749 83 749 83 733.5 87.5 c 128,-1,24
 718 92 718 92 704.5 105.5 c 128,-1,25
 691 119 691 119 676 144 c 2,26,-1
 550 373 l 1,27,-1
 395 320 l 1,18,-1
298 93 m 2,28,-1
 298 631 l 1,29,-1
 422 631 l 2,30,31
 458 631 458 631 480.5 617.5 c 128,-1,32
 503 604 503 604 513.5 576.5 c 128,-1,33
 524 549 524 549 524 507 c 0,34,35
 524 464 524 464 512.5 432 c 128,-1,36
 501 400 501 400 477.5 383 c 128,-1,37
 454 366 454 366 416 366 c 2,38,-1
 271 366 l 1,39,-1
 271 289 l 1,40,-1
 478 289 l 1,41,42
 483 293 483 293 485.5 298 c 128,-1,43
 488 303 488 303 491.5 308.5 c 128,-1,44
 495 314 495 314 502 322 c 1,45,46
 567 334 567 334 613 360.5 c 128,-1,47
 659 387 659 387 683.5 427 c 128,-1,48
 708 467 708 467 708 520 c 0,49,50
 708 585 708 585 678 627 c 128,-1,51
 648 669 648 669 591 689.5 c 128,-1,52
 534 710 534 710 451 710 c 2,53,-1
 46 710 l 1,54,-1
 46 627 l 1,55,-1
 57 627 l 2,56,57
 84 627 84 627 102 620 c 128,-1,58
 120 613 120 613 120 591 c 2,59,-1
 120 119 l 2,60,61
 120 97 120 97 102 90 c 128,-1,62
 84 83 84 83 57 83 c 2,63,-1
 46 83 l 1,64,-1
 46 0 l 1,65,-1
 383 0 l 1,66,-1
 383 83 l 1,67,-1
 367 83 l 2,68,69
 353 83 353 83 340.5 83.5 c 128,-1,70
 328 84 328 84 318.5 85.5 c 128,-1,71
 309 87 309 87 303.5 88.5 c 128,-1,72
 298 90 298 90 298 93 c 2,28,-1
EndSplineSet
EndChar

StartChar: S
Encoding: 83 83 157
Width: 693
GlyphClass: 2
Flags: W
AnchorPoint: "Anchor-1" 381 0 basechar 0
AnchorPoint: "Anchor-0" 381 741 basechar 0
LayerCount: 2
Fore
SplineSet
369 55 m 0,0,1
 417 55 417 55 445.5 64.5 c 128,-1,2
 474 74 474 74 486.5 95.5 c 128,-1,3
 499 117 499 117 499 154 c 0,4,5
 499 186 499 186 485 207 c 128,-1,6
 471 228 471 228 444.5 241.5 c 128,-1,7
 418 255 418 255 381 265.5 c 128,-1,8
 344 276 344 276 298 286 c 0,9,10
 250 297 250 297 208 312 c 128,-1,11
 166 327 166 327 134.5 351.5 c 128,-1,12
 103 376 103 376 85.5 415.5 c 128,-1,13
 68 455 68 455 68 517 c 0,14,15
 68 591 68 591 97 639.5 c 128,-1,16
 126 688 126 688 182.5 711.5 c 128,-1,17
 239 735 239 735 323 735 c 0,18,19
 397 735 397 735 441.5 713.5 c 128,-1,20
 486 692 486 692 509.5 647 c 128,-1,21
 533 602 533 602 540 533 c 1,22,-1
 516 594 l 1,23,-1
 533 720 l 1,24,-1
 613 720 l 1,25,-1
 613 502 l 1,26,-1
 521 502 l 1,27,28
 510 552 510 552 484.5 586 c 128,-1,29
 459 620 459 620 421 638 c 128,-1,30
 383 656 383 656 333 656 c 0,31,32
 289 656 289 656 263.5 646 c 128,-1,33
 238 636 238 636 227.5 615.5 c 128,-1,34
 217 595 217 595 217 564 c 256,35,36
 217 533 217 533 229 514 c 128,-1,37
 241 495 241 495 264 483 c 128,-1,38
 287 471 287 471 322 462.5 c 128,-1,39
 357 454 357 454 402 444 c 0,40,41
 451 434 451 434 496 420 c 128,-1,42
 541 406 541 406 576 381.5 c 128,-1,43
 611 357 611 357 631.5 317 c 128,-1,44
 652 277 652 277 652 215 c 0,45,46
 652 132 652 132 621 79 c 128,-1,47
 590 26 590 26 529.5 0.5 c 128,-1,48
 469 -25 469 -25 381 -25 c 0,49,50
 305 -25 305 -25 251 -5 c 128,-1,51
 197 15 197 15 167 64 c 128,-1,52
 137 113 137 113 131 198 c 1,53,-1
 152 142 l 1,54,-1
 134 -4 l 1,55,-1
 52 -4 l 1,56,-1
 52 236 l 1,57,-1
 151 236 l 1,58,59
 167 170 167 170 197.5 130 c 128,-1,60
 228 90 228 90 271 72.5 c 128,-1,61
 314 55 314 55 369 55 c 0,0,1
EndSplineSet
EndChar

StartChar: Scaron
Encoding: 352 352 161
Width: 693
GlyphClass: 1
Flags: W
LayerCount: 2
Fore
SplineSet
289 792 m 1,0,-1
 409 792 l 1,1,-1
 553 957 l 1,2,-1
 553 995 l 1,3,-1
 492 995 l 1,4,-1
 315 884 l 1,5,-1
 392 886 l 1,6,-1
 211 995 l 1,7,-1
 145 995 l 1,8,-1
 145 957 l 1,9,-1
 289 792 l 1,0,-1
369 55 m 0,10,11
 417 55 417 55 445.5 64.5 c 128,-1,12
 474 74 474 74 486.5 95.5 c 128,-1,13
 499 117 499 117 499 154 c 0,14,15
 499 186 499 186 485 207 c 128,-1,16
 471 228 471 228 444.5 241.5 c 128,-1,17
 418 255 418 255 381 265.5 c 128,-1,18
 344 276 344 276 298 286 c 0,19,20
 250 297 250 297 208 312 c 128,-1,21
 166 327 166 327 134.5 351.5 c 128,-1,22
 103 376 103 376 85.5 415.5 c 128,-1,23
 68 455 68 455 68 517 c 0,24,25
 68 591 68 591 97 639.5 c 128,-1,26
 126 688 126 688 182.5 711.5 c 128,-1,27
 239 735 239 735 323 735 c 0,28,29
 397 735 397 735 441.5 713.5 c 128,-1,30
 486 692 486 692 509.5 647 c 128,-1,31
 533 602 533 602 540 533 c 1,32,-1
 516 594 l 1,33,-1
 533 720 l 1,34,-1
 613 720 l 1,35,-1
 613 502 l 1,36,-1
 521 502 l 1,37,38
 510 552 510 552 484.5 586 c 128,-1,39
 459 620 459 620 421 638 c 128,-1,40
 383 656 383 656 333 656 c 0,41,42
 289 656 289 656 263.5 646 c 128,-1,43
 238 636 238 636 227.5 615.5 c 128,-1,44
 217 595 217 595 217 564 c 256,45,46
 217 533 217 533 229 514 c 128,-1,47
 241 495 241 495 264 483 c 128,-1,48
 287 471 287 471 322 462.5 c 128,-1,49
 357 454 357 454 402 444 c 0,50,51
 451 434 451 434 496 420 c 128,-1,52
 541 406 541 406 576 381.5 c 128,-1,53
 611 357 611 357 631.5 317 c 128,-1,54
 652 277 652 277 652 215 c 0,55,56
 652 132 652 132 621 79 c 128,-1,57
 590 26 590 26 529.5 0.5 c 128,-1,58
 469 -25 469 -25 381 -25 c 0,59,60
 305 -25 305 -25 251 -5 c 128,-1,61
 197 15 197 15 167 64 c 128,-1,62
 137 113 137 113 131 198 c 1,63,-1
 152 142 l 1,64,-1
 134 -4 l 1,65,-1
 52 -4 l 1,66,-1
 52 236 l 1,67,-1
 151 236 l 1,68,69
 167 170 167 170 197.5 130 c 128,-1,70
 228 90 228 90 271 72.5 c 128,-1,71
 314 55 314 55 369 55 c 0,10,11
EndSplineSet
EndChar

StartChar: Scarondotaccent
Encoding: 7782 7782 166
Width: 693
GlyphClass: 1
Flags: W
LayerCount: 2
Fore
SplineSet
288 792 m 1,0,-1
 407 792 l 1,1,-1
 552 957 l 1,2,-1
 552 995 l 1,3,-1
 491 995 l 1,4,-1
 314 884 l 1,5,-1
 390 886 l 1,6,-1
 210 995 l 1,7,-1
 143 995 l 1,8,-1
 143 957 l 1,9,-1
 288 792 l 1,0,-1
369 55 m 0,10,11
 417 55 417 55 445.5 64.5 c 128,-1,12
 474 74 474 74 486.5 95.5 c 128,-1,13
 499 117 499 117 499 154 c 0,14,15
 499 186 499 186 485 207 c 128,-1,16
 471 228 471 228 444.5 241.5 c 128,-1,17
 418 255 418 255 381 265.5 c 128,-1,18
 344 276 344 276 298 286 c 0,19,20
 250 297 250 297 208 312 c 128,-1,21
 166 327 166 327 134.5 351.5 c 128,-1,22
 103 376 103 376 85.5 415.5 c 128,-1,23
 68 455 68 455 68 517 c 0,24,25
 68 591 68 591 97 639.5 c 128,-1,26
 126 688 126 688 182.5 711.5 c 128,-1,27
 239 735 239 735 323 735 c 0,28,29
 397 735 397 735 441.5 713.5 c 128,-1,30
 486 692 486 692 509.5 647 c 128,-1,31
 533 602 533 602 540 533 c 1,32,-1
 516 594 l 1,33,-1
 533 720 l 1,34,-1
 613 720 l 1,35,-1
 613 502 l 1,36,-1
 521 502 l 1,37,38
 510 552 510 552 484.5 586 c 128,-1,39
 459 620 459 620 421 638 c 128,-1,40
 383 656 383 656 333 656 c 0,41,42
 289 656 289 656 263.5 646 c 128,-1,43
 238 636 238 636 227.5 615.5 c 128,-1,44
 217 595 217 595 217 564 c 256,45,46
 217 533 217 533 229 514 c 128,-1,47
 241 495 241 495 264 483 c 128,-1,48
 287 471 287 471 322 462.5 c 128,-1,49
 357 454 357 454 402 444 c 0,50,51
 451 434 451 434 496 420 c 128,-1,52
 541 406 541 406 576 381.5 c 128,-1,53
 611 357 611 357 631.5 317 c 128,-1,54
 652 277 652 277 652 215 c 0,55,56
 652 132 652 132 621 79 c 128,-1,57
 590 26 590 26 529.5 0.5 c 128,-1,58
 469 -25 469 -25 381 -25 c 0,59,60
 305 -25 305 -25 251 -5 c 128,-1,61
 197 15 197 15 167 64 c 128,-1,62
 137 113 137 113 131 198 c 1,63,-1
 152 142 l 1,64,-1
 134 -4 l 1,65,-1
 52 -4 l 1,66,-1
 52 236 l 1,67,-1
 151 236 l 1,68,69
 167 170 167 170 197.5 130 c 128,-1,70
 228 90 228 90 271 72.5 c 128,-1,71
 314 55 314 55 369 55 c 0,10,11
347 1009 m 256,72,73
 300 1009 300 1009 273 1030.5 c 128,-1,74
 246 1052 246 1052 246 1097 c 256,75,76
 246 1142 246 1142 273 1164 c 128,-1,77
 300 1186 300 1186 347 1186 c 256,78,79
 394 1186 394 1186 421 1164 c 128,-1,80
 448 1142 448 1142 448 1097 c 256,81,82
 448 1052 448 1052 421 1030.5 c 128,-1,83
 394 1009 394 1009 347 1009 c 256,72,73
EndSplineSet
EndChar

StartChar: T
Encoding: 84 84 168
Width: 769
GlyphClass: 2
Flags: W
AnchorPoint: "Anchor-1" 390 0 basechar 0
AnchorPoint: "Anchor-0" 390 741 basechar 0
LayerCount: 2
Fore
SplineSet
295 119 m 2,0,-1
 295 626 l 1,1,-1
 263 626 l 2,2,3
 220 626 220 626 195.5 620.5 c 128,-1,4
 171 615 171 615 160.5 603 c 128,-1,5
 150 591 150 591 148 573 c 2,6,-1
 136 430 l 1,7,-1
 44 430 l 1,8,-1
 44 710 l 1,9,-1
 725 710 l 1,10,-1
 725 430 l 1,11,-1
 633 430 l 1,12,-1
 621 573 l 2,13,14
 620 591 620 591 609 603 c 128,-1,15
 598 615 598 615 573.5 620.5 c 128,-1,16
 549 626 549 626 506 626 c 2,17,-1
 474 626 l 1,18,-1
 474 119 l 2,19,20
 474 97 474 97 494 90 c 128,-1,21
 514 83 514 83 541 83 c 2,22,-1
 561 83 l 1,23,-1
 561 0 l 1,24,-1
 208 0 l 1,25,-1
 208 83 l 1,26,-1
 227 83 l 2,27,28
 255 83 255 83 275 90 c 128,-1,29
 295 97 295 97 295 119 c 2,0,-1
EndSplineSet
EndChar

StartChar: Tcaron
Encoding: 356 356 170
Width: 769
GlyphClass: 1
Flags: W
LayerCount: 2
Fore
SplineSet
319 792 m 1,0,-1
 439 792 l 1,1,-1
 583 957 l 1,2,-1
 583 995 l 1,3,-1
 522 995 l 1,4,-1
 345 884 l 1,5,-1
 422 886 l 1,6,-1
 242 995 l 1,7,-1
 175 995 l 1,8,-1
 175 957 l 1,9,-1
 319 792 l 1,0,-1
295 119 m 2,10,-1
 295 626 l 1,11,-1
 263 626 l 2,12,13
 220 626 220 626 195.5 620.5 c 128,-1,14
 171 615 171 615 160.5 603 c 128,-1,15
 150 591 150 591 148 573 c 2,16,-1
 136 430 l 1,17,-1
 44 430 l 1,18,-1
 44 710 l 1,19,-1
 725 710 l 1,20,-1
 725 430 l 1,21,-1
 633 430 l 1,22,-1
 621 573 l 2,23,24
 620 591 620 591 609 603 c 128,-1,25
 598 615 598 615 573.5 620.5 c 128,-1,26
 549 626 549 626 506 626 c 2,27,-1
 474 626 l 1,28,-1
 474 119 l 2,29,30
 474 97 474 97 494 90 c 128,-1,31
 514 83 514 83 541 83 c 2,32,-1
 561 83 l 1,33,-1
 561 0 l 1,34,-1
 208 0 l 1,35,-1
 208 83 l 1,36,-1
 227 83 l 2,37,38
 255 83 255 83 275 90 c 128,-1,39
 295 97 295 97 295 119 c 2,10,-1
EndSplineSet
EndChar

StartChar: U
Encoding: 85 85 174
Width: 800
GlyphClass: 2
Flags: W
AnchorPoint: "Anchor-2" 459 0 basechar 0
AnchorPoint: "Anchor-1" 405 0 basechar 0
AnchorPoint: "Anchor-0" 405 741 basechar 0
LayerCount: 2
Fore
SplineSet
292 261 m 2,0,1
 292 208 292 208 302.5 172 c 128,-1,2
 313 136 313 136 333 114 c 128,-1,3
 353 92 353 92 381.5 82 c 128,-1,4
 410 72 410 72 447 72 c 0,5,6
 481 72 481 72 510 82.5 c 128,-1,7
 539 93 539 93 559.5 115.5 c 128,-1,8
 580 138 580 138 591 174 c 128,-1,9
 602 210 602 210 602 261 c 2,10,-1
 602 609 l 2,11,12
 602 614 602 614 596 617.5 c 128,-1,13
 590 621 590 621 580 622.5 c 128,-1,14
 570 624 570 624 558 625.5 c 128,-1,15
 546 627 546 627 534 627 c 2,16,-1
 522 627 l 1,17,-1
 522 710 l 1,18,-1
 760 710 l 1,19,-1
 760 627 l 1,20,-1
 750 627 l 2,21,22
 732 627 732 627 717.5 624 c 128,-1,23
 703 621 703 621 694.5 612.5 c 128,-1,24
 686 604 686 604 686 588 c 2,25,-1
 686 262 l 2,26,27
 686 185 686 185 665 130.5 c 128,-1,28
 644 76 644 76 606 41.5 c 128,-1,29
 568 7 568 7 517.5 -9 c 128,-1,30
 467 -25 467 -25 408 -25 c 0,31,32
 343 -25 343 -25 288.5 -8.5 c 128,-1,33
 234 8 234 8 195 42.5 c 128,-1,34
 156 77 156 77 135 131.5 c 128,-1,35
 114 186 114 186 114 261 c 2,36,-1
 114 591 l 2,37,38
 114 613 114 613 96 620 c 128,-1,39
 78 627 78 627 50 627 c 2,40,-1
 39 627 l 1,41,-1
 39 710 l 1,42,-1
 368 710 l 1,43,-1
 368 627 l 1,44,-1
 356 627 l 2,45,46
 346 627 346 627 334.5 626.5 c 128,-1,47
 323 626 323 626 313.5 624.5 c 128,-1,48
 304 623 304 623 298 621.5 c 128,-1,49
 292 620 292 620 292 617 c 2,50,-1
 292 261 l 2,0,1
EndSplineSet
EndChar

StartChar: Uogonek
Encoding: 370 370 184
Width: 800
GlyphClass: 1
Flags: W
LayerCount: 2
Fore
SplineSet
553 38 m 1,0,-1
 539 -1 l 1,1,2
 510 -13 510 -13 477 -19 c 128,-1,3
 444 -25 444 -25 408 -25 c 0,4,5
 343 -25 343 -25 288.5 -8.5 c 128,-1,6
 234 8 234 8 195 42.5 c 128,-1,7
 156 77 156 77 135 131.5 c 128,-1,8
 114 186 114 186 114 261 c 2,9,-1
 114 591 l 2,10,11
 114 613 114 613 96 620 c 128,-1,12
 78 627 78 627 50 627 c 2,13,-1
 39 627 l 1,14,-1
 39 710 l 1,15,-1
 368 710 l 1,16,-1
 368 627 l 1,17,-1
 356 627 l 2,18,19
 346 627 346 627 334.5 626.5 c 128,-1,20
 323 626 323 626 313.5 624.5 c 128,-1,21
 304 623 304 623 298 621.5 c 128,-1,22
 292 620 292 620 292 617 c 2,23,-1
 292 261 l 2,24,25
 292 208 292 208 302.5 172 c 128,-1,26
 313 136 313 136 333 114 c 128,-1,27
 353 92 353 92 381.5 82 c 128,-1,28
 410 72 410 72 447 72 c 0,29,30
 481 72 481 72 510 82.5 c 128,-1,31
 539 93 539 93 559.5 115.5 c 128,-1,32
 580 138 580 138 591 174 c 128,-1,33
 602 210 602 210 602 261 c 2,34,-1
 602 609 l 2,35,36
 602 614 602 614 596 617.5 c 128,-1,37
 590 621 590 621 580 623 c 128,-1,38
 570 625 570 625 558 626 c 128,-1,39
 546 627 546 627 534 627 c 2,40,-1
 522 627 l 1,41,-1
 522 710 l 1,42,-1
 760 710 l 1,43,-1
 760 627 l 1,44,-1
 750 627 l 2,45,46
 732 627 732 627 717.5 624 c 128,-1,47
 703 621 703 621 695 612.5 c 128,-1,48
 687 604 687 604 687 588 c 2,49,-1
 687 261 l 2,50,51
 687 212 687 212 678 172 c 128,-1,52
 669 132 669 132 651.5 100.5 c 128,-1,53
 634 69 634 69 609 44 c 0,54,55
 585 21 585 21 556.5 0.5 c 128,-1,56
 528 -20 528 -20 502 -41.5 c 128,-1,57
 476 -63 476 -63 459 -85 c 128,-1,58
 442 -107 442 -107 442 -134 c 0,59,60
 442 -157 442 -157 455.5 -169 c 128,-1,61
 469 -181 469 -181 495 -181 c 0,62,63
 524 -181 524 -181 544 -166 c 128,-1,64
 564 -151 564 -151 578 -137 c 1,65,-1
 620 -183 l 1,66,67
 591 -214 591 -214 552 -233 c 128,-1,68
 513 -252 513 -252 444 -252 c 0,69,70
 398 -252 398 -252 362.5 -242 c 128,-1,71
 327 -232 327 -232 307.5 -210.5 c 128,-1,72
 288 -189 288 -189 288 -155 c 0,73,74
 288 -128 288 -128 301 -108 c 128,-1,75
 314 -88 314 -88 344 -68.5 c 128,-1,76
 374 -49 374 -49 425 -24 c 128,-1,77
 476 1 476 1 553 38 c 1,0,-1
EndSplineSet
EndChar

StartChar: Uhorn
Encoding: 431 431 185
Width: 948
GlyphClass: 2
Flags: W
AnchorPoint: "Anchor-1" 478 -35 basechar 0
AnchorPoint: "Anchor-0" 478 663 basechar 0
LayerCount: 2
Fore
SplineSet
114 261 m 2,0,-1
 114 591 l 2,1,2
 114 613 114 613 96 620 c 128,-1,3
 78 627 78 627 50 627 c 2,4,-1
 39 627 l 1,5,-1
 39 710 l 1,6,-1
 368 710 l 1,7,-1
 368 627 l 1,8,-1
 356 627 l 2,9,10
 346 627 346 627 334.5 626.5 c 128,-1,11
 323 626 323 626 313.5 624.5 c 128,-1,12
 304 623 304 623 298 621.5 c 128,-1,13
 292 620 292 620 292 617 c 2,14,-1
 292 261 l 2,15,16
 292 208 292 208 302.5 172 c 128,-1,17
 313 136 313 136 333 114 c 128,-1,18
 353 92 353 92 381 82 c 128,-1,19
 409 72 409 72 447 72 c 0,20,21
 493 72 493 72 528 91 c 128,-1,22
 563 110 563 110 582.5 151.5 c 128,-1,23
 602 193 602 193 602 261 c 2,24,-1
 602 609 l 2,25,26
 602 614 602 614 596 617.5 c 128,-1,27
 590 621 590 621 580 623 c 128,-1,28
 570 625 570 625 558 626 c 128,-1,29
 546 627 546 627 534 627 c 2,30,-1
 522 627 l 1,31,-1
 522 710 l 1,32,-1
 677 710 l 2,33,34
 726 710 726 710 755 718.5 c 128,-1,35
 784 727 784 727 799.5 747.5 c 128,-1,36
 815 768 815 768 821 803.5 c 128,-1,37
 827 839 827 839 830 893 c 1,38,-1
 965 893 l 1,39,40
 964 830 964 830 953 786.5 c 128,-1,41
 942 743 942 743 922.5 714 c 128,-1,42
 903 685 903 685 876.5 667.5 c 128,-1,43
 850 650 850 650 818 641.5 c 128,-1,44
 786 633 786 633 749 629 c 0,45,46
 731 628 731 628 717 624 c 128,-1,47
 703 620 703 620 695 612 c 128,-1,48
 687 604 687 604 687 588 c 2,49,-1
 687 261 l 2,50,51
 687 185 687 185 666 130.5 c 128,-1,52
 645 76 645 76 606.5 41.5 c 128,-1,53
 568 7 568 7 517.5 -9 c 128,-1,54
 467 -25 467 -25 408 -25 c 0,55,56
 343 -25 343 -25 288.5 -8.5 c 128,-1,57
 234 8 234 8 195 42.5 c 128,-1,58
 156 77 156 77 135 131.5 c 128,-1,59
 114 186 114 186 114 261 c 2,0,-1
EndSplineSet
EndChar

StartChar: Ucaron
Encoding: 467 467 186
Width: 800
GlyphClass: 1
Flags: W
LayerCount: 2
Fore
SplineSet
381 792 m 1,0,-1
 500 792 l 1,1,-1
 645 957 l 1,2,-1
 645 995 l 1,3,-1
 584 995 l 1,4,-1
 407 884 l 1,5,-1
 483 886 l 1,6,-1
 303 995 l 1,7,-1
 236 995 l 1,8,-1
 236 957 l 1,9,-1
 381 792 l 1,0,-1
292 261 m 2,10,11
 292 208 292 208 302.5 172 c 128,-1,12
 313 136 313 136 333 114 c 128,-1,13
 353 92 353 92 381.5 82 c 128,-1,14
 410 72 410 72 447 72 c 0,15,16
 481 72 481 72 510 82.5 c 128,-1,17
 539 93 539 93 559.5 115.5 c 128,-1,18
 580 138 580 138 591 174 c 128,-1,19
 602 210 602 210 602 261 c 2,20,-1
 602 609 l 2,21,22
 602 614 602 614 596 617.5 c 128,-1,23
 590 621 590 621 580 623 c 128,-1,24
 570 625 570 625 558 626 c 128,-1,25
 546 627 546 627 534 627 c 2,26,-1
 522 627 l 1,27,-1
 522 710 l 1,28,-1
 760 710 l 1,29,-1
 760 627 l 1,30,-1
 750 627 l 2,31,32
 732 627 732 627 717.5 624 c 128,-1,33
 703 621 703 621 694.5 612.5 c 128,-1,34
 686 604 686 604 686 588 c 2,35,-1
 686 262 l 2,36,37
 686 185 686 185 665 130.5 c 128,-1,38
 644 76 644 76 606 41.5 c 128,-1,39
 568 7 568 7 517.5 -9 c 128,-1,40
 467 -25 467 -25 408 -25 c 0,41,42
 343 -25 343 -25 288.5 -8.5 c 128,-1,43
 234 8 234 8 195 42.5 c 128,-1,44
 156 77 156 77 135 131.5 c 128,-1,45
 114 186 114 186 114 261 c 2,46,-1
 114 591 l 2,47,48
 114 613 114 613 96 620 c 128,-1,49
 78 627 78 627 50 627 c 2,50,-1
 39 627 l 1,51,-1
 39 710 l 1,52,-1
 368 710 l 1,53,-1
 368 627 l 1,54,-1
 356 627 l 2,55,56
 346 627 346 627 334.5 626.5 c 128,-1,57
 323 626 323 626 313.5 624.5 c 128,-1,58
 304 623 304 623 298 621.5 c 128,-1,59
 292 620 292 620 292 617 c 2,60,-1
 292 261 l 2,10,11
EndSplineSet
EndChar

StartChar: Udieresiscaron
Encoding: 473 473 187
Width: 834
GlyphClass: 1
Flags: W
LayerCount: 2
Fore
SplineSet
370 1016 m 1,0,-1
 490 1016 l 1,1,-1
 635 1181 l 1,2,-1
 635 1219 l 1,3,-1
 574 1219 l 1,4,-1
 397 1108 l 1,5,-1
 473 1110 l 1,6,-1
 293 1219 l 1,7,-1
 226 1219 l 1,8,-1
 226 1181 l 1,9,-1
 370 1016 l 1,0,-1
292 261 m 2,10,11
 292 209 292 209 302.5 172.5 c 128,-1,12
 313 136 313 136 333 114 c 128,-1,13
 353 92 353 92 381.5 82 c 128,-1,14
 410 72 410 72 447 72 c 0,15,16
 481 72 481 72 510 82.5 c 128,-1,17
 539 93 539 93 559.5 115.5 c 128,-1,18
 580 138 580 138 591 174 c 128,-1,19
 602 210 602 210 602 261 c 2,20,-1
 602 609 l 2,21,22
 602 614 602 614 596 617.5 c 128,-1,23
 590 621 590 621 580 622.5 c 128,-1,24
 570 624 570 624 558 625.5 c 128,-1,25
 546 627 546 627 534 627 c 2,26,-1
 522 627 l 1,27,-1
 522 710 l 1,28,-1
 760 710 l 1,29,-1
 760 627 l 1,30,-1
 750 627 l 2,31,32
 732 627 732 627 717.5 624 c 128,-1,33
 703 621 703 621 694.5 612.5 c 128,-1,34
 686 604 686 604 686 588 c 2,35,-1
 686 262 l 2,36,37
 686 185 686 185 665 130.5 c 128,-1,38
 644 76 644 76 606 41.5 c 128,-1,39
 568 7 568 7 517.5 -9 c 128,-1,40
 467 -25 467 -25 408 -25 c 0,41,42
 343 -25 343 -25 288.5 -8.5 c 128,-1,43
 234 8 234 8 195 42.5 c 128,-1,44
 156 77 156 77 135 131.5 c 128,-1,45
 114 186 114 186 114 261 c 2,46,-1
 114 591 l 2,47,48
 114 613 114 613 96 620 c 128,-1,49
 78 627 78 627 50 627 c 2,50,-1
 39 627 l 1,51,-1
 39 710 l 1,52,-1
 368 710 l 1,53,-1
 368 627 l 1,54,-1
 356 627 l 2,55,56
 346 627 346 627 334.5 626.5 c 128,-1,57
 323 626 323 626 313.5 624.5 c 128,-1,58
 304 623 304 623 298 621.5 c 128,-1,59
 292 620 292 620 292 617 c 2,60,-1
 292 261 l 2,10,11
386 894 m 0,61,62
 386 850 386 850 359 828 c 128,-1,63
 332 806 332 806 284 806 c 0,64,65
 238 806 238 806 210.5 827.5 c 128,-1,66
 183 849 183 849 183 894 c 0,67,68
 183 940 183 940 210.5 961.5 c 128,-1,69
 238 983 238 983 284 983 c 0,70,71
 332 983 332 983 359 961.5 c 128,-1,72
 386 940 386 940 386 894 c 0,61,62
675 894 m 0,73,74
 675 850 675 850 648 828 c 128,-1,75
 621 806 621 806 573 806 c 0,76,77
 527 806 527 806 500 827.5 c 128,-1,78
 473 849 473 849 473 894 c 0,79,80
 473 940 473 940 500 961.5 c 128,-1,81
 527 983 527 983 573 983 c 0,82,83
 621 983 621 983 648 961.5 c 128,-1,84
 675 940 675 940 675 894 c 0,73,74
EndSplineSet
EndChar

StartChar: Udblgrave
Encoding: 532 532 188
Width: 800
GlyphClass: 1
Flags: W
LayerCount: 2
Fore
SplineSet
551 925 m 2,0,-1
 594 821 l 1,1,-1
 594 785 l 1,2,-1
 547 785 l 1,3,-1
 459 839 l 2,4,5
 427 859 427 859 404.5 881 c 128,-1,6
 382 903 382 903 382 937 c 0,7,8
 382 966 382 966 401.5 984.5 c 128,-1,9
 421 1003 421 1003 456 1003 c 0,10,11
 481 1003 481 1003 499 993 c 128,-1,12
 517 983 517 983 529.5 965.5 c 128,-1,13
 542 948 542 948 551 925 c 2,0,-1
319 925 m 2,14,-1
 361 821 l 1,15,-1
 361 785 l 1,16,-1
 314 785 l 1,17,-1
 227 839 l 2,18,19
 195 859 195 859 172.5 881 c 128,-1,20
 150 903 150 903 150 937 c 0,21,22
 150 966 150 966 169.5 984.5 c 128,-1,23
 189 1003 189 1003 224 1003 c 0,24,25
 248 1003 248 1003 266.5 993 c 128,-1,26
 285 983 285 983 298 965.5 c 128,-1,27
 311 948 311 948 319 925 c 2,14,-1
292 261 m 2,28,29
 292 208 292 208 302.5 172 c 128,-1,30
 313 136 313 136 333 114 c 128,-1,31
 353 92 353 92 381.5 82 c 128,-1,32
 410 72 410 72 447 72 c 0,33,34
 481 72 481 72 510 82.5 c 128,-1,35
 539 93 539 93 559.5 115.5 c 128,-1,36
 580 138 580 138 591 174 c 128,-1,37
 602 210 602 210 602 261 c 2,38,-1
 602 609 l 2,39,40
 602 614 602 614 596 617.5 c 128,-1,41
 590 621 590 621 580 623 c 128,-1,42
 570 625 570 625 558 626 c 128,-1,43
 546 627 546 627 534 627 c 2,44,-1
 522 627 l 1,45,-1
 522 710 l 1,46,-1
 760 710 l 1,47,-1
 760 627 l 1,48,-1
 750 627 l 2,49,50
 732 627 732 627 717.5 624 c 128,-1,51
 703 621 703 621 694.5 612.5 c 128,-1,52
 686 604 686 604 686 588 c 2,53,-1
 686 262 l 2,54,55
 686 185 686 185 665 130.5 c 128,-1,56
 644 76 644 76 606 41.5 c 128,-1,57
 568 7 568 7 517.5 -9 c 128,-1,58
 467 -25 467 -25 408 -25 c 0,59,60
 343 -25 343 -25 288.5 -8.5 c 128,-1,61
 234 8 234 8 195 42.5 c 128,-1,62
 156 77 156 77 135 131.5 c 128,-1,63
 114 186 114 186 114 261 c 2,64,-1
 114 591 l 2,65,66
 114 613 114 613 96 620 c 128,-1,67
 78 627 78 627 50 627 c 2,68,-1
 39 627 l 1,69,-1
 39 710 l 1,70,-1
 368 710 l 1,71,-1
 368 627 l 1,72,-1
 356 627 l 2,73,74
 346 627 346 627 334.5 626.5 c 128,-1,75
 323 626 323 626 313.5 624.5 c 128,-1,76
 304 623 304 623 298 621.5 c 128,-1,77
 292 620 292 620 292 617 c 2,78,-1
 292 261 l 2,28,29
EndSplineSet
EndChar

StartChar: Uinvertedbreve
Encoding: 534 534 189
Width: 800
GlyphClass: 1
Flags: W
LayerCount: 2
Fore
SplineSet
430 968 m 256,0,1
 361 968 361 968 316.5 947.5 c 128,-1,2
 272 927 272 927 251 883.5 c 128,-1,3
 230 840 230 840 229 769 c 1,4,-1
 318 769 l 1,5,6
 320 802 320 802 329 820 c 128,-1,7
 338 838 338 838 361 845 c 128,-1,8
 384 852 384 852 428 852 c 0,9,10
 471 852 471 852 494 845 c 128,-1,11
 517 838 517 838 526.5 820 c 128,-1,12
 536 802 536 802 537 769 c 1,13,-1
 630 769 l 1,14,15
 631 840 631 840 609 883.5 c 128,-1,16
 587 927 587 927 543 947.5 c 128,-1,17
 499 968 499 968 430 968 c 256,0,1
292 261 m 2,18,19
 292 208 292 208 302.5 172 c 128,-1,20
 313 136 313 136 333 114 c 128,-1,21
 353 92 353 92 381.5 82 c 128,-1,22
 410 72 410 72 447 72 c 0,23,24
 481 72 481 72 510 82.5 c 128,-1,25
 539 93 539 93 559.5 115.5 c 128,-1,26
 580 138 580 138 591 174 c 128,-1,27
 602 210 602 210 602 261 c 2,28,-1
 602 609 l 2,29,30
 602 614 602 614 596 617.5 c 128,-1,31
 590 621 590 621 580 623 c 128,-1,32
 570 625 570 625 558 626 c 128,-1,33
 546 627 546 627 534 627 c 2,34,-1
 522 627 l 1,35,-1
 522 710 l 1,36,-1
 760 710 l 1,37,-1
 760 627 l 1,38,-1
 750 627 l 2,39,40
 732 627 732 627 717.5 624 c 128,-1,41
 703 621 703 621 694.5 612.5 c 128,-1,42
 686 604 686 604 686 588 c 2,43,-1
 686 262 l 2,44,45
 686 185 686 185 665 130.5 c 128,-1,46
 644 76 644 76 606 41.5 c 128,-1,47
 568 7 568 7 517.5 -9 c 128,-1,48
 467 -25 467 -25 408 -25 c 0,49,50
 343 -25 343 -25 288.5 -8.5 c 128,-1,51
 234 8 234 8 195 42.5 c 128,-1,52
 156 77 156 77 135 131.5 c 128,-1,53
 114 186 114 186 114 261 c 2,54,-1
 114 591 l 2,55,56
 114 613 114 613 96 620 c 128,-1,57
 78 627 78 627 50 627 c 2,58,-1
 39 627 l 1,59,-1
 39 710 l 1,60,-1
 368 710 l 1,61,-1
 368 627 l 1,62,-1
 356 627 l 2,63,64
 346 627 346 627 334.5 626.5 c 128,-1,65
 323 626 323 626 313.5 624.5 c 128,-1,66
 304 623 304 623 298 621.5 c 128,-1,67
 292 620 292 620 292 617 c 2,68,-1
 292 261 l 2,18,19
EndSplineSet
EndChar

StartChar: V
Encoding: 86 86 199
Width: 769
GlyphClass: 2
Flags: W
AnchorPoint: "Anchor-0" 360 741 basechar 0
LayerCount: 2
Fore
SplineSet
442 56 m 1,0,-1
 422 60 l 1,1,-1
 592 604 l 2,2,3
 592 611 592 611 584.5 616 c 128,-1,4
 577 621 577 621 561 624 c 128,-1,5
 545 627 545 627 521 627 c 2,6,-1
 511 627 l 1,7,-1
 511 710 l 1,8,-1
 746 710 l 1,9,-1
 746 627 l 1,10,-1
 740 627 l 2,11,12
 715 627 715 627 697.5 614 c 128,-1,13
 680 601 680 601 668 563 c 2,14,-1
 488 -5 l 1,15,-1
 284 -5 l 1,16,-1
 103 563 l 2,17,18
 91 602 91 602 73 614.5 c 128,-1,19
 55 627 55 627 28 627 c 2,20,-1
 22 627 l 1,21,-1
 22 710 l 1,22,-1
 349 710 l 1,23,-1
 349 627 l 1,24,-1
 339 627 l 2,25,26
 315 627 315 627 299.5 625.5 c 128,-1,27
 284 624 284 624 276.5 622 c 128,-1,28
 269 620 269 620 269 616 c 2,29,-1
 442 56 l 1,0,-1
EndSplineSet
EndChar

StartChar: W
Encoding: 87 87 200
Width: 1094
GlyphClass: 2
Flags: W
AnchorPoint: "Anchor-0" 562 741 basechar 0
LayerCount: 2
Fore
SplineSet
22 710 m 1,0,-1
 336 710 l 1,1,-1
 336 627 l 1,2,-1
 323 627 l 2,3,4
 309 627 309 627 296 625.5 c 128,-1,5
 283 624 283 624 275 622 c 128,-1,6
 267 620 267 620 267 616 c 2,7,-1
 380 102 l 1,8,-1
 367 114 l 1,9,-1
 512 710 l 1,10,-1
 688 710 l 1,11,-1
 828 106 l 1,12,-1
 811 96 l 1,13,-1
 930 606 l 2,14,15
 930 612 930 612 922.5 616.5 c 128,-1,16
 915 621 915 621 902.5 624 c 128,-1,17
 890 627 890 627 874 627 c 2,18,-1
 862 627 l 1,19,-1
 862 710 l 1,20,-1
 1072 710 l 1,21,-1
 1072 627 l 1,22,-1
 1064 627 l 2,23,24
 1040 627 1040 627 1026 616 c 128,-1,25
 1012 605 1012 605 1006 582 c 2,26,-1
 870 0 l 1,27,-1
 685 0 l 1,28,-1
 548 594 l 1,29,-1
 563 592 l 1,30,-1
 420 0 l 1,31,-1
 228 0 l 1,32,-1
 86 599 l 2,33,34
 81 618 81 618 67.5 622.5 c 128,-1,35
 54 627 54 627 30 627 c 2,36,-1
 22 627 l 1,37,-1
 22 710 l 1,0,-1
EndSplineSet
EndChar

StartChar: X
Encoding: 88 88 205
Width: 774
GlyphClass: 2
Flags: W
AnchorPoint: "Anchor-1" 355 0 basechar 0
AnchorPoint: "Anchor-0" 378 741 basechar 0
LayerCount: 2
Fore
SplineSet
33 627 m 1,0,-1
 33 710 l 1,1,-1
 366 710 l 1,2,-1
 366 627 l 1,3,-1
 351 627 l 2,4,5
 338 627 338 627 323.5 626 c 128,-1,6
 309 625 309 625 300 623 c 128,-1,7
 291 621 291 621 291 618 c 2,8,-1
 453 396 l 1,9,-1
 468 389 l 1,10,-1
 668 117 l 2,11,12
 684 96 684 96 697 89.5 c 128,-1,13
 710 83 710 83 732 83 c 2,14,-1
 747 83 l 1,15,-1
 747 0 l 1,16,-1
 407 0 l 1,17,-1
 407 83 l 1,18,-1
 422 83 l 2,19,20
 436 83 436 83 449.5 84 c 128,-1,21
 463 85 463 85 473 87.5 c 128,-1,22
 483 90 483 90 483 93 c 2,23,-1
 307 333 l 1,24,-1
 293 339 l 1,25,-1
 106 593 l 2,26,27
 90 615 90 615 77 621 c 128,-1,28
 64 627 64 627 41 627 c 2,29,-1
 33 627 l 1,0,-1
28 0 m 1,30,-1
 28 83 l 1,31,-1
 42 83 l 2,32,33
 64 83 64 83 78.5 93 c 128,-1,34
 93 103 93 103 111 129 c 2,35,-1
 297 392 l 1,36,-1
 358 348 l 1,37,-1
 185 100 l 2,38,39
 185 96 185 96 194.5 92 c 128,-1,40
 204 88 204 88 218 85.5 c 128,-1,41
 232 83 232 83 245 83 c 2,42,-1
 263 83 l 1,43,-1
 263 0 l 1,44,-1
 28 0 l 1,30,-1
463 333 m 1,45,-1
 419 399 l 1,46,-1
 567 610 l 2,47,48
 567 615 567 615 557.5 619 c 128,-1,49
 548 623 548 623 533.5 625 c 128,-1,50
 519 627 519 627 505 627 c 2,51,-1
 492 627 l 1,52,-1
 492 710 l 1,53,-1
 722 710 l 1,54,-1
 722 627 l 1,55,-1
 714 627 l 2,56,57
 692 627 692 627 676 617.5 c 128,-1,58
 660 608 660 608 641 582 c 2,59,-1
 463 333 l 1,45,-1
EndSplineSet
EndChar

StartChar: Y
Encoding: 89 89 206
Width: 738
GlyphClass: 2
Flags: W
AnchorPoint: "Anchor-1" 373 0 basechar 0
AnchorPoint: "Anchor-0" 373 741 basechar 0
LayerCount: 2
Fore
SplineSet
284 293 m 1,0,-1
 296 249 l 1,1,-1
 105 575 l 2,2,3
 94 594 94 594 84 605.5 c 128,-1,4
 74 617 74 617 62.5 622 c 128,-1,5
 51 627 51 627 35 627 c 2,6,-1
 26 627 l 1,7,-1
 26 710 l 1,8,-1
 344 710 l 1,9,-1
 344 627 l 1,10,-1
 332 627 l 2,11,12
 313 627 313 627 299 625.5 c 128,-1,13
 285 624 285 624 277.5 622 c 128,-1,14
 270 620 270 620 270 616 c 2,15,-1
 439 304 l 1,16,-1
 392 297 l 1,17,-1
 560 604 l 2,18,19
 560 611 560 611 552.5 616 c 128,-1,20
 545 621 545 621 531 624 c 128,-1,21
 517 627 517 627 498 627 c 2,22,-1
 488 627 l 1,23,-1
 488 710 l 1,24,-1
 711 710 l 1,25,-1
 711 627 l 1,26,-1
 702 627 l 2,27,28
 687 627 687 627 676 621 c 128,-1,29
 665 615 665 615 655 602.5 c 128,-1,30
 645 590 645 590 634 570 c 2,31,-1
 445 243 l 1,32,-1
 463 293 l 1,33,-1
 463 119 l 2,34,35
 463 97 463 97 482 90 c 128,-1,36
 501 83 501 83 530 83 c 2,37,-1
 549 83 l 1,38,-1
 549 0 l 1,39,-1
 198 0 l 1,40,-1
 198 83 l 1,41,-1
 217 83 l 2,42,43
 246 83 246 83 265 90 c 128,-1,44
 284 97 284 97 284 119 c 2,45,-1
 284 293 l 1,0,-1
EndSplineSet
EndChar

StartChar: Z
Encoding: 90 90 216
Width: 697
GlyphClass: 2
Flags: W
AnchorPoint: "Anchor-1" 369 0 basechar 0
AnchorPoint: "Anchor-0" 369 741 basechar 0
LayerCount: 2
Fore
SplineSet
269 628 m 2,0,1
 243 628 243 628 224 626 c 128,-1,2
 205 624 205 624 192 619.5 c 128,-1,3
 179 615 179 615 172 606.5 c 128,-1,4
 165 598 165 598 163 584 c 2,5,-1
 152 481 l 1,6,-1
 61 481 l 1,7,-1
 61 710 l 1,8,-1
 629 710 l 1,9,-1
 629 585 l 1,10,-1
 181 41 l 1,11,-1
 153 82 l 1,12,-1
 421 82 l 2,13,14
 461 82 461 82 486 85.5 c 128,-1,15
 511 89 511 89 523 98.5 c 128,-1,16
 535 108 535 108 537 126 c 2,17,-1
 554 259 l 1,18,-1
 646 259 l 1,19,-1
 646 0 l 1,20,-1
 46 0 l 1,21,-1
 46 129 l 1,22,-1
 481 656 l 1,23,-1
 507 628 l 1,24,-1
 269 628 l 2,0,1
EndSplineSet
EndChar

StartChar: Zcaron
Encoding: 381 381 219
Width: 697
GlyphClass: 1
Flags: W
LayerCount: 2
Fore
SplineSet
293 792 m 1,0,-1
 412 792 l 1,1,-1
 557 957 l 1,2,-1
 557 995 l 1,3,-1
 496 995 l 1,4,-1
 319 884 l 1,5,-1
 395 886 l 1,6,-1
 215 995 l 1,7,-1
 148 995 l 1,8,-1
 148 957 l 1,9,-1
 293 792 l 1,0,-1
269 628 m 2,10,11
 243 628 243 628 224 626 c 128,-1,12
 205 624 205 624 192 619.5 c 128,-1,13
 179 615 179 615 172 606.5 c 128,-1,14
 165 598 165 598 163 584 c 2,15,-1
 152 481 l 1,16,-1
 61 481 l 1,17,-1
 61 710 l 1,18,-1
 629 710 l 1,19,-1
 629 585 l 1,20,-1
 181 41 l 1,21,-1
 153 82 l 1,22,-1
 421 82 l 2,23,24
 461 82 461 82 486 85.5 c 128,-1,25
 511 89 511 89 523 98.5 c 128,-1,26
 535 108 535 108 537 126 c 2,27,-1
 554 259 l 1,28,-1
 646 259 l 1,29,-1
 646 0 l 1,30,-1
 46 0 l 1,31,-1
 46 129 l 1,32,-1
 481 656 l 1,33,-1
 507 628 l 1,34,-1
 269 628 l 2,10,11
EndSplineSet
EndChar

StartChar: AE
Encoding: 198 198 221
Width: 1109
GlyphClass: 2
Flags: W
AnchorPoint: "Anchor-0" 684 741 basechar 0
LayerCount: 2
Fore
SplineSet
219 291 m 1,0,-1
 536 291 l 1,1,-1
 548 219 l 1,2,-1
 208 219 l 1,3,-1
 219 291 l 1,0,-1
672 401 m 1,4,5
 716 403 716 403 760 406 c 128,-1,6
 804 409 804 409 849 413 c 128,-1,7
 894 417 894 417 939 421 c 1,8,-1
 939 308 l 1,9,10
 896 312 896 312 852 314.5 c 128,-1,11
 808 317 808 317 763 320 c 128,-1,12
 718 323 718 323 672 326 c 1,13,-1
 672 401 l 1,4,5
435 0 m 1,14,-1
 435 83 l 1,15,-1
 444 83 l 2,16,17
 464 83 464 83 478.5 86 c 128,-1,18
 493 89 493 89 501.5 96 c 128,-1,19
 510 103 510 103 510 114 c 2,20,-1
 510 631 l 1,21,-1
 483 631 l 1,22,-1
 175 106 l 2,23,24
 175 100 175 100 182.5 94.5 c 128,-1,25
 190 89 190 89 205 86 c 128,-1,26
 220 83 220 83 245 83 c 2,27,-1
 253 83 l 1,28,-1
 253 0 l 1,29,-1
 8 0 l 1,30,-1
 8 83 l 1,31,-1
 14 83 l 2,32,33
 31 83 31 83 44.5 89 c 128,-1,34
 58 95 58 95 71 109 c 128,-1,35
 84 123 84 123 98 147 c 2,36,-1
 360 591 l 1,37,38
 360 606 360 606 351 613.5 c 128,-1,39
 342 621 342 621 327 624 c 128,-1,40
 312 627 312 627 293 627 c 2,41,-1
 284 627 l 1,42,-1
 284 710 l 1,43,-1
 1032 710 l 1,44,-1
 1032 510 l 1,45,-1
 943 510 l 1,46,-1
 931 583 l 2,47,48
 929 601 929 601 916.5 610.5 c 128,-1,49
 904 620 904 620 882 624 c 128,-1,50
 860 628 860 628 826 628 c 2,51,-1
 687 628 l 1,52,-1
 687 82 l 1,53,-1
 825 82 l 2,54,55
 855 82 855 82 876.5 84 c 128,-1,56
 898 86 898 86 911.5 91 c 128,-1,57
 925 96 925 96 932 105 c 128,-1,58
 939 114 939 114 942 127 c 2,59,-1
 958 225 l 1,60,-1
 1050 225 l 1,61,-1
 1050 0 l 1,62,-1
 435 0 l 1,14,-1
EndSplineSet
EndChar

StartChar: Eth
Encoding: 208 208 223
Width: 837
GlyphClass: 1
Flags: W
LayerCount: 2
Fore
SplineSet
42 405 m 1,0,-1
 456 405 l 1,1,-1
 456 322 l 1,2,-1
 42 322 l 1,3,-1
 42 405 l 1,0,-1
46 627 m 1,4,-1
 46 710 l 1,5,-1
 418 710 l 2,6,7
 501 710 501 710 569 689.5 c 128,-1,8
 637 669 637 669 685.5 626 c 128,-1,9
 734 583 734 583 760.5 516.5 c 128,-1,10
 787 450 787 450 787 359 c 0,11,12
 787 269 787 269 760.5 201 c 128,-1,13
 734 133 734 133 685.5 88.5 c 128,-1,14
 637 44 637 44 569 22 c 128,-1,15
 501 0 501 0 418 0 c 2,16,-1
 46 0 l 1,17,-1
 46 83 l 1,18,-1
 57 83 l 2,19,20
 84 83 84 83 102 90 c 128,-1,21
 120 97 120 97 120 119 c 2,22,-1
 120 591 l 2,23,24
 120 613 120 613 102 620 c 128,-1,25
 84 627 84 627 57 627 c 2,26,-1
 46 627 l 1,4,-1
397 628 m 2,27,-1
 298 628 l 1,28,-1
 298 82 l 1,29,-1
 397 82 l 2,30,31
 449 82 449 82 487.5 98 c 128,-1,32
 526 114 526 114 550.5 148 c 128,-1,33
 575 182 575 182 587.5 234.5 c 128,-1,34
 600 287 600 287 600 359 c 256,35,36
 600 431 600 431 587.5 482.5 c 128,-1,37
 575 534 575 534 550.5 566 c 128,-1,38
 526 598 526 598 487.5 613 c 128,-1,39
 449 628 449 628 397 628 c 2,27,-1
EndSplineSet
EndChar

StartChar: Oslash
Encoding: 216 216 224
Width: 837
GlyphClass: 2
Flags: W
AnchorPoint: "Anchor-0" 418 731 basechar 0
LayerCount: 2
Fore
SplineSet
419 647 m 0,0,1
 371 647 371 647 335.5 631.5 c 128,-1,2
 300 616 300 616 277 581.5 c 128,-1,3
 254 547 254 547 243 491 c 128,-1,4
 232 435 232 435 232 355 c 0,5,6
 232 270 232 270 241.5 214 c 128,-1,7
 251 158 251 158 272 125 c 128,-1,8
 293 92 293 92 329.5 77.5 c 128,-1,9
 366 63 366 63 419 63 c 0,10,11
 467 63 467 63 502 78.5 c 128,-1,12
 537 94 537 94 560 128.5 c 128,-1,13
 583 163 583 163 594.5 219 c 128,-1,14
 606 275 606 275 606 355 c 0,15,16
 606 440 606 440 596.5 496 c 128,-1,17
 587 552 587 552 565.5 585 c 128,-1,18
 544 618 544 618 508 632.5 c 128,-1,19
 472 647 472 647 419 647 c 0,0,1
419 -25 m 0,20,21
 340 -25 340 -25 272.5 1.5 c 128,-1,22
 205 28 205 28 155 77.5 c 128,-1,23
 105 127 105 127 77.5 197.5 c 128,-1,24
 50 268 50 268 50 355 c 0,25,26
 50 450 50 450 76 521 c 128,-1,27
 102 592 102 592 151 639.5 c 128,-1,28
 200 687 200 687 267.5 711 c 128,-1,29
 335 735 335 735 419 735 c 0,30,31
 498 735 498 735 565.5 708.5 c 128,-1,32
 633 682 633 682 682.5 632 c 128,-1,33
 732 582 732 582 759.5 512 c 128,-1,34
 787 442 787 442 787 355 c 0,35,36
 787 261 787 261 761 189.5 c 128,-1,37
 735 118 735 118 687 70.5 c 128,-1,38
 639 23 639 23 571 -1 c 128,-1,39
 503 -25 503 -25 419 -25 c 0,20,21
-12 -25 m 1,40,-1
 738 735 l 1,41,-1
 849 735 l 1,42,-1
 100 -25 l 1,43,-1
 -12 -25 l 1,40,-1
EndSplineSet
EndChar

StartChar: Thorn
Encoding: 222 222 226
Width: 766
GlyphClass: 1
Flags: W
LayerCount: 2
Fore
SplineSet
390 710 m 1,0,-1
 46 710 l 1,1,-1
 46 633 l 1,2,-1
 56 633 l 2,3,4
 84 633 84 633 101.5 626 c 128,-1,5
 119 619 119 619 119 597 c 2,6,-1
 119 113 l 2,7,8
 119 91 119 91 101.5 84 c 128,-1,9
 84 77 84 77 56 77 c 2,10,-1
 46 77 l 1,11,-1
 46 0 l 1,12,-1
 390 0 l 1,13,-1
 390 83 l 1,14,-1
 367 83 l 2,15,16
 353 83 353 83 340.5 83.5 c 128,-1,17
 328 84 328 84 318.5 85.5 c 128,-1,18
 309 87 309 87 303.5 88.5 c 128,-1,19
 298 90 298 90 298 93 c 2,20,-1
 298 617 l 2,21,22
 298 620 298 620 303.5 621.5 c 128,-1,23
 309 623 309 623 318.5 624.5 c 128,-1,24
 328 626 328 626 340.5 626.5 c 128,-1,25
 353 627 353 627 367 627 c 2,26,-1
 390 627 l 1,27,-1
 390 710 l 1,0,-1
719 365 m 0,28,29
 719 427 719 427 688 469.5 c 128,-1,30
 657 512 657 512 600.5 533 c 128,-1,31
 544 554 544 554 466 554 c 2,32,-1
 221 554 l 1,33,-1
 227 471 l 1,34,-1
 433 471 l 2,35,36
 468 471 468 471 492 459.5 c 128,-1,37
 516 448 516 448 528.5 424.5 c 128,-1,38
 541 401 541 401 541 361 c 0,39,40
 541 323 541 323 528.5 298 c 128,-1,41
 516 273 516 273 491.5 260.5 c 128,-1,42
 467 248 467 248 431 248 c 2,43,-1
 245 248 l 1,44,-1
 245 167 l 1,45,-1
 463 167 l 2,46,47
 539 167 539 167 596.5 190 c 128,-1,48
 654 213 654 213 686.5 257 c 128,-1,49
 719 301 719 301 719 365 c 0,28,29
EndSplineSet
EndChar

StartChar: Hbar
Encoding: 294 294 228
Width: 863
GlyphClass: 1
Flags: W
LayerCount: 2
Fore
SplineSet
210 361 m 1,0,-1
 627 361 l 1,1,-1
 627 294 l 1,2,-1
 210 294 l 1,3,-1
 210 361 l 1,0,-1
46 0 m 1,4,-1
 46 83 l 1,5,-1
 56 83 l 2,6,7
 84 83 84 83 102 90 c 128,-1,8
 120 97 120 97 120 119 c 2,9,-1
 120 591 l 2,10,11
 120 613 120 613 102 620 c 128,-1,12
 84 627 84 627 56 627 c 2,13,-1
 46 627 l 1,14,-1
 46 710 l 1,15,-1
 368 710 l 1,16,-1
 368 627 l 1,17,-1
 359 627 l 2,18,19
 350 627 350 627 339 626.5 c 128,-1,20
 328 626 328 626 318.5 624.5 c 128,-1,21
 309 623 309 623 303.5 621.5 c 128,-1,22
 298 620 298 620 298 617 c 2,23,-1
 298 92 l 2,24,25
 298 90 298 90 303.5 88.5 c 128,-1,26
 309 87 309 87 318.5 85.5 c 128,-1,27
 328 84 328 84 339 83.5 c 128,-1,28
 350 83 350 83 359 83 c 2,29,-1
 368 83 l 1,30,-1
 368 0 l 1,31,-1
 46 0 l 1,4,-1
495 0 m 1,32,-1
 495 83 l 1,33,-1
 503 83 l 2,34,35
 513 83 513 83 524 83.5 c 128,-1,36
 535 84 535 84 544 85.5 c 128,-1,37
 553 87 553 87 559 88.5 c 128,-1,38
 565 90 565 90 565 93 c 2,39,-1
 565 618 l 2,40,41
 565 620 565 620 559 621.5 c 128,-1,42
 553 623 553 623 544 624.5 c 128,-1,43
 535 626 535 626 524 626.5 c 128,-1,44
 513 627 513 627 503 627 c 2,45,-1
 495 627 l 1,46,-1
 495 710 l 1,47,-1
 817 710 l 1,48,-1
 817 627 l 1,49,-1
 806 627 l 2,50,51
 779 627 779 627 761 620 c 128,-1,52
 743 613 743 613 743 591 c 2,53,-1
 743 119 l 2,54,55
 743 97 743 97 761 90 c 128,-1,56
 779 83 779 83 806 83 c 2,57,-1
 817 83 l 1,58,-1
 817 0 l 1,59,-1
 495 0 l 1,32,-1
30 461 m 1,60,-1
 30 529 l 1,61,-1
 833 529 l 1,62,-1
 833 461 l 1,63,-1
 30 461 l 1,60,-1
EndSplineSet
EndChar

StartChar: Ldot
Encoding: 319 319 230
Width: 711
GlyphClass: 1
Flags: W
LayerCount: 2
Fore
SplineSet
389 710 m 1,0,-1
 46 710 l 1,1,-1
 46 627 l 1,2,-1
 56 627 l 2,3,4
 84 627 84 627 102 620 c 128,-1,5
 120 613 120 613 120 591 c 2,6,-1
 120 119 l 2,7,8
 120 97 120 97 102 90 c 128,-1,9
 84 83 84 83 56 83 c 2,10,-1
 46 83 l 1,11,-1
 46 0 l 1,12,-1
 653 0 l 1,13,-1
 653 234 l 1,14,-1
 561 234 l 1,15,-1
 545 127 l 2,16,17
 542 109 542 109 530 99 c 128,-1,18
 518 89 518 89 493.5 85.5 c 128,-1,19
 469 82 469 82 428 82 c 2,20,-1
 298 82 l 1,21,-1
 298 591 l 2,22,23
 298 613 298 613 318 620 c 128,-1,24
 338 627 338 627 370 627 c 2,25,-1
 389 627 l 1,26,-1
 389 710 l 1,0,-1
570 333 m 0,27,28
 519 333 519 333 487.5 360.5 c 128,-1,29
 456 388 456 388 456 440 c 256,30,31
 456 492 456 492 487.5 519 c 128,-1,32
 519 546 519 546 570 546 c 0,33,34
 623 546 623 546 654.5 519 c 128,-1,35
 686 492 686 492 686 440 c 256,36,37
 686 388 686 388 654.5 360.5 c 128,-1,38
 623 333 623 333 570 333 c 0,27,28
EndSplineSet
Ligature2: "Ligature Substitution lookup 5 subtable" L periodcentered
EndChar

StartChar: Lslash
Encoding: 321 321 231
Width: 705
GlyphClass: 1
Flags: W
LayerCount: 2
Fore
SplineSet
24 178 m 1,0,-1
 529 464 l 1,1,-1
 529 555 l 1,2,-1
 24 269 l 1,3,-1
 24 178 l 1,0,-1
398 710 m 1,4,-1
 55 710 l 1,5,-1
 55 627 l 1,6,-1
 65 627 l 2,7,8
 93 627 93 627 111 620 c 128,-1,9
 129 613 129 613 129 591 c 2,10,-1
 129 119 l 2,11,12
 129 97 129 97 111 90 c 128,-1,13
 93 83 93 83 65 83 c 2,14,-1
 55 83 l 1,15,-1
 55 0 l 1,16,-1
 662 0 l 1,17,-1
 662 261 l 1,18,-1
 570 261 l 1,19,-1
 554 127 l 2,20,21
 552 109 552 109 540 99 c 128,-1,22
 528 89 528 89 503 85.5 c 128,-1,23
 478 82 478 82 437 82 c 2,24,-1
 307 82 l 1,25,-1
 307 591 l 2,26,27
 307 613 307 613 327 620 c 128,-1,28
 347 627 347 627 379 627 c 2,29,-1
 398 627 l 1,30,-1
 398 710 l 1,4,-1
EndSplineSet
EndChar

StartChar: Eng
Encoding: 330 330 232
Width: 834
GlyphClass: 1
Flags: W
LayerCount: 2
Fore
SplineSet
719 -18 m 2,0,1
 719 -76 719 -76 703.5 -120.5 c 128,-1,2
 688 -165 688 -165 659 -193 c 128,-1,3
 630 -221 630 -221 587.5 -235.5 c 128,-1,4
 545 -250 545 -250 491 -250 c 0,5,6
 447 -250 447 -250 414 -245 c 128,-1,7
 381 -240 381 -240 357 -231 c 1,8,-1
 357 -139 l 1,9,10
 370 -144 370 -144 389 -149 c 128,-1,11
 408 -154 408 -154 433 -157.5 c 128,-1,12
 458 -161 458 -161 486 -161 c 0,13,14
 533 -161 533 -161 563 -147 c 128,-1,15
 593 -133 593 -133 608 -102 c 128,-1,16
 623 -71 623 -71 623 -19 c 2,17,-1
 623 70 l 1,18,-1
 657 -76 l 1,19,-1
 184 666 l 1,20,-1
 209 657 l 1,21,-1
 209 93 l 2,22,23
 209 90 209 90 219 87.5 c 128,-1,24
 229 85 229 85 243.5 84 c 128,-1,25
 258 83 258 83 270 83 c 2,26,-1
 283 83 l 1,27,-1
 283 0 l 1,28,-1
 46 0 l 1,29,-1
 46 83 l 1,30,-1
 57 83 l 2,31,32
 76 83 76 83 90 86 c 128,-1,33
 104 89 104 89 112.5 97 c 128,-1,34
 121 105 121 105 121 119 c 2,35,-1
 121 591 l 2,36,37
 121 606 121 606 112.5 613.5 c 128,-1,38
 104 621 104 621 90 624 c 128,-1,39
 76 627 76 627 57 627 c 2,40,-1
 46 627 l 1,41,-1
 46 710 l 1,42,-1
 352 710 l 1,43,-1
 701 164 l 1,44,-1
 631 146 l 1,45,-1
 631 617 l 2,46,47
 631 621 631 621 621 623 c 128,-1,48
 611 625 611 625 597 626 c 128,-1,49
 583 627 583 627 570 627 c 2,50,-1
 557 627 l 1,51,-1
 557 710 l 1,52,-1
 793 710 l 1,53,-1
 793 627 l 1,54,-1
 783 627 l 2,55,56
 765 627 765 627 750 625 c 128,-1,57
 735 623 735 623 727 616 c 128,-1,58
 719 609 719 609 719 594 c 2,59,-1
 719 -18 l 2,0,1
EndSplineSet
Substitution2: "'ss07' Style Set 7 lookup 67 subtable" Eng.afr
EndChar

StartChar: OE
Encoding: 338 338 233
Width: 1138
GlyphClass: 1
Flags: W
LayerCount: 2
Fore
SplineSet
701 402 m 1,0,1
 746 405 746 405 790.5 408.5 c 128,-1,2
 835 412 835 412 879.5 415.5 c 128,-1,3
 924 419 924 419 968 422 c 1,4,-1
 968 308 l 1,5,6
 924 312 924 312 879.5 315 c 128,-1,7
 835 318 835 318 790.5 321.5 c 128,-1,8
 746 325 746 325 701 328 c 1,9,-1
 701 402 l 1,0,1
439 82 m 2,10,-1
 538 82 l 1,11,-1
 538 628 l 1,12,-1
 439 628 l 2,13,14
 387 628 387 628 349 612 c 128,-1,15
 311 596 311 596 286 562 c 128,-1,16
 261 528 261 528 248.5 475.5 c 128,-1,17
 236 423 236 423 236 351 c 256,18,19
 236 279 236 279 248.5 227.5 c 128,-1,20
 261 176 261 176 286 144 c 128,-1,21
 311 112 311 112 349 97 c 128,-1,22
 387 82 387 82 439 82 c 2,10,-1
418 0 m 2,23,24
 335 0 335 0 267 20.5 c 128,-1,25
 199 41 199 41 150.5 84 c 128,-1,26
 102 127 102 127 76 193.5 c 128,-1,27
 50 260 50 260 50 351 c 256,28,29
 50 442 50 442 76 509.5 c 128,-1,30
 102 577 102 577 150.5 621.5 c 128,-1,31
 199 666 199 666 267 688 c 128,-1,32
 335 710 335 710 418 710 c 2,33,-1
 1061 710 l 1,34,-1
 1061 510 l 1,35,-1
 971 510 l 1,36,-1
 960 583 l 2,37,38
 958 601 958 601 945.5 610.5 c 128,-1,39
 933 620 933 620 910.5 624 c 128,-1,40
 888 628 888 628 854 628 c 2,41,-1
 717 628 l 1,42,-1
 717 82 l 1,43,-1
 854 82 l 2,44,45
 884 82 884 82 905 84 c 128,-1,46
 926 86 926 86 940 91 c 128,-1,47
 954 96 954 96 961 105 c 128,-1,48
 968 114 968 114 970 127 c 2,49,-1
 987 225 l 1,50,-1
 1078 225 l 1,51,-1
 1078 0 l 1,52,-1
 418 0 l 2,23,24
EndSplineSet
EndChar

StartChar: Tbar
Encoding: 358 358 234
Width: 769
GlyphClass: 1
Flags: W
LayerCount: 2
Fore
SplineSet
143 328 m 1,0,-1
 625 328 l 1,1,-1
 625 241 l 1,2,-1
 143 241 l 1,3,-1
 143 328 l 1,0,-1
295 119 m 2,4,-1
 295 626 l 1,5,-1
 263 626 l 2,6,7
 220 626 220 626 195.5 620.5 c 128,-1,8
 171 615 171 615 160.5 603 c 128,-1,9
 150 591 150 591 148 573 c 2,10,-1
 136 430 l 1,11,-1
 44 430 l 1,12,-1
 44 710 l 1,13,-1
 725 710 l 1,14,-1
 725 430 l 1,15,-1
 633 430 l 1,16,-1
 621 573 l 2,17,18
 620 591 620 591 609 603 c 128,-1,19
 598 615 598 615 573.5 620.5 c 128,-1,20
 549 626 549 626 506 626 c 2,21,-1
 474 626 l 1,22,-1
 474 119 l 2,23,24
 474 97 474 97 494 90 c 128,-1,25
 514 83 514 83 541 83 c 2,26,-1
 561 83 l 1,27,-1
 561 0 l 1,28,-1
 208 0 l 1,29,-1
 208 83 l 1,30,-1
 227 83 l 2,31,32
 255 83 255 83 275 90 c 128,-1,33
 295 97 295 97 295 119 c 2,4,-1
EndSplineSet
EndChar

StartChar: Bhook
Encoding: 385 385 235
Width: 870
GlyphClass: 2
Flags: W
AnchorPoint: "Anchor-1" 470 0 basechar 0
AnchorPoint: "Anchor-0" 435 741 basechar 0
LayerCount: 2
Fore
SplineSet
347 408 m 1,0,-1
 513 408 l 2,1,2
 546 408 546 408 567 419.5 c 128,-1,3
 588 431 588 431 598.5 457.5 c 128,-1,4
 609 484 609 484 609 527 c 0,5,6
 609 559 609 559 599 582.5 c 128,-1,7
 589 606 589 606 568 618 c 128,-1,8
 547 630 547 630 515 630 c 2,9,-1
 399 630 l 1,10,-1
 399 80 l 1,11,-1
 520 80 l 2,12,13
 558 80 558 80 583 94 c 128,-1,14
 608 108 608 108 620 136.5 c 128,-1,15
 632 165 632 165 632 207 c 0,16,17
 632 251 632 251 619 279 c 128,-1,18
 606 307 606 307 578.5 320.5 c 128,-1,19
 551 334 551 334 509 334 c 2,20,-1
 347 334 l 1,21,-1
 347 408 l 1,0,-1
191 710 m 2,22,-1
 551 710 l 2,23,24
 610 710 610 710 654 700.5 c 128,-1,25
 698 691 698 691 728 670.5 c 128,-1,26
 758 650 758 650 773 617.5 c 128,-1,27
 788 585 788 585 788 540 c 0,28,29
 788 488 788 488 764.5 453.5 c 128,-1,30
 741 419 741 419 694.5 401 c 128,-1,31
 648 383 648 383 581 379 c 1,32,-1
 588 406 l 1,33,-1
 588 335 l 1,34,-1
 581 370 l 1,35,36
 656 363 656 363 708.5 344 c 128,-1,37
 761 325 761 325 788 289.5 c 128,-1,38
 815 254 815 254 815 197 c 0,39,40
 815 145 815 145 798.5 107.5 c 128,-1,41
 782 70 782 70 749.5 46.5 c 128,-1,42
 717 23 717 23 669 11.5 c 128,-1,43
 621 0 621 0 558 0 c 2,44,-1
 146 0 l 1,45,-1
 146 83 l 1,46,-1
 157 83 l 2,47,48
 185 83 185 83 203 90 c 128,-1,49
 221 97 221 97 221 119 c 2,50,-1
 221 630 l 1,51,-1
 191 630 l 2,52,53
 167 630 167 630 151.5 622 c 128,-1,54
 136 614 136 614 128.5 592.5 c 128,-1,55
 121 571 121 571 121 529 c 0,56,57
 121 498 121 498 124 474 c 128,-1,58
 127 450 127 450 133 433 c 1,59,-1
 13 433 l 1,60,61
 12 447 12 447 9 469.5 c 128,-1,62
 6 492 6 492 6 515 c 0,63,64
 6 581 6 581 26 624 c 128,-1,65
 46 667 46 667 86.5 688.5 c 128,-1,66
 127 710 127 710 191 710 c 2,22,-1
EndSplineSet
EndChar

StartChar: Dhook
Encoding: 394 394 236
Width: 937
GlyphClass: 2
Flags: W
AnchorPoint: "Anchor-1" 469 0 basechar 0
AnchorPoint: "Anchor-0" 441 741 basechar 0
LayerCount: 2
Fore
SplineSet
191 710 m 2,0,-1
 519 710 l 2,1,2
 602 710 602 710 670 689.5 c 128,-1,3
 738 669 738 669 786.5 626 c 128,-1,4
 835 583 835 583 861 516.5 c 128,-1,5
 887 450 887 450 887 359 c 0,6,7
 887 269 887 269 861 201 c 128,-1,8
 835 133 835 133 786.5 88.5 c 128,-1,9
 738 44 738 44 670 22 c 128,-1,10
 602 0 602 0 519 0 c 2,11,-1
 146 0 l 1,12,-1
 146 83 l 1,13,-1
 158 83 l 2,14,15
 185 83 185 83 203 90 c 128,-1,16
 221 97 221 97 221 119 c 2,17,-1
 221 630 l 1,18,-1
 191 630 l 2,19,20
 167 630 167 630 151.5 622.5 c 128,-1,21
 136 615 136 615 128.5 594.5 c 128,-1,22
 121 574 121 574 121 535 c 0,23,24
 121 505 121 505 124 483 c 128,-1,25
 127 461 127 461 133 445 c 1,26,-1
 13 445 l 1,27,28
 12 458 12 458 9 479 c 128,-1,29
 6 500 6 500 6 521 c 0,30,31
 6 585 6 585 26 627 c 128,-1,32
 46 669 46 669 86.5 689.5 c 128,-1,33
 127 710 127 710 191 710 c 2,0,-1
498 628 m 2,34,-1
 399 628 l 1,35,-1
 399 82 l 1,36,-1
 498 82 l 2,37,38
 550 82 550 82 588 98 c 128,-1,39
 626 114 626 114 651 148 c 128,-1,40
 676 182 676 182 688.5 234.5 c 128,-1,41
 701 287 701 287 701 359 c 256,42,43
 701 431 701 431 688.5 482.5 c 128,-1,44
 676 534 676 534 651 566 c 128,-1,45
 626 598 626 598 588 613 c 128,-1,46
 550 628 550 628 498 628 c 2,34,-1
EndSplineSet
EndChar

StartChar: Schwa
Encoding: 399 399 237
Width: 784
GlyphClass: 1
Flags: W
LayerCount: 2
Fore
SplineSet
376 741 m 0,0,1
 490 741 490 741 570 700 c 128,-1,2
 650 659 650 659 692 575.5 c 128,-1,3
 734 492 734 492 734 364 c 0,4,5
 734 275 734 275 710 203.5 c 128,-1,6
 686 132 686 132 640.5 81 c 128,-1,7
 595 30 595 30 529.5 3 c 128,-1,8
 464 -24 464 -24 381 -24 c 0,9,10
 262 -24 262 -24 190 22.5 c 128,-1,11
 118 69 118 69 86 162.5 c 128,-1,12
 54 256 54 256 51 396 c 1,13,-1
 633 396 l 1,14,-1
 633 315 l 1,15,-1
 212 315 l 1,16,-1
 231 339 l 1,17,18
 233 255 233 255 241 201.5 c 128,-1,19
 249 148 249 148 265.5 118 c 128,-1,20
 282 88 282 88 309.5 76 c 128,-1,21
 337 64 337 64 379 64 c 0,22,23
 422 64 422 64 453 77.5 c 128,-1,24
 484 91 484 91 505.5 125 c 128,-1,25
 527 159 527 159 537 218.5 c 128,-1,26
 547 278 547 278 547 369 c 0,27,28
 547 456 547 456 536 511.5 c 128,-1,29
 525 567 525 567 502 598 c 128,-1,30
 479 629 479 629 444.5 641 c 128,-1,31
 410 653 410 653 363 653 c 0,32,33
 310 653 310 653 271 639 c 128,-1,34
 232 625 232 625 201 596 c 128,-1,35
 170 567 170 567 142 521 c 1,36,-1
 60 576 l 1,37,38
 94 630 94 630 138 666.5 c 128,-1,39
 182 703 182 703 241 722 c 128,-1,40
 300 741 300 741 376 741 c 0,0,1
EndSplineSet
EndChar

StartChar: Khook
Encoding: 408 408 238
Width: 877
GlyphClass: 2
Flags: W
AnchorPoint: "Anchor-1" 447 0 basechar 0
AnchorPoint: "Anchor-0" 500 741 basechar 0
LayerCount: 2
Fore
SplineSet
46 0 m 1,0,-1
 46 83 l 1,1,-1
 57 83 l 2,2,3
 84 83 84 83 102 90 c 128,-1,4
 120 97 120 97 120 119 c 2,5,-1
 120 591 l 2,6,7
 120 613 120 613 102 620 c 128,-1,8
 84 627 84 627 57 627 c 2,9,-1
 46 627 l 1,10,-1
 46 710 l 1,11,-1
 374 710 l 1,12,-1
 374 627 l 1,13,-1
 362 627 l 2,14,15
 350 627 350 627 338.5 626.5 c 128,-1,16
 327 626 327 626 318 624.5 c 128,-1,17
 309 623 309 623 303.5 621.5 c 128,-1,18
 298 620 298 620 298 617 c 2,19,-1
 298 93 l 2,20,21
 298 90 298 90 303.5 88.5 c 128,-1,22
 309 87 309 87 317 85.5 c 128,-1,23
 325 84 325 84 335 83.5 c 128,-1,24
 345 83 345 83 353 83 c 2,25,-1
 361 83 l 1,26,-1
 361 0 l 1,27,-1
 46 0 l 1,0,-1
762 719 m 0,28,29
 802 719 802 719 826 701.5 c 128,-1,30
 850 684 850 684 861.5 653 c 128,-1,31
 873 622 873 622 873 580 c 0,32,33
 873 542 873 542 867.5 506 c 128,-1,34
 862 470 862 470 856 450 c 1,35,-1
 735 450 l 1,36,37
 741 464 741 464 746 483 c 128,-1,38
 751 502 751 502 754 523.5 c 128,-1,39
 757 545 757 545 757 567 c 0,40,41
 757 593 757 593 750 606.5 c 128,-1,42
 743 620 743 620 727 620 c 0,43,44
 716 620 716 620 705 614 c 128,-1,45
 694 608 694 608 677.5 593.5 c 128,-1,46
 661 579 661 579 632 552 c 2,47,-1
 422 353 l 1,48,-1
 469 449 l 1,49,-1
 750 104 l 2,50,51
 758 95 758 95 766.5 90.5 c 128,-1,52
 775 86 775 86 785 84.5 c 128,-1,53
 795 83 795 83 806 83 c 2,54,-1
 819 83 l 1,55,-1
 819 0 l 1,56,-1
 470 0 l 1,57,-1
 470 83 l 1,58,-1
 477 83 l 2,59,60
 494 83 494 83 508 84 c 128,-1,61
 522 85 522 85 531 87.5 c 128,-1,62
 540 90 540 90 540 93 c 2,63,-1
 333 348 l 1,64,-1
 333 372 l 1,65,-1
 573 600 l 2,66,67
 607 634 607 634 632 656.5 c 128,-1,68
 657 679 657 679 678 693 c 128,-1,69
 699 707 699 707 718.5 713 c 128,-1,70
 738 719 738 719 762 719 c 0,28,29
EndSplineSet
EndChar

StartChar: Yhook
Encoding: 435 435 239
Width: 833
GlyphClass: 2
Flags: W
AnchorPoint: "Anchor-1" 391 0 basechar 0
AnchorPoint: "Anchor-0" 425 741 basechar 0
LayerCount: 2
Fore
SplineSet
556 597 m 2,0,1
 579 639 579 639 602.5 665.5 c 128,-1,2
 626 692 626 692 654 705.5 c 128,-1,3
 682 719 682 719 718 719 c 0,4,5
 763 719 763 719 790 700 c 128,-1,6
 817 681 817 681 829.5 648.5 c 128,-1,7
 842 616 842 616 842 575 c 0,8,9
 842 540 842 540 837 504.5 c 128,-1,10
 832 469 832 469 826 450 c 1,11,-1
 704 450 l 1,12,13
 710 464 710 464 714.5 482.5 c 128,-1,14
 719 501 719 501 722.5 521.5 c 128,-1,15
 726 542 726 542 726 562 c 0,16,17
 726 591 726 591 717.5 605 c 128,-1,18
 709 619 709 619 690 619 c 0,19,20
 679 619 679 619 669.5 612.5 c 128,-1,21
 660 606 660 606 649 592.5 c 128,-1,22
 638 579 638 579 624 555 c 2,23,-1
 445 243 l 1,24,-1
 463 293 l 1,25,-1
 463 119 l 2,26,27
 463 97 463 97 482.5 90 c 128,-1,28
 502 83 502 83 530 83 c 2,29,-1
 549 83 l 1,30,-1
 549 0 l 1,31,-1
 198 0 l 1,32,-1
 198 83 l 1,33,-1
 217 83 l 2,34,35
 245 83 245 83 264.5 90 c 128,-1,36
 284 97 284 97 284 119 c 2,37,-1
 284 293 l 1,38,-1
 296 249 l 1,39,-1
 105 575 l 2,40,41
 94 594 94 594 84 605.5 c 128,-1,42
 74 617 74 617 62.5 622 c 128,-1,43
 51 627 51 627 35 627 c 2,44,-1
 26 627 l 1,45,-1
 26 710 l 1,46,-1
 344 710 l 1,47,-1
 344 627 l 1,48,-1
 332 627 l 2,49,50
 313 627 313 627 299 625.5 c 128,-1,51
 285 624 285 624 277.5 622 c 128,-1,52
 270 620 270 620 270 616 c 2,53,-1
 439 304 l 1,54,-1
 392 297 l 1,55,-1
 556 597 l 2,0,1
EndSplineSet
EndChar

StartChar: Germandbls
Encoding: 7838 7838 240
Width: 907
GlyphClass: 1
Flags: W
LayerCount: 2
Fore
SplineSet
594 69 m 0,0,1
 625 69 625 69 641.5 80.5 c 128,-1,2
 658 92 658 92 664.5 117.5 c 128,-1,3
 671 143 671 143 671 186 c 0,4,5
 671 227 671 227 662.5 253.5 c 128,-1,6
 654 280 654 280 633.5 297.5 c 128,-1,7
 613 315 613 315 577.5 329.5 c 128,-1,8
 542 344 542 344 487 362 c 1,9,-1
 487 441 l 1,10,-1
 636 638 l 1,11,-1
 661 625 l 1,12,-1
 440 625 l 2,13,14
 392 625 392 625 363 614.5 c 128,-1,15
 334 604 334 604 318 583.5 c 128,-1,16
 302 563 302 563 296.5 533.5 c 128,-1,17
 291 504 291 504 291 464 c 2,18,-1
 291 0 l 1,19,-1
 39 0 l 1,20,-1
 39 83 l 1,21,-1
 50 83 l 2,22,23
 77 83 77 83 95 90 c 128,-1,24
 113 97 113 97 113 119 c 2,25,-1
 113 466 l 2,26,27
 113 523 113 523 126.5 567.5 c 128,-1,28
 140 612 140 612 170.5 644 c 128,-1,29
 201 676 201 676 252 693 c 128,-1,30
 303 710 303 710 377 710 c 2,31,-1
 781 710 l 1,32,-1
 781 596 l 1,33,-1
 607 376 l 1,34,-1
 586 420 l 1,35,36
 653 399 653 399 704 379.5 c 128,-1,37
 755 360 755 360 790 335 c 128,-1,38
 825 310 825 310 842.5 274 c 128,-1,39
 860 238 860 238 860 184 c 0,40,41
 860 120 860 120 838.5 75.5 c 128,-1,42
 817 31 817 31 769.5 8.5 c 128,-1,43
 722 -14 722 -14 646 -14 c 0,44,45
 578 -14 578 -14 538 6 c 128,-1,46
 498 26 498 26 480 69 c 128,-1,47
 462 112 462 112 456 180 c 1,48,-1
 480 134 l 1,49,-1
 465 0 l 1,50,-1
 384 0 l 1,51,-1
 384 222 l 1,52,-1
 477 222 l 1,53,54
 482 187 482 187 490 159 c 128,-1,55
 498 131 498 131 511 111 c 128,-1,56
 524 91 524 91 544 80 c 128,-1,57
 564 69 564 69 594 69 c 0,0,1
EndSplineSet
EndChar

StartChar: Delta
Encoding: 916 916 241
Width: 775
GlyphClass: 1
Flags: W
LayerCount: 2
Fore
SplineSet
46 0 m 1,0,-1
 46 135 l 1,1,-1
 314 710 l 1,2,-1
 462 710 l 1,3,-1
 729 135 l 1,4,-1
 729 0 l 1,5,-1
 46 0 l 1,0,-1
578 94 m 1,6,-1
 331 650 l 1,7,-1
 385 688 l 1,8,-1
 111 94 l 1,9,-1
 77 136 l 1,10,-1
 668 136 l 1,11,-1
 578 94 l 1,6,-1
EndSplineSet
EndChar

StartChar: Omega
Encoding: 937 937 242
Width: 918
GlyphClass: 1
Flags: W
LayerCount: 2
Fore
SplineSet
459 735 m 256,0,1
 364 735 364 735 295 717.5 c 128,-1,2
 226 700 226 700 182.5 666.5 c 128,-1,3
 139 633 139 633 118.5 585 c 128,-1,4
 98 537 98 537 98 477 c 0,5,6
 98 436 98 436 110.5 401 c 128,-1,7
 123 366 123 366 146.5 332 c 128,-1,8
 170 298 170 298 204 261.5 c 128,-1,9
 238 225 238 225 281 183 c 128,-1,10
 324 141 324 141 374 88 c 1,11,-1
 386 118 l 1,12,-1
 262 118 l 2,13,14
 222 118 222 118 197.5 121.5 c 128,-1,15
 173 125 173 125 161 134.5 c 128,-1,16
 149 144 149 144 146 162 c 2,17,-1
 135 232 l 1,18,-1
 59 232 l 1,19,-1
 59 0 l 1,20,-1
 406 0 l 1,21,-1
 406 144 l 1,22,23
 375 188 375 188 349 223.5 c 128,-1,24
 323 259 323 259 304 293.5 c 128,-1,25
 285 328 285 328 274.5 370 c 128,-1,26
 264 412 264 412 264 469 c 0,27,28
 264 536 264 536 285 575.5 c 128,-1,29
 306 615 306 615 349 632 c 128,-1,30
 392 649 392 649 459 649 c 256,31,32
 526 649 526 649 569 632 c 128,-1,33
 612 615 612 615 633 575.5 c 128,-1,34
 654 536 654 536 654 469 c 0,35,36
 654 412 654 412 643.5 370 c 128,-1,37
 633 328 633 328 613.5 293.5 c 128,-1,38
 594 259 594 259 568.5 223.5 c 128,-1,39
 543 188 543 188 511 144 c 1,40,-1
 511 0 l 1,41,-1
 859 0 l 1,42,-1
 859 232 l 1,43,-1
 783 232 l 1,44,-1
 771 162 l 2,45,46
 768 144 768 144 756.5 134.5 c 128,-1,47
 745 125 745 125 720.5 121.5 c 128,-1,48
 696 118 696 118 655 118 c 2,49,-1
 532 118 l 1,50,-1
 543 88 l 1,51,52
 594 141 594 141 637 183 c 128,-1,53
 680 225 680 225 713.5 261.5 c 128,-1,54
 747 298 747 298 771 332 c 128,-1,55
 795 366 795 366 807.5 401 c 128,-1,56
 820 436 820 436 820 477 c 0,57,58
 820 537 820 537 799 585 c 128,-1,59
 778 633 778 633 734.5 666.5 c 128,-1,60
 691 700 691 700 622.5 717.5 c 128,-1,61
 554 735 554 735 459 735 c 256,0,1
EndSplineSet
EndChar

StartChar: Djecyr
Encoding: 1026 1026 244
Width: 934
GlyphClass: 2
Flags: W
AnchorPoint: "Anchor-0" 364 741 basechar 0
LayerCount: 2
Fore
SplineSet
887 198 m 0,0,1
 887 141 887 141 868.5 99 c 128,-1,2
 850 57 850 57 814 29.5 c 128,-1,3
 778 2 778 2 724.5 -11.5 c 128,-1,4
 671 -25 671 -25 601 -25 c 1,5,-1
 601 58 l 1,6,7
 635 58 635 58 657.5 72.5 c 128,-1,8
 680 87 680 87 692 118 c 128,-1,9
 704 149 704 149 704 198 c 0,10,11
 704 261 704 261 671.5 296 c 128,-1,12
 639 331 639 331 573 331 c 0,13,14
 534 331 534 331 501.5 323.5 c 128,-1,15
 469 316 469 316 434 298 c 1,16,-1
 434 376 l 1,17,18
 470 393 470 393 521 404 c 128,-1,19
 572 415 572 415 634 415 c 0,20,21
 716 415 716 415 772.5 391 c 128,-1,22
 829 367 829 367 858 319 c 128,-1,23
 887 271 887 271 887 198 c 0,0,1
194 0 m 1,24,-1
 194 83 l 1,25,-1
 213 83 l 2,26,27
 241 83 241 83 261 90 c 128,-1,28
 281 97 281 97 281 119 c 2,29,-1
 281 627 l 1,30,-1
 263 627 l 2,31,32
 220 627 220 627 195.5 621 c 128,-1,33
 171 615 171 615 160.5 603 c 128,-1,34
 150 591 150 591 148 573 c 2,35,-1
 136 430 l 1,36,-1
 44 430 l 1,37,-1
 44 710 l 1,38,-1
 731 710 l 1,39,-1
 731 480 l 1,40,-1
 639 480 l 1,41,-1
 627 573 l 2,42,43
 624 591 624 591 613.5 603 c 128,-1,44
 603 615 603 615 579 621 c 128,-1,45
 555 627 555 627 512 627 c 2,46,-1
 460 627 l 1,47,-1
 460 93 l 2,48,49
 460 90 460 90 468.5 87.5 c 128,-1,50
 477 85 477 85 490.5 84 c 128,-1,51
 504 83 504 83 518 83 c 2,52,-1
 533 83 l 1,53,-1
 533 0 l 1,54,-1
 194 0 l 1,24,-1
EndSplineSet
EndChar

StartChar: Eukrcyr
Encoding: 1028 1028 245
Width: 780
GlyphClass: 2
Flags: W
AnchorPoint: "Anchor-1" 405 0 basechar 0
AnchorPoint: "Anchor-0" 405 741 basechar 0
LayerCount: 2
Fore
SplineSet
219 402 m 1,0,1
 245 403 245 403 270.5 405 c 128,-1,2
 296 407 296 407 321.5 408.5 c 128,-1,3
 347 410 347 410 373 412 c 128,-1,4
 399 414 399 414 424.5 415.5 c 128,-1,5
 450 417 450 417 475.5 419 c 128,-1,6
 501 421 501 421 527 422 c 1,7,-1
 527 308 l 1,8,9
 501 310 501 310 475.5 312 c 128,-1,10
 450 314 450 314 424.5 315.5 c 128,-1,11
 399 317 399 317 373 318.5 c 128,-1,12
 347 320 347 320 321.5 321.5 c 128,-1,13
 296 323 296 323 270.5 325 c 128,-1,14
 245 327 245 327 219 328 c 1,15,-1
 219 402 l 1,0,1
420 648 m 0,16,17
 371 648 371 648 336.5 632.5 c 128,-1,18
 302 617 302 617 280 582 c 128,-1,19
 258 547 258 547 247 491 c 128,-1,20
 236 435 236 435 236 355 c 0,21,22
 236 273 236 273 247.5 216.5 c 128,-1,23
 259 160 259 160 282.5 126 c 128,-1,24
 306 92 306 92 342.5 77 c 128,-1,25
 379 62 379 62 430 62 c 0,26,27
 497 62 497 62 539.5 85.5 c 128,-1,28
 582 109 582 109 608 151 c 128,-1,29
 634 193 634 193 651 249 c 1,30,-1
 727 212 l 1,31,32
 705 136 705 136 664.5 83.5 c 128,-1,33
 624 31 624 31 562 3 c 128,-1,34
 500 -25 500 -25 410 -25 c 0,35,36
 328 -25 328 -25 262 -2 c 128,-1,37
 196 21 196 21 148.5 68.5 c 128,-1,38
 101 116 101 116 75.5 187.5 c 128,-1,39
 50 259 50 259 50 355 c 0,40,41
 50 454 50 454 76 525.5 c 128,-1,42
 102 597 102 597 149 643 c 128,-1,43
 196 689 196 689 260 712 c 128,-1,44
 324 735 324 735 399 735 c 256,45,46
 474 735 474 735 525.5 705.5 c 128,-1,47
 577 676 577 676 606.5 621 c 128,-1,48
 636 566 636 566 644 488 c 1,49,-1
 613 539 l 1,50,-1
 631 720 l 1,51,-1
 716 720 l 1,52,-1
 716 460 l 1,53,-1
 616 460 l 1,54,55
 601 518 601 518 575 560.5 c 128,-1,56
 549 603 549 603 510.5 625.5 c 128,-1,57
 472 648 472 648 420 648 c 0,16,17
EndSplineSet
Substitution2: "'ss01' Style Set 1 lookup 61 subtable" Ieukran.alt1
EndChar

StartChar: Yukrcyr
Encoding: 1031 1031 248
Width: 436
GlyphClass: 2
Flags: W
AnchorPoint: "Anchor-1" 219 0 basechar 0
AnchorPoint: "Anchor-0" 219 960 basechar 0
LayerCount: 2
Fore
SplineSet
194 881 m 256,0,1
 194 836 194 836 171 814.5 c 128,-1,2
 148 793 148 793 108 793 c 0,3,4
 69 793 69 793 46.5 814.5 c 128,-1,5
 24 836 24 836 24 881 c 256,6,7
 24 926 24 926 46.5 948 c 128,-1,8
 69 970 69 970 108 970 c 0,9,10
 148 970 148 970 171 948 c 128,-1,11
 194 926 194 926 194 881 c 256,0,1
412 881 m 256,12,13
 412 836 412 836 389.5 814.5 c 128,-1,14
 367 793 367 793 328 793 c 0,15,16
 288 793 288 793 265.5 814.5 c 128,-1,17
 243 836 243 836 243 881 c 256,18,19
 243 926 243 926 265.5 948 c 128,-1,20
 288 970 288 970 328 970 c 0,21,22
 367 970 367 970 389.5 948 c 128,-1,23
 412 926 412 926 412 881 c 256,12,13
129 119 m 2,24,-1
 129 591 l 2,25,26
 129 613 129 613 111 620 c 128,-1,27
 93 627 93 627 65 627 c 2,28,-1
 46 627 l 1,29,-1
 46 710 l 1,30,-1
 391 710 l 1,31,-1
 391 627 l 1,32,-1
 371 627 l 2,33,34
 343 627 343 627 325 620 c 128,-1,35
 307 613 307 613 307 591 c 2,36,-1
 307 119 l 2,37,38
 307 97 307 97 325 90 c 128,-1,39
 343 83 343 83 371 83 c 2,40,-1
 391 83 l 1,41,-1
 391 0 l 1,42,-1
 46 0 l 1,43,-1
 46 83 l 1,44,-1
 65 83 l 2,45,46
 93 83 93 83 111 90 c 128,-1,47
 129 97 129 97 129 119 c 2,24,-1
EndSplineSet
EndChar

StartChar: Ljecyr
Encoding: 1033 1033 250
Width: 1096
GlyphClass: 2
Flags: W
AnchorPoint: "Anchor-0" 438 741 basechar 0
LayerCount: 2
Fore
SplineSet
252 710 m 1,0,-1
 569 710 l 1,1,-1
 569 627 l 1,2,-1
 252 627 l 1,3,-1
 252 710 l 1,0,-1
183 316 m 2,4,-1
 198 591 l 2,5,6
 199 613 199 613 181 620 c 128,-1,7
 163 627 163 627 135 627 c 2,8,-1
 124 627 l 1,9,-1
 124 710 l 1,10,-1
 299 710 l 1,11,-1
 279 316 l 2,12,13
 274 201 274 201 253 128 c 128,-1,14
 232 55 232 55 191 20 c 128,-1,15
 150 -15 150 -15 86 -15 c 0,16,17
 61 -15 61 -15 44.5 -10 c 128,-1,18
 28 -5 28 -5 18 0 c 1,19,-1
 18 162 l 1,20,21
 26 159 26 159 42 153 c 128,-1,22
 58 147 58 147 83 147 c 0,23,24
 117 147 117 147 138 165 c 128,-1,25
 159 183 159 183 170 220.5 c 128,-1,26
 181 258 181 258 183 316 c 2,4,-1
804 0 m 2,27,-1
 414 0 l 1,28,-1
 414 83 l 1,29,-1
 422 83 l 2,30,31
 436 83 436 83 450 84 c 128,-1,32
 464 85 464 85 473.5 87.5 c 128,-1,33
 483 90 483 90 483 93 c 2,34,-1
 483 710 l 1,35,-1
 739 710 l 1,36,-1
 739 627 l 1,37,-1
 725 627 l 2,38,39
 697 627 697 627 679 620 c 128,-1,40
 661 613 661 613 661 591 c 2,41,-1
 661 83 l 1,42,-1
 775 83 l 2,43,44
 809 83 809 83 833 97 c 128,-1,45
 857 111 857 111 869 141 c 128,-1,46
 881 171 881 171 881 217 c 0,47,48
 881 265 881 265 869 295 c 128,-1,49
 857 325 857 325 832.5 339.5 c 128,-1,50
 808 354 808 354 772 354 c 2,51,-1
 633 354 l 1,52,-1
 633 437 l 1,53,-1
 807 437 l 2,54,55
 886 437 886 437 942 413.5 c 128,-1,56
 998 390 998 390 1027.5 341.5 c 128,-1,57
 1057 293 1057 293 1057 218 c 0,58,59
 1057 150 1057 150 1026 101 c 128,-1,60
 995 52 995 52 938 26 c 128,-1,61
 881 0 881 0 804 0 c 2,27,-1
EndSplineSet
EndChar

StartChar: Njecyr
Encoding: 1034 1034 251
Width: 1154
GlyphClass: 2
Flags: W
AnchorPoint: "Anchor-0" 427 741 basechar 0
LayerCount: 2
Fore
SplineSet
210 429 m 1,0,-1
 603 429 l 1,1,-1
 603 346 l 1,2,-1
 210 346 l 1,3,-1
 210 429 l 1,0,-1
46 0 m 1,4,-1
 46 83 l 1,5,-1
 56 83 l 2,6,7
 84 83 84 83 102 90 c 128,-1,8
 120 97 120 97 120 119 c 2,9,-1
 120 591 l 2,10,11
 120 613 120 613 102 620 c 128,-1,12
 84 627 84 627 56 627 c 2,13,-1
 46 627 l 1,14,-1
 46 710 l 1,15,-1
 368 710 l 1,16,-1
 368 627 l 1,17,-1
 359 627 l 2,18,19
 347 627 347 627 332.5 626 c 128,-1,20
 318 625 318 625 308 623 c 128,-1,21
 298 621 298 621 298 617 c 2,22,-1
 298 92 l 2,23,24
 298 90 298 90 308 87.5 c 128,-1,25
 318 85 318 85 332.5 84 c 128,-1,26
 347 83 347 83 360 83 c 2,27,-1
 368 83 l 1,28,-1
 368 0 l 1,29,-1
 46 0 l 1,4,-1
471 0 m 1,30,-1
 471 83 l 1,31,-1
 479 83 l 2,32,33
 493 83 493 83 507 84 c 128,-1,34
 521 85 521 85 531 87.5 c 128,-1,35
 541 90 541 90 541 93 c 2,36,-1
 541 618 l 2,37,38
 541 621 541 621 531 623 c 128,-1,39
 521 625 521 625 507 626 c 128,-1,40
 493 627 493 627 479 627 c 2,41,-1
 471 627 l 1,42,-1
 471 710 l 1,43,-1
 801 710 l 1,44,-1
 801 627 l 1,45,-1
 782 627 l 2,46,47
 764 627 764 627 749.5 624 c 128,-1,48
 735 621 735 621 727 613.5 c 128,-1,49
 719 606 719 606 719 591 c 2,50,-1
 719 83 l 1,51,-1
 833 83 l 2,52,53
 867 83 867 83 891 96.5 c 128,-1,54
 915 110 915 110 927 139 c 128,-1,55
 939 168 939 168 939 214 c 0,56,57
 939 259 939 259 926.5 288.5 c 128,-1,58
 914 318 914 318 890 332 c 128,-1,59
 866 346 866 346 830 346 c 2,60,-1
 661 346 l 1,61,-1
 661 429 l 1,62,-1
 865 429 l 2,63,64
 944 429 944 429 1000 405.5 c 128,-1,65
 1056 382 1056 382 1085.5 334.5 c 128,-1,66
 1115 287 1115 287 1115 213 c 0,67,68
 1115 147 1115 147 1084 99 c 128,-1,69
 1053 51 1053 51 996 25.5 c 128,-1,70
 939 0 939 0 862 0 c 2,71,-1
 471 0 l 1,30,-1
EndSplineSet
EndChar

StartChar: Tshecyr
Encoding: 1035 1035 252
Width: 978
GlyphClass: 2
Flags: W
AnchorPoint: "Anchor-0" 353 741 basechar 0
LayerCount: 2
Fore
SplineSet
637 415 m 0,0,1
 716 415 716 415 768 394.5 c 128,-1,2
 820 374 820 374 846 329 c 128,-1,3
 872 284 872 284 872 210 c 2,4,-1
 872 119 l 2,5,6
 872 97 872 97 890 90 c 128,-1,7
 908 83 908 83 936 83 c 2,8,-1
 947 83 l 1,9,-1
 947 0 l 1,10,-1
 694 0 l 1,11,-1
 694 202 l 2,12,13
 694 250 694 250 683 278 c 128,-1,14
 672 306 672 306 646.5 318.5 c 128,-1,15
 621 331 621 331 577 331 c 0,16,17
 540 331 540 331 504 324 c 128,-1,18
 468 317 468 317 434 298 c 1,19,-1
 434 376 l 1,20,21
 472 394 472 394 524.5 404.5 c 128,-1,22
 577 415 577 415 637 415 c 0,0,1
194 0 m 1,23,-1
 194 83 l 1,24,-1
 213 83 l 2,25,26
 241 83 241 83 261 90 c 128,-1,27
 281 97 281 97 281 119 c 2,28,-1
 281 626 l 1,29,-1
 263 626 l 2,30,31
 220 626 220 626 195.5 620.5 c 128,-1,32
 171 615 171 615 160.5 603 c 128,-1,33
 150 591 150 591 148 573 c 2,34,-1
 136 430 l 1,35,-1
 44 430 l 1,36,-1
 44 710 l 1,37,-1
 731 710 l 1,38,-1
 731 480 l 1,39,-1
 639 480 l 1,40,-1
 627 573 l 2,41,42
 625 591 625 591 614 603 c 128,-1,43
 603 615 603 615 579 620.5 c 128,-1,44
 555 626 555 626 512 626 c 2,45,-1
 460 626 l 1,46,-1
 460 93 l 2,47,48
 460 90 460 90 470 87.5 c 128,-1,49
 480 85 480 85 495.5 84 c 128,-1,50
 511 83 511 83 525 83 c 2,51,-1
 547 83 l 1,52,-1
 547 0 l 1,53,-1
 194 0 l 1,23,-1
EndSplineSet
EndChar

StartChar: Dzhecyr
Encoding: 1039 1039 253
Width: 853
GlyphClass: 2
Flags: W
AnchorPoint: "Anchor-0" 427 741 basechar 0
LayerCount: 2
Fore
SplineSet
46 710 m 1,0,-1
 368 710 l 1,1,-1
 368 627 l 1,2,-1
 359 627 l 2,3,4
 347 627 347 627 332.5 626 c 128,-1,5
 318 625 318 625 308 623 c 128,-1,6
 298 621 298 621 298 617 c 2,7,-1
 298 0 l 1,8,-1
 46 0 l 1,9,-1
 46 83 l 1,10,-1
 56 83 l 2,11,12
 84 83 84 83 102 90 c 128,-1,13
 120 97 120 97 120 119 c 2,14,-1
 120 591 l 2,15,16
 120 613 120 613 102 620 c 128,-1,17
 84 627 84 627 56 627 c 2,18,-1
 46 627 l 1,19,-1
 46 710 l 1,0,-1
485 710 m 1,20,-1
 807 710 l 1,21,-1
 807 627 l 1,22,-1
 796 627 l 2,23,24
 769 627 769 627 751 620 c 128,-1,25
 733 613 733 613 733 591 c 2,26,-1
 733 119 l 2,27,28
 733 97 733 97 751 90 c 128,-1,29
 769 83 769 83 796 83 c 2,30,-1
 807 83 l 1,31,-1
 807 0 l 1,32,-1
 555 0 l 1,33,-1
 555 617 l 2,34,35
 555 621 555 621 545 623 c 128,-1,36
 535 625 535 625 521 626 c 128,-1,37
 507 627 507 627 493 627 c 2,38,-1
 485 627 l 1,39,-1
 485 710 l 1,20,-1
211 0 m 1,40,-1
 211 83 l 1,41,-1
 642 83 l 1,42,-1
 642 0 l 1,43,-1
 598 0 l 2,44,45
 555 0 555 0 530.5 -5.5 c 128,-1,46
 506 -11 506 -11 496 -23 c 128,-1,47
 486 -35 486 -35 484 -53 c 2,48,-1
 472 -189 l 1,49,-1
 381 -189 l 1,50,-1
 369 -53 l 2,51,52
 368 -35 368 -35 357.5 -23 c 128,-1,53
 347 -11 347 -11 322.5 -5.5 c 128,-1,54
 298 0 298 0 254 0 c 2,55,-1
 211 0 l 1,40,-1
EndSplineSet
EndChar

StartChar: Becyr
Encoding: 1041 1041 257
Width: 748
GlyphClass: 2
Flags: W
AnchorPoint: "Anchor-0" 381 741 basechar 0
LayerCount: 2
Fore
SplineSet
46 710 m 1,0,-1
 645 710 l 1,1,-1
 645 502 l 1,2,-1
 555 502 l 1,3,-1
 544 583 l 2,4,5
 542 601 542 601 529.5 610.5 c 128,-1,6
 517 620 517 620 494.5 623.5 c 128,-1,7
 472 627 472 627 438 627 c 2,8,-1
 298 627 l 1,9,-1
 298 83 l 1,10,-1
 411 83 l 2,11,12
 446 83 446 83 469.5 96 c 128,-1,13
 493 109 493 109 505 137 c 128,-1,14
 517 165 517 165 517 210 c 256,15,16
 517 255 517 255 505 283 c 128,-1,17
 493 311 493 311 469 324.5 c 128,-1,18
 445 338 445 338 408 338 c 2,19,-1
 270 338 l 1,20,-1
 270 421 l 1,21,-1
 445 421 l 2,22,23
 525 421 525 421 582.5 398 c 128,-1,24
 640 375 640 375 670.5 328 c 128,-1,25
 701 281 701 281 701 210 c 0,26,27
 701 144 701 144 669.5 97 c 128,-1,28
 638 50 638 50 579.5 25 c 128,-1,29
 521 0 521 0 442 0 c 2,30,-1
 46 0 l 1,31,-1
 46 77 l 1,32,-1
 56 77 l 2,33,34
 84 77 84 77 101.5 84 c 128,-1,35
 119 91 119 91 119 113 c 2,36,-1
 119 597 l 2,37,38
 119 619 119 619 101.5 626 c 128,-1,39
 84 633 84 633 56 633 c 2,40,-1
 46 633 l 1,41,-1
 46 710 l 1,0,-1
EndSplineSet
EndChar

StartChar: Gecyr
Encoding: 1043 1043 259
Width: 681
GlyphClass: 2
Flags: W
AnchorPoint: "Anchor-0" 347 741 basechar 0
LayerCount: 2
Fore
SplineSet
298 627 m 1,0,-1
 298 119 l 2,1,2
 298 105 298 105 306.5 97 c 128,-1,3
 315 89 315 89 329 86 c 128,-1,4
 343 83 343 83 362 83 c 2,5,-1
 393 83 l 1,6,-1
 393 0 l 1,7,-1
 46 0 l 1,8,-1
 46 83 l 1,9,-1
 57 83 l 2,10,11
 84 83 84 83 102 90 c 128,-1,12
 120 97 120 97 120 119 c 2,13,-1
 120 591 l 2,14,15
 120 613 120 613 102 620 c 128,-1,16
 84 627 84 627 57 627 c 2,17,-1
 46 627 l 1,18,-1
 46 710 l 1,19,-1
 638 710 l 1,20,-1
 638 430 l 1,21,-1
 546 430 l 1,22,-1
 534 573 l 2,23,24
 532 592 532 592 520.5 604 c 128,-1,25
 509 616 509 616 487 621.5 c 128,-1,26
 465 627 465 627 431 627 c 2,27,-1
 298 627 l 1,0,-1
EndSplineSet
EndChar

StartChar: Decyr
Encoding: 1044 1044 261
Width: 832
GlyphClass: 2
Flags: W
AnchorPoint: "Anchor-0" 450 741 basechar 0
LayerCount: 2
Fore
SplineSet
241 710 m 1,0,-1
 583 710 l 1,1,-1
 583 627 l 1,2,-1
 241 627 l 1,3,-1
 241 710 l 1,0,-1
700 45 m 1,4,-1
 522 45 l 1,5,-1
 522 710 l 1,6,-1
 774 710 l 1,7,-1
 774 627 l 1,8,-1
 763 627 l 2,9,10
 736 627 736 627 718 620 c 128,-1,11
 700 613 700 613 700 591 c 2,12,-1
 700 45 l 1,4,-1
695 -53 m 2,13,14
 694 -35 694 -35 683 -23 c 128,-1,15
 672 -11 672 -11 647.5 -5.5 c 128,-1,16
 623 0 623 0 579 0 c 2,17,-1
 240 0 l 2,18,19
 197 0 197 0 172.5 -5.5 c 128,-1,20
 148 -11 148 -11 137.5 -23 c 128,-1,21
 127 -35 127 -35 125 -53 c 2,22,-1
 112 -189 l 1,23,-1
 20 -189 l 1,24,-1
 20 83 l 1,25,-1
 799 83 l 1,26,-1
 799 -189 l 1,27,-1
 707 -189 l 1,28,-1
 695 -53 l 2,13,14
192 50 m 1,29,-1
 78 50 l 1,30,31
 100 80 100 80 117 111 c 128,-1,32
 134 142 134 142 146.5 181 c 128,-1,33
 159 220 159 220 167 272 c 128,-1,34
 175 324 175 324 178 395 c 2,35,-1
 188 591 l 2,36,37
 189 613 189 613 171 620 c 128,-1,38
 153 627 153 627 125 627 c 2,39,-1
 114 627 l 1,40,-1
 114 710 l 1,41,-1
 289 710 l 1,42,-1
 273 392 l 2,43,44
 269 297 269 297 258 233 c 128,-1,45
 247 169 247 169 230.5 126.5 c 128,-1,46
 214 84 214 84 192 50 c 1,29,-1
EndSplineSet
Substitution2: "'locl' Localized Forms in Cyrillic lookup 12 subtable" De.bgr
EndChar

StartChar: Zhecyr
Encoding: 1046 1046 266
Width: 1233
GlyphClass: 2
Flags: W
AnchorPoint: "Anchor-1" 605 0 basechar 0
AnchorPoint: "Anchor-0" 605 741 basechar 0
LayerCount: 2
Fore
SplineSet
861 0 m 1,0,-1
 861 83 l 1,1,-1
 868 83 l 2,2,3
 885 83 885 83 899.5 84 c 128,-1,4
 914 85 914 85 923 87.5 c 128,-1,5
 932 90 932 90 932 93 c 2,6,-1
 737 348 l 1,7,-1
 737 372 l 1,8,-1
 981 616 l 2,9,10
 981 620 981 620 969 622 c 128,-1,11
 957 624 957 624 938.5 625.5 c 128,-1,12
 920 627 920 627 902 627 c 2,13,-1
 887 627 l 1,14,-1
 887 710 l 1,15,-1
 1177 710 l 1,16,-1
 1177 627 l 1,17,-1
 1152 627 l 2,18,19
 1135 627 1135 627 1122 624.5 c 128,-1,20
 1109 622 1109 622 1097 616 c 128,-1,21
 1085 610 1085 610 1074 598 c 2,22,-1
 830 356 l 1,23,-1
 873 449 l 1,24,-1
 1137 104 l 2,25,26
 1145 95 1145 95 1153.5 90.5 c 128,-1,27
 1162 86 1162 86 1172 84.5 c 128,-1,28
 1182 83 1182 83 1193 83 c 2,29,-1
 1207 83 l 1,30,-1
 1207 0 l 1,31,-1
 861 0 l 1,0,-1
364 0 m 1,32,-1
 26 0 l 1,33,-1
 26 83 l 1,34,-1
 40 83 l 2,35,36
 52 83 52 83 61.5 84.5 c 128,-1,37
 71 86 71 86 79.5 90.5 c 128,-1,38
 88 95 88 95 96 104 c 2,39,-1
 360 449 l 1,40,-1
 391 356 l 1,41,-1
 147 598 l 2,42,43
 137 610 137 610 124.5 616 c 128,-1,44
 112 622 112 622 98.5 624.5 c 128,-1,45
 85 627 85 627 69 627 c 2,46,-1
 44 627 l 1,47,-1
 44 710 l 1,48,-1
 338 710 l 1,49,-1
 338 627 l 1,50,-1
 323 627 l 2,51,52
 305 627 305 627 286.5 625.5 c 128,-1,53
 268 624 268 624 256 622 c 128,-1,54
 244 620 244 620 244 616 c 2,55,-1
 488 372 l 1,56,-1
 488 348 l 1,57,-1
 293 93 l 2,58,59
 293 90 293 90 302 87.5 c 128,-1,60
 311 85 311 85 325.5 84 c 128,-1,61
 340 83 340 83 357 83 c 2,62,-1
 364 83 l 1,63,-1
 364 0 l 1,32,-1
454 0 m 1,64,-1
 454 83 l 1,65,-1
 462 83 l 2,66,67
 472 83 472 83 483 83.5 c 128,-1,68
 494 84 494 84 503 85.5 c 128,-1,69
 512 87 512 87 517.5 88.5 c 128,-1,70
 523 90 523 90 523 93 c 2,71,-1
 523 618 l 2,72,73
 523 620 523 620 517.5 621.5 c 128,-1,74
 512 623 512 623 503 624.5 c 128,-1,75
 494 626 494 626 483 626.5 c 128,-1,76
 472 627 472 627 462 627 c 2,77,-1
 454 627 l 1,78,-1
 454 710 l 1,79,-1
 771 710 l 1,80,-1
 771 627 l 1,81,-1
 763 627 l 2,82,83
 753 627 753 627 742.5 626.5 c 128,-1,84
 732 626 732 626 722.5 624.5 c 128,-1,85
 713 623 713 623 707.5 621.5 c 128,-1,86
 702 620 702 620 702 617 c 2,87,-1
 702 92 l 2,88,89
 702 90 702 90 707.5 88.5 c 128,-1,90
 713 87 713 87 722.5 85.5 c 128,-1,91
 732 84 732 84 742.5 83.5 c 128,-1,92
 753 83 753 83 763 83 c 2,93,-1
 771 83 l 1,94,-1
 771 0 l 1,95,-1
 454 0 l 1,64,-1
EndSplineSet
EndChar

StartChar: Zecyr
Encoding: 1047 1047 269
Width: 741
GlyphClass: 2
Flags: W
AnchorPoint: "Anchor-1" 400 0 basechar 0
AnchorPoint: "Anchor-0" 400 741 basechar 0
LayerCount: 2
Fore
SplineSet
416 -25 m 0,0,1
 338 -25 338 -25 279.5 0 c 128,-1,2
 221 25 221 25 186.5 76.5 c 128,-1,3
 152 128 152 128 143 206 c 1,4,-1
 175 161 l 1,5,-1
 156 -10 l 1,6,-1
 71 -10 l 1,7,-1
 71 240 l 1,8,-1
 171 240 l 1,9,10
 187 186 187 186 214.5 146 c 128,-1,11
 242 106 242 106 282 84 c 128,-1,12
 322 62 322 62 374 62 c 0,13,14
 416 62 416 62 444.5 75.5 c 128,-1,15
 473 89 473 89 488 118 c 128,-1,16
 503 147 503 147 503 192 c 0,17,18
 503 230 503 230 489.5 258.5 c 128,-1,19
 476 287 476 287 445.5 302 c 128,-1,20
 415 317 415 317 363 313 c 0,21,22
 349 312 349 312 334.5 311.5 c 128,-1,23
 320 311 320 311 305.5 309.5 c 128,-1,24
 291 308 291 308 278 307 c 1,25,-1
 278 421 l 1,26,27
 291 421 291 421 305 420 c 128,-1,28
 319 419 319 419 333 417.5 c 128,-1,29
 347 416 347 416 361 415 c 0,30,31
 407 412 407 412 433.5 427 c 128,-1,32
 460 442 460 442 471.5 470.5 c 128,-1,33
 483 499 483 499 483 537 c 0,34,35
 483 571 483 571 472 596.5 c 128,-1,36
 461 622 461 622 437 635.5 c 128,-1,37
 413 649 413 649 374 649 c 0,38,39
 324 649 324 649 285 628 c 128,-1,40
 246 607 246 607 219.5 567 c 128,-1,41
 193 527 193 527 178 470 c 1,42,-1
 78 470 l 1,43,-1
 78 720 l 1,44,-1
 163 720 l 1,45,-1
 182 549 l 1,46,-1
 150 498 l 1,47,48
 157 561 157 561 178.5 606 c 128,-1,49
 200 651 200 651 234 679.5 c 128,-1,50
 268 708 268 708 314 721.5 c 128,-1,51
 360 735 360 735 416 735 c 0,52,53
 498 735 498 735 553.5 712.5 c 128,-1,54
 609 690 609 690 637.5 649 c 128,-1,55
 666 608 666 608 666 551 c 0,56,57
 666 495 666 495 638.5 456 c 128,-1,58
 611 417 611 417 564 396.5 c 128,-1,59
 517 376 517 376 456 376 c 1,60,-1
 464 403 l 1,61,-1
 464 332 l 1,62,-1
 455 367 l 1,63,64
 525 367 525 367 577 346 c 128,-1,65
 629 325 629 325 657.5 284 c 128,-1,66
 686 243 686 243 686 184 c 0,67,68
 686 128 686 128 665 88 c 128,-1,69
 644 48 644 48 607.5 23 c 128,-1,70
 571 -2 571 -2 521.5 -13.5 c 128,-1,71
 472 -25 472 -25 416 -25 c 0,0,1
EndSplineSet
EndChar

StartChar: Icyr
Encoding: 1048 1048 270
Width: 877
GlyphClass: 2
Flags: W
AnchorPoint: "Anchor-0" 439 741 basechar 0
LayerCount: 2
Fore
SplineSet
237 195 m 1,0,-1
 579 576 l 1,1,-1
 640 525 l 1,2,-1
 298 143 l 1,3,-1
 237 195 l 1,0,-1
46 0 m 1,4,-1
 46 83 l 1,5,-1
 56 83 l 2,6,7
 84 83 84 83 102 90 c 128,-1,8
 120 97 120 97 120 119 c 2,9,-1
 120 591 l 2,10,11
 120 613 120 613 102 620 c 128,-1,12
 84 627 84 627 56 627 c 2,13,-1
 46 627 l 1,14,-1
 46 710 l 1,15,-1
 368 710 l 1,16,-1
 368 627 l 1,17,-1
 359 627 l 2,18,19
 347 627 347 627 332.5 626 c 128,-1,20
 318 625 318 625 308 623 c 128,-1,21
 298 621 298 621 298 617 c 2,22,-1
 298 92 l 2,23,24
 298 90 298 90 308 87.5 c 128,-1,25
 318 85 318 85 332.5 84 c 128,-1,26
 347 83 347 83 360 83 c 2,27,-1
 368 83 l 1,28,-1
 368 0 l 1,29,-1
 46 0 l 1,4,-1
509 0 m 1,30,-1
 509 83 l 1,31,-1
 517 83 l 2,32,33
 531 83 531 83 545 84 c 128,-1,34
 559 85 559 85 569 87.5 c 128,-1,35
 579 90 579 90 579 93 c 2,36,-1
 579 618 l 2,37,38
 579 621 579 621 569 623 c 128,-1,39
 559 625 559 625 545 626 c 128,-1,40
 531 627 531 627 517 627 c 2,41,-1
 509 627 l 1,42,-1
 509 710 l 1,43,-1
 831 710 l 1,44,-1
 831 627 l 1,45,-1
 820 627 l 2,46,47
 793 627 793 627 775 620 c 128,-1,48
 757 613 757 613 757 591 c 2,49,-1
 757 119 l 2,50,51
 757 97 757 97 775 90 c 128,-1,52
 793 83 793 83 820 83 c 2,53,-1
 831 83 l 1,54,-1
 831 0 l 1,55,-1
 509 0 l 1,30,-1
EndSplineSet
EndChar

StartChar: Elcyr
Encoding: 1051 1051 276
Width: 807
GlyphClass: 2
Flags: W
AnchorPoint: "Anchor-0" 444 741 basechar 0
LayerCount: 2
Fore
SplineSet
252 710 m 1,0,-1
 594 710 l 1,1,-1
 594 627 l 1,2,-1
 252 627 l 1,3,-1
 252 710 l 1,0,-1
439 0 m 1,4,-1
 439 83 l 1,5,-1
 448 83 l 2,6,7
 461 83 461 83 475 84 c 128,-1,8
 489 85 489 85 499 87.5 c 128,-1,9
 509 90 509 90 509 93 c 2,10,-1
 509 710 l 1,11,-1
 761 710 l 1,12,-1
 761 627 l 1,13,-1
 751 627 l 2,14,15
 723 627 723 627 705 620 c 128,-1,16
 687 613 687 613 687 591 c 2,17,-1
 687 119 l 2,18,19
 687 97 687 97 705 90 c 128,-1,20
 723 83 723 83 751 83 c 2,21,-1
 761 83 l 1,22,-1
 761 0 l 1,23,-1
 439 0 l 1,4,-1
183 316 m 2,24,-1
 198 591 l 2,25,26
 199 613 199 613 181 620 c 128,-1,27
 163 627 163 627 135 627 c 2,28,-1
 124 627 l 1,29,-1
 124 710 l 1,30,-1
 299 710 l 1,31,-1
 279 316 l 2,32,33
 274 201 274 201 253 128 c 128,-1,34
 232 55 232 55 191 20 c 128,-1,35
 150 -15 150 -15 86 -15 c 0,36,37
 61 -15 61 -15 44.5 -10 c 128,-1,38
 28 -5 28 -5 18 0 c 1,39,-1
 18 162 l 1,40,41
 26 159 26 159 42 153 c 128,-1,42
 58 147 58 147 84 147 c 0,43,44
 117 147 117 147 138 165 c 128,-1,45
 159 183 159 183 170 220.5 c 128,-1,46
 181 258 181 258 183 316 c 2,24,-1
EndSplineSet
Substitution2: "'locl' Localized Forms in Cyrillic lookup 12 subtable" El.bgr
EndChar

StartChar: Pecyr
Encoding: 1055 1055 281
Width: 853
GlyphClass: 2
Flags: W
AnchorPoint: "Anchor-0" 427 741 basechar 0
LayerCount: 2
Fore
SplineSet
206 710 m 1,0,-1
 627 710 l 1,1,-1
 627 627 l 1,2,-1
 206 627 l 1,3,-1
 206 710 l 1,0,-1
46 0 m 1,4,-1
 46 83 l 1,5,-1
 56 83 l 2,6,7
 84 83 84 83 102 90 c 128,-1,8
 120 97 120 97 120 119 c 2,9,-1
 120 591 l 2,10,11
 120 613 120 613 102 620 c 128,-1,12
 84 627 84 627 56 627 c 2,13,-1
 46 627 l 1,14,-1
 46 710 l 1,15,-1
 298 710 l 1,16,-1
 298 93 l 2,17,18
 298 90 298 90 308 87.5 c 128,-1,19
 318 85 318 85 332.5 84 c 128,-1,20
 347 83 347 83 360 83 c 2,21,-1
 368 83 l 1,22,-1
 368 0 l 1,23,-1
 46 0 l 1,4,-1
485 0 m 1,24,-1
 485 83 l 1,25,-1
 493 83 l 2,26,27
 507 83 507 83 521 84 c 128,-1,28
 535 85 535 85 545 87.5 c 128,-1,29
 555 90 555 90 555 93 c 2,30,-1
 555 710 l 1,31,-1
 807 710 l 1,32,-1
 807 627 l 1,33,-1
 796 627 l 2,34,35
 769 627 769 627 751 620 c 128,-1,36
 733 613 733 613 733 591 c 2,37,-1
 733 119 l 2,38,39
 733 97 733 97 751 90 c 128,-1,40
 769 83 769 83 796 83 c 2,41,-1
 807 83 l 1,42,-1
 807 0 l 1,43,-1
 485 0 l 1,24,-1
EndSplineSet
EndChar

StartChar: Ucyr
Encoding: 1059 1059 285
Width: 738
GlyphClass: 2
Flags: W
AnchorPoint: "Anchor-1" 243 0 basechar 0
AnchorPoint: "Anchor-0" 376 741 basechar 0
LayerCount: 2
Fore
SplineSet
436 193 m 2,0,1
 405 135 405 135 380.5 95 c 128,-1,2
 356 55 356 55 332.5 31 c 128,-1,3
 309 7 309 7 281 -4 c 128,-1,4
 253 -15 253 -15 217 -15 c 0,5,6
 191 -15 191 -15 171 -10 c 128,-1,7
 151 -5 151 -5 140 0 c 1,8,-1
 140 147 l 1,9,10
 153 141 153 141 178.5 134 c 128,-1,11
 204 127 204 127 234 127 c 0,12,13
 274 127 274 127 298 137 c 128,-1,14
 322 147 322 147 341.5 172 c 128,-1,15
 361 197 361 197 383 245 c 2,16,-1
 561 604 l 2,17,18
 561 611 561 611 553 616 c 128,-1,19
 545 621 545 621 531 624 c 128,-1,20
 517 627 517 627 498 627 c 2,21,-1
 488 627 l 1,22,-1
 488 710 l 1,23,-1
 711 710 l 1,24,-1
 711 627 l 1,25,-1
 702 627 l 2,26,27
 687 627 687 627 676 621 c 128,-1,28
 665 615 665 615 655 602.5 c 128,-1,29
 645 590 645 590 634 570 c 2,30,-1
 436 193 l 2,0,1
444 278 m 1,31,-1
 339 150 l 1,32,-1
 104 575 l 2,33,34
 93 594 93 594 83.5 605.5 c 128,-1,35
 74 617 74 617 62.5 622 c 128,-1,36
 51 627 51 627 35 627 c 2,37,-1
 26 627 l 1,38,-1
 26 710 l 1,39,-1
 344 710 l 1,40,-1
 344 627 l 1,41,-1
 332 627 l 2,42,43
 313 627 313 627 299 625.5 c 128,-1,44
 285 624 285 624 277.5 622 c 128,-1,45
 270 620 270 620 270 616 c 2,46,-1
 444 278 l 1,31,-1
EndSplineSet
EndChar

StartChar: Efcyr
Encoding: 1060 1060 290
Width: 1006
GlyphClass: 2
Flags: W
AnchorPoint: "Anchor-1" 504 0 basechar 0
AnchorPoint: "Anchor-0" 504 741 basechar 0
LayerCount: 2
Fore
SplineSet
414 88 m 2,0,-1
 414 622 l 2,1,2
 414 644 414 644 396 651 c 128,-1,3
 378 658 378 658 350 658 c 2,4,-1
 331 658 l 1,5,-1
 331 735 l 1,6,-1
 676 735 l 1,7,-1
 676 658 l 1,8,-1
 656 658 l 2,9,10
 628 658 628 658 610 651 c 128,-1,11
 592 644 592 644 592 622 c 2,12,-1
 592 88 l 2,13,14
 592 66 592 66 610 59 c 128,-1,15
 628 52 628 52 656 52 c 2,16,-1
 676 52 l 1,17,-1
 676 -25 l 1,18,-1
 331 -25 l 1,19,-1
 331 52 l 1,20,-1
 350 52 l 2,21,22
 378 52 378 52 396 59 c 128,-1,23
 414 66 414 66 414 88 c 2,0,-1
420 588 m 1,24,-1
 420 500 l 1,25,26
 347 500 347 500 304 484.5 c 128,-1,27
 261 469 261 469 242.5 437 c 128,-1,28
 224 405 224 405 224 357 c 0,29,30
 224 308 224 308 242.5 276.5 c 128,-1,31
 261 245 261 245 304 229.5 c 128,-1,32
 347 214 347 214 420 214 c 1,33,-1
 420 126 l 1,34,35
 288 126 288 126 203.5 152.5 c 128,-1,36
 119 179 119 179 78.5 231 c 128,-1,37
 38 283 38 283 38 357 c 256,38,39
 38 431 38 431 78.5 482.5 c 128,-1,40
 119 534 119 534 203.5 561 c 128,-1,41
 288 588 288 588 420 588 c 1,24,-1
586 126 m 1,42,-1
 586 214 l 1,43,44
 659 214 659 214 702 229.5 c 128,-1,45
 745 245 745 245 763.5 276.5 c 128,-1,46
 782 308 782 308 782 357 c 0,47,48
 782 405 782 405 763.5 437 c 128,-1,49
 745 469 745 469 702.5 484.5 c 128,-1,50
 660 500 660 500 586 500 c 1,51,-1
 586 588 l 1,52,53
 718 588 718 588 802.5 561.5 c 128,-1,54
 887 535 887 535 927.5 483 c 128,-1,55
 968 431 968 431 968 357 c 256,56,57
 968 283 968 283 928 231.5 c 128,-1,58
 888 180 888 180 803 153 c 128,-1,59
 718 126 718 126 586 126 c 1,42,-1
EndSplineSet
EndChar

StartChar: Tsecyr
Encoding: 1062 1062 292
Width: 865
GlyphClass: 2
Flags: W
AnchorPoint: "Anchor-0" 433 741 basechar 0
LayerCount: 2
Fore
SplineSet
226 0 m 1,0,-1
 226 83 l 1,1,-1
 653 83 l 1,2,-1
 653 0 l 1,3,-1
 226 0 l 1,0,-1
46 710 m 1,4,-1
 368 710 l 1,5,-1
 368 627 l 1,6,-1
 359 627 l 2,7,8
 347 627 347 627 332.5 626 c 128,-1,9
 318 625 318 625 308 623 c 128,-1,10
 298 621 298 621 298 617 c 2,11,-1
 298 0 l 1,12,-1
 46 0 l 1,13,-1
 46 83 l 1,14,-1
 56 83 l 2,15,16
 84 83 84 83 102 90 c 128,-1,17
 120 97 120 97 120 119 c 2,18,-1
 120 591 l 2,19,20
 120 613 120 613 102 620 c 128,-1,21
 84 627 84 627 56 627 c 2,22,-1
 46 627 l 1,23,-1
 46 710 l 1,4,-1
485 710 m 1,24,-1
 807 710 l 1,25,-1
 807 627 l 1,26,-1
 796 627 l 2,27,28
 769 627 769 627 751 620 c 128,-1,29
 733 613 733 613 733 591 c 2,30,-1
 733 13 l 1,31,-1
 555 13 l 1,32,-1
 555 618 l 2,33,34
 555 621 555 621 545 623 c 128,-1,35
 535 625 535 625 521 626 c 128,-1,36
 507 627 507 627 493 627 c 2,37,-1
 485 627 l 1,38,-1
 485 710 l 1,24,-1
576 0 m 1,39,-1
 576 83 l 1,40,-1
 832 83 l 1,41,-1
 832 -189 l 1,42,-1
 740 -189 l 1,43,-1
 728 -53 l 2,44,45
 727 -35 727 -35 716 -23 c 128,-1,46
 705 -11 705 -11 680 -5.5 c 128,-1,47
 655 0 655 0 612 0 c 2,48,-1
 576 0 l 1,39,-1
EndSplineSet
EndChar

StartChar: Checyr
Encoding: 1063 1063 293
Width: 827
GlyphClass: 2
Flags: W
AnchorPoint: "Anchor-0" 405 741 basechar 0
LayerCount: 2
Fore
SplineSet
459 0 m 1,0,-1
 459 83 l 1,1,-1
 467 83 l 2,2,3
 481 83 481 83 495 84 c 128,-1,4
 509 85 509 85 519 87.5 c 128,-1,5
 529 90 529 90 529 93 c 2,6,-1
 529 618 l 2,7,8
 529 621 529 621 519 623 c 128,-1,9
 509 625 509 625 495 626 c 128,-1,10
 481 627 481 627 467 627 c 2,11,-1
 459 627 l 1,12,-1
 459 710 l 1,13,-1
 781 710 l 1,14,-1
 781 627 l 1,15,-1
 770 627 l 2,16,17
 743 627 743 627 725 620 c 128,-1,18
 707 613 707 613 707 591 c 2,19,-1
 707 119 l 2,20,21
 707 97 707 97 725 90 c 128,-1,22
 743 83 743 83 770 83 c 2,23,-1
 781 83 l 1,24,-1
 781 0 l 1,25,-1
 459 0 l 1,0,-1
345 271 m 0,26,27
 265 271 265 271 212 291.5 c 128,-1,28
 159 312 159 312 132.5 357.5 c 128,-1,29
 106 403 106 403 106 476 c 2,30,-1
 106 591 l 2,31,32
 106 613 106 613 88 620 c 128,-1,33
 70 627 70 627 42 627 c 2,34,-1
 32 627 l 1,35,-1
 32 710 l 1,36,-1
 354 710 l 1,37,-1
 354 627 l 1,38,-1
 345 627 l 2,39,40
 333 627 333 627 318.5 626 c 128,-1,41
 304 625 304 625 294 623 c 128,-1,42
 284 621 284 621 284 617 c 2,43,-1
 284 484 l 2,44,45
 284 436 284 436 295.5 407.5 c 128,-1,46
 307 379 307 379 333.5 366.5 c 128,-1,47
 360 354 360 354 406 354 c 0,48,49
 443 354 443 354 481.5 361.5 c 128,-1,50
 520 369 520 369 555 386 c 1,51,-1
 555 309 l 1,52,53
 516 291 516 291 461 281 c 128,-1,54
 406 271 406 271 345 271 c 0,26,27
EndSplineSet
EndChar

StartChar: Shacyr
Encoding: 1064 1064 294
Width: 1211
GlyphClass: 2
Flags: W
AnchorPoint: "Anchor-0" 594 741 basechar 0
LayerCount: 2
Fore
SplineSet
958 0 m 1,0,-1
 226 0 l 1,1,-1
 226 83 l 1,2,-1
 958 83 l 1,3,-1
 958 0 l 1,0,-1
1166 710 m 1,4,-1
 1166 627 l 1,5,-1
 1155 627 l 2,6,7
 1127 627 1127 627 1109 620 c 128,-1,8
 1091 613 1091 613 1091 591 c 2,9,-1
 1091 119 l 2,10,11
 1091 97 1091 97 1109 90 c 128,-1,12
 1127 83 1127 83 1155 83 c 2,13,-1
 1166 83 l 1,14,-1
 1166 0 l 1,15,-1
 913 0 l 1,16,-1
 913 617 l 2,17,18
 913 621 913 621 903.5 623 c 128,-1,19
 894 625 894 625 879.5 626 c 128,-1,20
 865 627 865 627 852 627 c 2,21,-1
 844 627 l 1,22,-1
 844 710 l 1,23,-1
 1166 710 l 1,4,-1
368 710 m 1,24,-1
 368 627 l 1,25,-1
 359 627 l 2,26,27
 347 627 347 627 332.5 626 c 128,-1,28
 318 625 318 625 308 623 c 128,-1,29
 298 621 298 621 298 617 c 2,30,-1
 298 0 l 1,31,-1
 46 0 l 1,32,-1
 46 83 l 1,33,-1
 56 83 l 2,34,35
 84 83 84 83 102 90 c 128,-1,36
 120 97 120 97 120 119 c 2,37,-1
 120 591 l 2,38,39
 120 613 120 613 102 620 c 128,-1,40
 84 627 84 627 56 627 c 2,41,-1
 46 627 l 1,42,-1
 46 710 l 1,43,-1
 368 710 l 1,24,-1
447 710 m 1,44,-1
 764 710 l 1,45,-1
 764 627 l 1,46,-1
 756 627 l 2,47,48
 743 627 743 627 729 626 c 128,-1,49
 715 625 715 625 705 623 c 128,-1,50
 695 621 695 621 695 617 c 2,51,-1
 695 0 l 1,52,-1
 517 0 l 1,53,-1
 517 617 l 2,54,55
 517 621 517 621 507 623 c 128,-1,56
 497 625 497 625 483 626 c 128,-1,57
 469 627 469 627 455 627 c 2,58,-1
 447 627 l 1,59,-1
 447 710 l 1,44,-1
EndSplineSet
EndChar

StartChar: Shchacyr
Encoding: 1065 1065 295
Width: 1223
GlyphClass: 2
Flags: W
AnchorPoint: "Anchor-0" 600 741 basechar 0
LayerCount: 2
Fore
SplineSet
988 0 m 1,0,-1
 226 0 l 1,1,-1
 226 83 l 1,2,-1
 988 83 l 1,3,-1
 988 0 l 1,0,-1
368 710 m 1,4,-1
 368 627 l 1,5,-1
 359 627 l 2,6,7
 347 627 347 627 332.5 626 c 128,-1,8
 318 625 318 625 308 623 c 128,-1,9
 298 621 298 621 298 617 c 2,10,-1
 298 0 l 1,11,-1
 46 0 l 1,12,-1
 46 83 l 1,13,-1
 56 83 l 2,14,15
 84 83 84 83 102 90 c 128,-1,16
 120 97 120 97 120 119 c 2,17,-1
 120 591 l 2,18,19
 120 613 120 613 102 620 c 128,-1,20
 84 627 84 627 56 627 c 2,21,-1
 46 627 l 1,22,-1
 46 710 l 1,23,-1
 368 710 l 1,4,-1
844 710 m 1,24,-1
 1166 710 l 1,25,-1
 1166 627 l 1,26,-1
 1155 627 l 2,27,28
 1127 627 1127 627 1109 620 c 128,-1,29
 1091 613 1091 613 1091 591 c 2,30,-1
 1091 13 l 1,31,-1
 913 13 l 1,32,-1
 913 618 l 2,33,34
 913 621 913 621 903.5 623 c 128,-1,35
 894 625 894 625 879.5 626 c 128,-1,36
 865 627 865 627 852 627 c 2,37,-1
 844 627 l 1,38,-1
 844 710 l 1,24,-1
971 0 m 2,39,-1
 934 0 l 1,40,-1
 934 83 l 1,41,-1
 1191 83 l 1,42,-1
 1191 -189 l 1,43,-1
 1099 -189 l 1,44,-1
 1086 -53 l 2,45,46
 1085 -35 1085 -35 1074 -23 c 128,-1,47
 1063 -11 1063 -11 1038.5 -5.5 c 128,-1,48
 1014 0 1014 0 971 0 c 2,39,-1
447 710 m 1,49,-1
 764 710 l 1,50,-1
 764 627 l 1,51,-1
 756 627 l 2,52,53
 743 627 743 627 729 626 c 128,-1,54
 715 625 715 625 705 623 c 128,-1,55
 695 621 695 621 695 617 c 2,56,-1
 695 7 l 1,57,-1
 517 7 l 1,58,-1
 517 618 l 2,59,60
 517 621 517 621 507 623 c 128,-1,61
 497 625 497 625 483 626 c 128,-1,62
 469 627 469 627 455 627 c 2,63,-1
 447 627 l 1,64,-1
 447 710 l 1,49,-1
EndSplineSet
EndChar

StartChar: Hardcyr
Encoding: 1066 1066 296
Width: 887
GlyphClass: 2
Flags: W
AnchorPoint: "Anchor-0" 310 741 basechar 0
LayerCount: 2
Fore
SplineSet
595 0 m 2,0,-1
 200 0 l 1,1,-1
 200 77 l 1,2,-1
 210 77 l 2,3,4
 238 77 238 77 255.5 84 c 128,-1,5
 273 91 273 91 273 113 c 2,6,-1
 273 626 l 1,7,-1
 263 626 l 2,8,9
 220 626 220 626 195.5 620.5 c 128,-1,10
 171 615 171 615 160.5 603 c 128,-1,11
 150 591 150 591 148 573 c 2,12,-1
 136 430 l 1,13,-1
 44 430 l 1,14,-1
 44 710 l 1,15,-1
 544 710 l 1,16,-1
 544 627 l 1,17,-1
 521 627 l 2,18,19
 502 627 502 627 486.5 626 c 128,-1,20
 471 625 471 625 461.5 623 c 128,-1,21
 452 621 452 621 452 617 c 2,22,-1
 452 83 l 1,23,-1
 565 83 l 2,24,25
 600 83 600 83 624 97 c 128,-1,26
 648 111 648 111 660 141 c 128,-1,27
 672 171 672 171 672 218 c 256,28,29
 672 265 672 265 660 295 c 128,-1,30
 648 325 648 325 623.5 339.5 c 128,-1,31
 599 354 599 354 563 354 c 2,32,-1
 424 354 l 1,33,-1
 424 437 l 1,34,-1
 598 437 l 2,35,36
 677 437 677 437 733 413.5 c 128,-1,37
 789 390 789 390 818.5 341.5 c 128,-1,38
 848 293 848 293 848 218 c 0,39,40
 848 150 848 150 817 101 c 128,-1,41
 786 52 786 52 729 26 c 128,-1,42
 672 0 672 0 595 0 c 2,0,-1
EndSplineSet
EndChar

StartChar: Ylongcyr
Encoding: 1067 1067 297
Width: 1086
GlyphClass: 2
Flags: W
AnchorPoint: "Anchor-1" 532 0 basechar 0
AnchorPoint: "Anchor-0" 532 741 basechar 0
LayerCount: 2
Fore
SplineSet
788 93 m 2,0,-1
 788 618 l 2,1,2
 788 621 788 621 778.5 623 c 128,-1,3
 769 625 769 625 754.5 626 c 128,-1,4
 740 627 740 627 727 627 c 2,5,-1
 719 627 l 1,6,-1
 719 710 l 1,7,-1
 1040 710 l 1,8,-1
 1040 627 l 1,9,-1
 1030 627 l 2,10,11
 1003 627 1003 627 984.5 620 c 128,-1,12
 966 613 966 613 966 591 c 2,13,-1
 966 119 l 2,14,15
 966 97 966 97 984.5 90 c 128,-1,16
 1003 83 1003 83 1030 83 c 2,17,-1
 1040 83 l 1,18,-1
 1040 0 l 1,19,-1
 719 0 l 1,20,-1
 719 83 l 1,21,-1
 727 83 l 2,22,23
 740 83 740 83 754.5 84 c 128,-1,24
 769 85 769 85 778.5 87.5 c 128,-1,25
 788 90 788 90 788 93 c 2,0,-1
441 0 m 2,26,-1
 46 0 l 1,27,-1
 46 77 l 1,28,-1
 56 77 l 2,29,30
 84 77 84 77 101.5 84 c 128,-1,31
 119 91 119 91 119 113 c 2,32,-1
 119 597 l 2,33,34
 119 619 119 619 101.5 626 c 128,-1,35
 84 633 84 633 56 633 c 2,36,-1
 46 633 l 1,37,-1
 46 710 l 1,38,-1
 390 710 l 1,39,-1
 390 627 l 1,40,-1
 367 627 l 2,41,42
 348 627 348 627 332.5 626 c 128,-1,43
 317 625 317 625 307.5 623 c 128,-1,44
 298 621 298 621 298 617 c 2,45,-1
 298 83 l 1,46,-1
 411 83 l 2,47,48
 447 83 447 83 470.5 97 c 128,-1,49
 494 111 494 111 506 141 c 128,-1,50
 518 171 518 171 518 218 c 256,51,52
 518 265 518 265 506 295 c 128,-1,53
 494 325 494 325 469.5 339.5 c 128,-1,54
 445 354 445 354 409 354 c 2,55,-1
 270 354 l 1,56,-1
 270 437 l 1,57,-1
 444 437 l 2,58,59
 522 437 522 437 578.5 413.5 c 128,-1,60
 635 390 635 390 664.5 341.5 c 128,-1,61
 694 293 694 293 694 218 c 0,62,63
 694 150 694 150 663 101 c 128,-1,64
 632 52 632 52 575 26 c 128,-1,65
 518 0 518 0 441 0 c 2,26,-1
EndSplineSet
EndChar

StartChar: Softcyr
Encoding: 1068 1068 298
Width: 733
GlyphClass: 2
Flags: W
AnchorPoint: "Anchor-0" 212 741 basechar 0
LayerCount: 2
Fore
SplineSet
441 0 m 2,0,-1
 46 0 l 1,1,-1
 46 77 l 1,2,-1
 56 77 l 2,3,4
 84 77 84 77 101.5 84 c 128,-1,5
 119 91 119 91 119 113 c 2,6,-1
 119 597 l 2,7,8
 119 619 119 619 101.5 626 c 128,-1,9
 84 633 84 633 56 633 c 2,10,-1
 46 633 l 1,11,-1
 46 710 l 1,12,-1
 390 710 l 1,13,-1
 390 627 l 1,14,-1
 367 627 l 2,15,16
 348 627 348 627 333 626 c 128,-1,17
 318 625 318 625 308 623 c 128,-1,18
 298 621 298 621 298 617 c 2,19,-1
 298 83 l 1,20,-1
 411 83 l 2,21,22
 447 83 447 83 470.5 97 c 128,-1,23
 494 111 494 111 506 141 c 128,-1,24
 518 171 518 171 518 217 c 0,25,26
 518 265 518 265 506 295 c 128,-1,27
 494 325 494 325 469.5 339.5 c 128,-1,28
 445 354 445 354 409 354 c 2,29,-1
 270 354 l 1,30,-1
 270 437 l 1,31,-1
 444 437 l 2,32,33
 522 437 522 437 578.5 413.5 c 128,-1,34
 635 390 635 390 664.5 341.5 c 128,-1,35
 694 293 694 293 694 218 c 0,36,37
 694 150 694 150 663 101 c 128,-1,38
 632 52 632 52 575 26 c 128,-1,39
 518 0 518 0 441 0 c 2,0,-1
EndSplineSet
EndChar

StartChar: Ereversedcyr
Encoding: 1069 1069 299
Width: 787
GlyphClass: 2
Flags: W
AnchorPoint: "Anchor-1" 378 0 basechar 0
AnchorPoint: "Anchor-0" 378 741 basechar 0
LayerCount: 2
Fore
SplineSet
568 401 m 1,0,-1
 568 328 l 1,1,2
 530 325 530 325 491 322.5 c 128,-1,3
 452 320 452 320 413.5 317.5 c 128,-1,4
 375 315 375 315 337 313 c 128,-1,5
 299 311 299 311 262 308 c 1,6,-1
 262 422 l 1,7,8
 298 419 298 419 336 416.5 c 128,-1,9
 374 414 374 414 413 411.5 c 128,-1,10
 452 409 452 409 491 406.5 c 128,-1,11
 530 404 530 404 568 401 c 1,0,-1
391 -25 m 0,12,13
 315 -25 315 -25 262.5 2 c 128,-1,14
 210 29 210 29 181 81 c 128,-1,15
 152 133 152 133 143 209 c 1,16,-1
 175 161 l 1,17,-1
 156 -10 l 1,18,-1
 71 -10 l 1,19,-1
 71 240 l 1,20,-1
 171 240 l 1,21,22
 187 184 187 184 213 144 c 128,-1,23
 239 104 239 104 278 83 c 128,-1,24
 317 62 317 62 370 62 c 0,25,26
 418 62 418 62 452 77.5 c 128,-1,27
 486 93 486 93 508 128 c 128,-1,28
 530 163 530 163 540.5 219 c 128,-1,29
 551 275 551 275 551 355 c 256,30,31
 551 435 551 435 540.5 491 c 128,-1,32
 530 547 530 547 508 582 c 128,-1,33
 486 617 486 617 452 632.5 c 128,-1,34
 418 648 418 648 370 648 c 0,35,36
 317 648 317 648 278 627 c 128,-1,37
 239 606 239 606 212.5 566.5 c 128,-1,38
 186 527 186 527 171 470 c 1,39,-1
 71 470 l 1,40,-1
 71 720 l 1,41,-1
 156 720 l 1,42,-1
 175 549 l 1,43,-1
 143 498 l 1,44,45
 152 574 152 574 181.5 627 c 128,-1,46
 211 680 211 680 263.5 707.5 c 128,-1,47
 316 735 316 735 391 735 c 256,48,49
 466 735 466 735 529 713 c 128,-1,50
 592 691 592 691 638.5 644.5 c 128,-1,51
 685 598 685 598 711 526.5 c 128,-1,52
 737 455 737 455 737 355 c 0,53,54
 737 259 737 259 711 188 c 128,-1,55
 685 117 685 117 638 69.5 c 128,-1,56
 591 22 591 22 528 -1.5 c 128,-1,57
 465 -25 465 -25 391 -25 c 0,12,13
EndSplineSet
Substitution2: "'ss01' Style Set 1 lookup 61 subtable" Ecyr.alt1
EndChar

StartChar: Yucyr
Encoding: 1070 1070 300
Width: 1170
GlyphClass: 2
Flags: W
AnchorPoint: "Anchor-1" 608 0 basechar 0
AnchorPoint: "Anchor-0" 608 741 basechar 0
LayerCount: 2
Fore
SplineSet
206 407 m 1,0,-1
 530 407 l 1,1,-1
 530 324 l 1,2,-1
 206 324 l 1,3,-1
 206 407 l 1,0,-1
46 0 m 1,4,-1
 46 83 l 1,5,-1
 57 83 l 2,6,7
 84 83 84 83 102 90 c 128,-1,8
 120 97 120 97 120 119 c 2,9,-1
 120 591 l 2,10,11
 120 613 120 613 102 620 c 128,-1,12
 84 627 84 627 57 627 c 2,13,-1
 46 627 l 1,14,-1
 46 710 l 1,15,-1
 368 710 l 1,16,-1
 368 627 l 1,17,-1
 359 627 l 2,18,19
 350 627 350 627 339 626.5 c 128,-1,20
 328 626 328 626 318.5 624.5 c 128,-1,21
 309 623 309 623 303.5 621.5 c 128,-1,22
 298 620 298 620 298 617 c 2,23,-1
 298 92 l 2,24,25
 298 90 298 90 303.5 88.5 c 128,-1,26
 309 87 309 87 318.5 85.5 c 128,-1,27
 328 84 328 84 339 83.5 c 128,-1,28
 350 83 350 83 359 83 c 2,29,-1
 368 83 l 1,30,-1
 368 0 l 1,31,-1
 46 0 l 1,4,-1
761 -25 m 256,32,33
 680 -25 680 -25 614 -1 c 128,-1,34
 548 23 548 23 500.5 70.5 c 128,-1,35
 453 118 453 118 427.5 189.5 c 128,-1,36
 402 261 402 261 402 356 c 0,37,38
 402 450 402 450 427.5 521 c 128,-1,39
 453 592 453 592 500.5 639.5 c 128,-1,40
 548 687 548 687 614 711 c 128,-1,41
 680 735 680 735 761 735 c 256,42,43
 842 735 842 735 908.5 711 c 128,-1,44
 975 687 975 687 1022 639.5 c 128,-1,45
 1069 592 1069 592 1094.5 521 c 128,-1,46
 1120 450 1120 450 1120 356 c 0,47,48
 1120 261 1120 261 1094.5 189.5 c 128,-1,49
 1069 118 1069 118 1022 70.5 c 128,-1,50
 975 23 975 23 908.5 -1 c 128,-1,51
 842 -25 842 -25 761 -25 c 256,32,33
761 63 m 256,52,53
 805 63 805 63 837.5 78.5 c 128,-1,54
 870 94 870 94 891 128.5 c 128,-1,55
 912 163 912 163 922.5 219 c 128,-1,56
 933 275 933 275 933 355 c 256,57,58
 933 435 933 435 922.5 491 c 128,-1,59
 912 547 912 547 891 581.5 c 128,-1,60
 870 616 870 616 837.5 631.5 c 128,-1,61
 805 647 805 647 761 647 c 256,62,63
 717 647 717 647 684.5 631.5 c 128,-1,64
 652 616 652 616 630.5 581.5 c 128,-1,65
 609 547 609 547 599 491 c 128,-1,66
 589 435 589 435 589 355 c 256,67,68
 589 275 589 275 599 219 c 128,-1,69
 609 163 609 163 630.5 128.5 c 128,-1,70
 652 94 652 94 684.5 78.5 c 128,-1,71
 717 63 717 63 761 63 c 256,52,53
EndSplineSet
EndChar

StartChar: Yacyr
Encoding: 1071 1071 301
Width: 808
GlyphClass: 2
Flags: W
AnchorPoint: "Anchor-1" 404 0 basechar 0
AnchorPoint: "Anchor-0" 445 741 basechar 0
LayerCount: 2
Fore
SplineSet
414 318 m 1,0,-1
 252 0 l 1,1,-1
 36 0 l 1,2,-1
 36 83 l 1,3,-1
 45 83 l 2,4,5
 64 83 64 83 79 88 c 128,-1,6
 94 93 94 93 108 106 c 128,-1,7
 122 119 122 119 136 144 c 2,8,-1
 261 371 l 1,9,-1
 414 318 l 1,0,-1
510 93 m 2,10,-1
 510 631 l 1,11,-1
 390 631 l 2,12,13
 355 631 355 631 331 616 c 128,-1,14
 307 601 307 601 295 572 c 128,-1,15
 283 543 283 543 283 499 c 0,16,17
 283 457 283 457 295 427.5 c 128,-1,18
 307 398 307 398 331 382.5 c 128,-1,19
 355 367 355 367 391 367 c 2,20,-1
 537 367 l 1,21,-1
 537 288 l 1,22,-1
 330 288 l 1,23,-1
 306 310 l 1,24,25
 242 318 242 318 195.5 344.5 c 128,-1,26
 149 371 149 371 124 413 c 128,-1,27
 99 455 99 455 99 508 c 0,28,29
 99 575 99 575 129 620 c 128,-1,30
 159 665 159 665 217 687.5 c 128,-1,31
 275 710 275 710 357 710 c 2,32,-1
 762 710 l 1,33,-1
 762 627 l 1,34,-1
 751 627 l 2,35,36
 724 627 724 627 706 620 c 128,-1,37
 688 613 688 613 688 591 c 2,38,-1
 688 119 l 2,39,40
 688 97 688 97 706 90 c 128,-1,41
 724 83 724 83 751 83 c 2,42,-1
 762 83 l 1,43,-1
 762 0 l 1,44,-1
 425 0 l 1,45,-1
 425 83 l 1,46,-1
 441 83 l 2,47,48
 455 83 455 83 467.5 83.5 c 128,-1,49
 480 84 480 84 489.5 85.5 c 128,-1,50
 499 87 499 87 504.5 88.5 c 128,-1,51
 510 90 510 90 510 93 c 2,10,-1
EndSplineSet
EndChar

StartChar: Geupcyr
Encoding: 1168 1168 302
Width: 676
GlyphClass: 2
Flags: W
AnchorPoint: "Anchor-0" 318 741 basechar 0
LayerCount: 2
Fore
SplineSet
298 627 m 1,0,-1
 298 119 l 2,1,2
 298 105 298 105 306.5 97 c 128,-1,3
 315 89 315 89 329 86 c 128,-1,4
 343 83 343 83 362 83 c 2,5,-1
 393 83 l 1,6,-1
 393 0 l 1,7,-1
 46 0 l 1,8,-1
 46 83 l 1,9,-1
 56 83 l 2,10,11
 84 83 84 83 102 90 c 128,-1,12
 120 97 120 97 120 119 c 2,13,-1
 120 591 l 2,14,15
 120 613 120 613 102 620 c 128,-1,16
 84 627 84 627 56 627 c 2,17,-1
 46 627 l 1,18,-1
 46 710 l 1,19,-1
 427 710 l 2,20,21
 463 710 463 710 485.5 715 c 128,-1,22
 508 720 508 720 520 732 c 128,-1,23
 532 744 532 744 533 762 c 2,24,-1
 546 899 l 1,25,-1
 638 899 l 1,26,-1
 638 627 l 1,27,-1
 298 627 l 1,0,-1
EndSplineSet
EndChar

StartChar: Gestrokecyr
Encoding: 1170 1170 303
Width: 681
GlyphClass: 2
Flags: W
AnchorPoint: "Anchor-0" 347 741 basechar 0
LayerCount: 2
Fore
SplineSet
46 405 m 1,0,-1
 444 405 l 1,1,-1
 444 322 l 1,2,-1
 46 322 l 1,3,-1
 46 405 l 1,0,-1
298 627 m 1,4,-1
 298 119 l 2,5,6
 298 105 298 105 306.5 97 c 128,-1,7
 315 89 315 89 329 86 c 128,-1,8
 343 83 343 83 362 83 c 2,9,-1
 393 83 l 1,10,-1
 393 0 l 1,11,-1
 46 0 l 1,12,-1
 46 83 l 1,13,-1
 56 83 l 2,14,15
 84 83 84 83 102 90 c 128,-1,16
 120 97 120 97 120 119 c 2,17,-1
 120 591 l 2,18,19
 120 613 120 613 102 620 c 128,-1,20
 84 627 84 627 56 627 c 2,21,-1
 46 627 l 1,22,-1
 46 710 l 1,23,-1
 638 710 l 1,24,-1
 638 454 l 1,25,-1
 546 454 l 1,26,-1
 533 577 l 2,27,28
 532 595 532 595 520.5 606 c 128,-1,29
 509 617 509 617 487 622 c 128,-1,30
 465 627 465 627 431 627 c 2,31,-1
 298 627 l 1,4,-1
EndSplineSet
EndChar

StartChar: Zhetailcyr
Encoding: 1174 1174 304
Width: 1239
GlyphClass: 2
Flags: W
AnchorPoint: "Anchor-0" 607 741 basechar 0
LayerCount: 2
Fore
SplineSet
861 0 m 1,0,-1
 861 83 l 1,1,-1
 868 83 l 2,2,3
 885 83 885 83 899.5 84 c 128,-1,4
 914 85 914 85 923 87.5 c 128,-1,5
 932 90 932 90 932 93 c 2,6,-1
 737 348 l 1,7,-1
 737 372 l 1,8,-1
 981 616 l 2,9,10
 981 620 981 620 969 622 c 128,-1,11
 957 624 957 624 938.5 625.5 c 128,-1,12
 920 627 920 627 902 627 c 2,13,-1
 887 627 l 1,14,-1
 887 710 l 1,15,-1
 1177 710 l 1,16,-1
 1177 627 l 1,17,-1
 1152 627 l 2,18,19
 1135 627 1135 627 1122 624.5 c 128,-1,20
 1109 622 1109 622 1097 616 c 128,-1,21
 1085 610 1085 610 1074 598 c 2,22,-1
 830 356 l 1,23,-1
 873 449 l 1,24,-1
 1153 83 l 1,25,-1
 1153 0 l 1,26,-1
 861 0 l 1,0,-1
364 0 m 1,27,-1
 26 0 l 1,28,-1
 26 83 l 1,29,-1
 40 83 l 2,30,31
 52 83 52 83 61.5 84.5 c 128,-1,32
 71 86 71 86 79.5 90.5 c 128,-1,33
 88 95 88 95 96 104 c 2,34,-1
 360 449 l 1,35,-1
 391 356 l 1,36,-1
 147 598 l 2,37,38
 137 610 137 610 124.5 616 c 128,-1,39
 112 622 112 622 98.5 624.5 c 128,-1,40
 85 627 85 627 69 627 c 2,41,-1
 44 627 l 1,42,-1
 44 710 l 1,43,-1
 338 710 l 1,44,-1
 338 627 l 1,45,-1
 323 627 l 2,46,47
 305 627 305 627 286.5 625.5 c 128,-1,48
 268 624 268 624 256 622 c 128,-1,49
 244 620 244 620 244 616 c 2,50,-1
 488 372 l 1,51,-1
 488 348 l 1,52,-1
 293 93 l 2,53,54
 293 90 293 90 302 87.5 c 128,-1,55
 311 85 311 85 325.5 84 c 128,-1,56
 340 83 340 83 357 83 c 2,57,-1
 364 83 l 1,58,-1
 364 0 l 1,27,-1
1006 0 m 2,59,-1
 985 0 l 1,60,-1
 985 83 l 1,61,-1
 1226 83 l 1,62,-1
 1226 -189 l 1,63,-1
 1134 -189 l 1,64,-1
 1121 -53 l 2,65,66
 1120 -35 1120 -35 1109.5 -23 c 128,-1,67
 1099 -11 1099 -11 1074 -5.5 c 128,-1,68
 1049 0 1049 0 1006 0 c 2,59,-1
454 0 m 1,69,-1
 454 83 l 1,70,-1
 462 83 l 2,71,72
 472 83 472 83 483 83.5 c 128,-1,73
 494 84 494 84 503 85.5 c 128,-1,74
 512 87 512 87 517.5 88.5 c 128,-1,75
 523 90 523 90 523 93 c 2,76,-1
 523 618 l 2,77,78
 523 620 523 620 517.5 621.5 c 128,-1,79
 512 623 512 623 503 624.5 c 128,-1,80
 494 626 494 626 483 626.5 c 128,-1,81
 472 627 472 627 462 627 c 2,82,-1
 454 627 l 1,83,-1
 454 710 l 1,84,-1
 771 710 l 1,85,-1
 771 627 l 1,86,-1
 763 627 l 2,87,88
 753 627 753 627 742.5 626.5 c 128,-1,89
 732 626 732 626 722.5 624.5 c 128,-1,90
 713 623 713 623 707.5 621.5 c 128,-1,91
 702 620 702 620 702 617 c 2,92,-1
 702 92 l 2,93,94
 702 90 702 90 707.5 88.5 c 128,-1,95
 713 87 713 87 722.5 85.5 c 128,-1,96
 732 84 732 84 742.5 83.5 c 128,-1,97
 753 83 753 83 763 83 c 2,98,-1
 771 83 l 1,99,-1
 771 0 l 1,100,-1
 454 0 l 1,69,-1
EndSplineSet
EndChar

StartChar: Katailcyr
Encoding: 1178 1178 306
Width: 852
GlyphClass: 2
Flags: W
AnchorPoint: "Anchor-0" 434 741 basechar 0
LayerCount: 2
Fore
SplineSet
46 0 m 1,0,-1
 46 83 l 1,1,-1
 57 83 l 2,2,3
 84 83 84 83 102 90 c 128,-1,4
 120 97 120 97 120 119 c 2,5,-1
 120 591 l 2,6,7
 120 613 120 613 102 620 c 128,-1,8
 84 627 84 627 57 627 c 2,9,-1
 46 627 l 1,10,-1
 46 710 l 1,11,-1
 374 710 l 1,12,-1
 374 627 l 1,13,-1
 362 627 l 2,14,15
 350 627 350 627 338.5 626.5 c 128,-1,16
 327 626 327 626 318 624.5 c 128,-1,17
 309 623 309 623 303.5 621.5 c 128,-1,18
 298 620 298 620 298 617 c 2,19,-1
 298 93 l 2,20,21
 298 90 298 90 303.5 88.5 c 128,-1,22
 309 87 309 87 317 85.5 c 128,-1,23
 325 84 325 84 335 83.5 c 128,-1,24
 345 83 345 83 353 83 c 2,25,-1
 361 83 l 1,26,-1
 361 0 l 1,27,-1
 46 0 l 1,0,-1
470 0 m 1,28,-1
 470 83 l 1,29,-1
 477 83 l 2,30,31
 494 83 494 83 508 84 c 128,-1,32
 522 85 522 85 531 87.5 c 128,-1,33
 540 90 540 90 540 93 c 2,34,-1
 333 348 l 1,35,-1
 333 372 l 1,36,-1
 591 616 l 2,37,38
 591 620 591 620 578 622 c 128,-1,39
 565 624 565 624 547 625.5 c 128,-1,40
 529 627 529 627 511 627 c 2,41,-1
 496 627 l 1,42,-1
 496 710 l 1,43,-1
 786 710 l 1,44,-1
 786 627 l 1,45,-1
 761 627 l 2,46,47
 745 627 745 627 731.5 624.5 c 128,-1,48
 718 622 718 622 706 616 c 128,-1,49
 694 610 694 610 682 598 c 2,50,-1
 429 359 l 1,51,-1
 469 449 l 1,52,-1
 767 83 l 1,53,-1
 767 0 l 1,54,-1
 470 0 l 1,28,-1
619 0 m 2,55,-1
 597 0 l 1,56,-1
 597 83 l 1,57,-1
 839 83 l 1,58,-1
 839 -189 l 1,59,-1
 747 -189 l 1,60,-1
 734 -53 l 2,61,62
 733 -35 733 -35 722 -23 c 128,-1,63
 711 -11 711 -11 686.5 -5.5 c 128,-1,64
 662 0 662 0 619 0 c 2,55,-1
EndSplineSet
EndChar

StartChar: Kaverticalstrokecyr
Encoding: 1180 1180 307
Width: 935
GlyphClass: 2
Flags: W
AnchorPoint: "Anchor-0" 486 741 basechar 0
LayerCount: 2
Fore
SplineSet
367 170 m 1,0,-1
 367 543 l 1,1,-1
 450 543 l 1,2,-1
 450 170 l 1,3,-1
 367 170 l 1,0,-1
46 0 m 1,4,-1
 46 83 l 1,5,-1
 57 83 l 2,6,7
 84 83 84 83 102 90 c 128,-1,8
 120 97 120 97 120 119 c 2,9,-1
 120 591 l 2,10,11
 120 613 120 613 102 620 c 128,-1,12
 84 627 84 627 57 627 c 2,13,-1
 46 627 l 1,14,-1
 46 710 l 1,15,-1
 374 710 l 1,16,-1
 374 627 l 1,17,-1
 362 627 l 2,18,19
 350 627 350 627 338.5 626.5 c 128,-1,20
 327 626 327 626 318 624.5 c 128,-1,21
 309 623 309 623 303.5 621.5 c 128,-1,22
 298 620 298 620 298 617 c 2,23,-1
 298 93 l 2,24,25
 298 90 298 90 303.5 88.5 c 128,-1,26
 309 87 309 87 317 85.5 c 128,-1,27
 325 84 325 84 335 83.5 c 128,-1,28
 345 83 345 83 353 83 c 2,29,-1
 361 83 l 1,30,-1
 361 0 l 1,31,-1
 46 0 l 1,4,-1
572 0 m 1,32,-1
 572 83 l 1,33,-1
 579 83 l 2,34,35
 596 83 596 83 610.5 84 c 128,-1,36
 625 85 625 85 634 87.5 c 128,-1,37
 643 90 643 90 643 93 c 2,38,-1
 484 348 l 1,39,-1
 484 372 l 1,40,-1
 693 616 l 2,41,42
 693 620 693 620 680.5 622 c 128,-1,43
 668 624 668 624 649.5 625.5 c 128,-1,44
 631 627 631 627 613 627 c 2,45,-1
 598 627 l 1,46,-1
 598 710 l 1,47,-1
 883 710 l 1,48,-1
 883 627 l 1,49,-1
 858 627 l 2,50,51
 834 627 834 627 814 621.5 c 128,-1,52
 794 616 794 616 779 598 c 2,53,-1
 571 357 l 1,54,-1
 620 449 l 1,55,-1
 839 104 l 2,56,57
 846 95 846 95 854.5 90.5 c 128,-1,58
 863 86 863 86 873.5 84.5 c 128,-1,59
 884 83 884 83 895 83 c 2,60,-1
 908 83 l 1,61,-1
 908 0 l 1,62,-1
 572 0 l 1,32,-1
EndSplineSet
EndChar

StartChar: Kabashkcyr
Encoding: 1184 1184 308
Width: 1013
GlyphClass: 2
Flags: W
AnchorPoint: "Anchor-0" 598 741 basechar 0
LayerCount: 2
Fore
SplineSet
637 0 m 1,0,-1
 637 83 l 1,1,-1
 644 83 l 2,2,3
 661 83 661 83 675.5 84 c 128,-1,4
 690 85 690 85 699 87.5 c 128,-1,5
 708 90 708 90 708 93 c 2,6,-1
 501 348 l 1,7,-1
 501 372 l 1,8,-1
 758 616 l 2,9,10
 758 620 758 620 745.5 622 c 128,-1,11
 733 624 733 624 714.5 625.5 c 128,-1,12
 696 627 696 627 678 627 c 2,13,-1
 663 627 l 1,14,-1
 663 710 l 1,15,-1
 954 710 l 1,16,-1
 954 627 l 1,17,-1
 929 627 l 2,18,19
 912 627 912 627 898.5 624.5 c 128,-1,20
 885 622 885 622 873 616 c 128,-1,21
 861 610 861 610 849 598 c 2,22,-1
 596 359 l 1,23,-1
 637 449 l 1,24,-1
 918 104 l 2,25,26
 925 95 925 95 933.5 90.5 c 128,-1,27
 942 86 942 86 952 84.5 c 128,-1,28
 962 83 962 83 973 83 c 2,29,-1
 987 83 l 1,30,-1
 987 0 l 1,31,-1
 637 0 l 1,0,-1
213 0 m 1,32,-1
 213 83 l 1,33,-1
 224 83 l 2,34,35
 251 83 251 83 269 90 c 128,-1,36
 287 97 287 97 287 119 c 2,37,-1
 287 626 l 1,38,-1
 263 626 l 2,39,40
 220 626 220 626 195.5 620.5 c 128,-1,41
 171 615 171 615 160.5 603 c 128,-1,42
 150 591 150 591 148 573 c 2,43,-1
 136 430 l 1,44,-1
 44 430 l 1,45,-1
 44 710 l 1,46,-1
 541 710 l 1,47,-1
 541 627 l 1,48,-1
 530 627 l 2,49,50
 514 627 514 627 499 626 c 128,-1,51
 484 625 484 625 475 623 c 128,-1,52
 466 621 466 621 466 617 c 2,53,-1
 466 93 l 2,54,55
 466 90 466 90 474.5 87.5 c 128,-1,56
 483 85 483 85 496 84 c 128,-1,57
 509 83 509 83 521 83 c 2,58,-1
 528 83 l 1,59,-1
 528 0 l 1,60,-1
 213 0 l 1,32,-1
EndSplineSet
EndChar

StartChar: Entailcyr
Encoding: 1186 1186 309
Width: 875
GlyphClass: 2
Flags: W
AnchorPoint: "Anchor-0" 438 741 basechar 0
LayerCount: 2
Fore
SplineSet
210 407 m 1,0,-1
 627 407 l 1,1,-1
 627 324 l 1,2,-1
 210 324 l 1,3,-1
 210 407 l 1,0,-1
46 0 m 1,4,-1
 46 83 l 1,5,-1
 56 83 l 2,6,7
 84 83 84 83 102 90 c 128,-1,8
 120 97 120 97 120 119 c 2,9,-1
 120 591 l 2,10,11
 120 613 120 613 102 620 c 128,-1,12
 84 627 84 627 56 627 c 2,13,-1
 46 627 l 1,14,-1
 46 710 l 1,15,-1
 368 710 l 1,16,-1
 368 627 l 1,17,-1
 359 627 l 2,18,19
 350 627 350 627 339 626.5 c 128,-1,20
 328 626 328 626 318.5 624.5 c 128,-1,21
 309 623 309 623 303.5 621.5 c 128,-1,22
 298 620 298 620 298 617 c 2,23,-1
 298 92 l 2,24,25
 298 90 298 90 303.5 88.5 c 128,-1,26
 309 87 309 87 318.5 85.5 c 128,-1,27
 328 84 328 84 339 83.5 c 128,-1,28
 350 83 350 83 359 83 c 2,29,-1
 368 83 l 1,30,-1
 368 0 l 1,31,-1
 46 0 l 1,4,-1
495 0 m 1,32,-1
 495 83 l 1,33,-1
 503 83 l 2,34,35
 513 83 513 83 524 83.5 c 128,-1,36
 535 84 535 84 544 85.5 c 128,-1,37
 553 87 553 87 559 88.5 c 128,-1,38
 565 90 565 90 565 93 c 2,39,-1
 565 618 l 2,40,41
 565 620 565 620 559 621.5 c 128,-1,42
 553 623 553 623 544 624.5 c 128,-1,43
 535 626 535 626 524 626.5 c 128,-1,44
 513 627 513 627 503 627 c 2,45,-1
 495 627 l 1,46,-1
 495 710 l 1,47,-1
 817 710 l 1,48,-1
 817 627 l 1,49,-1
 806 627 l 2,50,51
 779 627 779 627 761 620 c 128,-1,52
 743 613 743 613 743 591 c 2,53,-1
 743 0 l 1,54,-1
 495 0 l 1,32,-1
622 0 m 2,55,-1
 601 0 l 1,56,-1
 601 83 l 1,57,-1
 842 83 l 1,58,-1
 842 -189 l 1,59,-1
 750 -189 l 1,60,-1
 738 -53 l 2,61,62
 737 -35 737 -35 726 -23 c 128,-1,63
 715 -11 715 -11 690.5 -5.5 c 128,-1,64
 666 0 666 0 622 0 c 2,55,-1
EndSplineSet
EndChar

StartChar: Tetailcyr
Encoding: 1196 1196 311
Width: 769
GlyphClass: 2
Flags: W
AnchorPoint: "Anchor-0" 377 741 basechar 0
LayerCount: 2
Fore
SplineSet
295 119 m 2,0,-1
 295 626 l 1,1,-1
 263 626 l 2,2,3
 220 626 220 626 195.5 620.5 c 128,-1,4
 171 615 171 615 160.5 603 c 128,-1,5
 150 591 150 591 148 573 c 2,6,-1
 136 430 l 1,7,-1
 44 430 l 1,8,-1
 44 710 l 1,9,-1
 725 710 l 1,10,-1
 725 430 l 1,11,-1
 633 430 l 1,12,-1
 621 573 l 2,13,14
 620 591 620 591 609 603 c 128,-1,15
 598 615 598 615 573.5 620.5 c 128,-1,16
 549 626 549 626 506 626 c 2,17,-1
 474 626 l 1,18,-1
 474 0 l 1,19,-1
 208 0 l 1,20,-1
 208 83 l 1,21,-1
 227 83 l 2,22,23
 255 83 255 83 275 90 c 128,-1,24
 295 97 295 97 295 119 c 2,0,-1
363 0 m 2,25,-1
 326 0 l 1,26,-1
 326 83 l 1,27,-1
 583 83 l 1,28,-1
 583 -189 l 1,29,-1
 491 -189 l 1,30,-1
 478 -53 l 2,31,32
 477 -35 477 -35 466.5 -23 c 128,-1,33
 456 -11 456 -11 431 -5.5 c 128,-1,34
 406 0 406 0 363 0 c 2,25,-1
EndSplineSet
EndChar

StartChar: Ustraightstrokecyr
Encoding: 1200 1200 313
Width: 738
GlyphClass: 2
Flags: W
AnchorPoint: "Anchor-1" 369 0 basechar 0
AnchorPoint: "Anchor-0" 369 741 basechar 0
LayerCount: 2
Fore
SplineSet
152 272 m 1,0,-1
 595 272 l 1,1,-1
 595 189 l 1,2,-1
 152 189 l 1,3,-1
 152 272 l 1,0,-1
284 293 m 1,4,-1
 298 249 l 1,5,-1
 105 575 l 2,6,7
 94 594 94 594 84 605.5 c 128,-1,8
 74 617 74 617 62.5 622 c 128,-1,9
 51 627 51 627 35 627 c 2,10,-1
 26 627 l 1,11,-1
 26 710 l 1,12,-1
 344 710 l 1,13,-1
 344 627 l 1,14,-1
 332 627 l 2,15,16
 313 627 313 627 299 625.5 c 128,-1,17
 285 624 285 624 277.5 622 c 128,-1,18
 270 620 270 620 270 616 c 2,19,-1
 441 304 l 1,20,-1
 393 297 l 1,21,-1
 560 604 l 2,22,23
 560 611 560 611 552.5 616 c 128,-1,24
 545 621 545 621 531 624 c 128,-1,25
 517 627 517 627 498 627 c 2,26,-1
 488 627 l 1,27,-1
 488 710 l 1,28,-1
 711 710 l 1,29,-1
 711 627 l 1,30,-1
 702 627 l 2,31,32
 687 627 687 627 676 621 c 128,-1,33
 665 615 665 615 655 602.5 c 128,-1,34
 645 590 645 590 634 570 c 2,35,-1
 446 243 l 1,36,-1
 463 293 l 1,37,-1
 463 119 l 2,38,39
 463 97 463 97 482 90 c 128,-1,40
 501 83 501 83 530 83 c 2,41,-1
 549 83 l 1,42,-1
 549 0 l 1,43,-1
 198 0 l 1,44,-1
 198 83 l 1,45,-1
 217 83 l 2,46,47
 246 83 246 83 265 90 c 128,-1,48
 284 97 284 97 284 119 c 2,49,-1
 284 293 l 1,4,-1
EndSplineSet
EndChar

StartChar: Xatailcyr
Encoding: 1202 1202 314
Width: 780
GlyphClass: 2
Flags: W
AnchorPoint: "Anchor-0" 398 741 basechar 0
LayerCount: 2
Fore
SplineSet
33 627 m 1,0,-1
 33 710 l 1,1,-1
 366 710 l 1,2,-1
 366 627 l 1,3,-1
 351 627 l 2,4,5
 338 627 338 627 323.5 626 c 128,-1,6
 309 625 309 625 300 623 c 128,-1,7
 291 621 291 621 291 618 c 2,8,-1
 453 396 l 1,9,-1
 468 389 l 1,10,-1
 693 83 l 1,11,-1
 693 0 l 1,12,-1
 407 0 l 1,13,-1
 407 83 l 1,14,-1
 422 83 l 2,15,16
 436 83 436 83 449.5 84 c 128,-1,17
 463 85 463 85 473 87.5 c 128,-1,18
 483 90 483 90 483 93 c 2,19,-1
 307 333 l 1,20,-1
 293 339 l 1,21,-1
 106 593 l 2,22,23
 90 615 90 615 77 621 c 128,-1,24
 64 627 64 627 41 627 c 2,25,-1
 33 627 l 1,0,-1
28 0 m 1,26,-1
 28 83 l 1,27,-1
 42 83 l 2,28,29
 64 83 64 83 78.5 93 c 128,-1,30
 93 103 93 103 111 129 c 2,31,-1
 297 392 l 1,32,-1
 358 348 l 1,33,-1
 185 100 l 2,34,35
 185 96 185 96 194.5 92 c 128,-1,36
 204 88 204 88 218 85.5 c 128,-1,37
 232 83 232 83 245 83 c 2,38,-1
 263 83 l 1,39,-1
 263 0 l 1,40,-1
 28 0 l 1,26,-1
463 333 m 1,41,-1
 419 399 l 1,42,-1
 567 610 l 2,43,44
 567 615 567 615 557.5 619 c 128,-1,45
 548 623 548 623 533.5 625 c 128,-1,46
 519 627 519 627 505 627 c 2,47,-1
 492 627 l 1,48,-1
 492 710 l 1,49,-1
 722 710 l 1,50,-1
 722 627 l 1,51,-1
 714 627 l 2,52,53
 692 627 692 627 676 617.5 c 128,-1,54
 660 608 660 608 641 582 c 2,55,-1
 463 333 l 1,41,-1
547 0 m 2,56,-1
 525 0 l 1,57,-1
 525 83 l 1,58,-1
 767 83 l 1,59,-1
 767 -189 l 1,60,-1
 675 -189 l 1,61,-1
 662 -53 l 2,62,63
 661 -35 661 -35 650 -23 c 128,-1,64
 639 -11 639 -11 614.5 -5.5 c 128,-1,65
 590 0 590 0 547 0 c 2,56,-1
EndSplineSet
EndChar

StartChar: Chetailcyr
Encoding: 1206 1206 315
Width: 839
GlyphClass: 2
Flags: W
AnchorPoint: "Anchor-0" 411 741 basechar 0
LayerCount: 2
Fore
SplineSet
346 271 m 0,0,1
 265 271 265 271 212 291.5 c 128,-1,2
 159 312 159 312 132.5 357.5 c 128,-1,3
 106 403 106 403 106 476 c 2,4,-1
 106 591 l 2,5,6
 106 613 106 613 88 620 c 128,-1,7
 70 627 70 627 43 627 c 2,8,-1
 32 627 l 1,9,-1
 32 710 l 1,10,-1
 354 710 l 1,11,-1
 354 627 l 1,12,-1
 345 627 l 2,13,14
 333 627 333 627 318.5 626 c 128,-1,15
 304 625 304 625 294 623 c 128,-1,16
 284 621 284 621 284 617 c 2,17,-1
 284 484 l 2,18,19
 284 436 284 436 295.5 407.5 c 128,-1,20
 307 379 307 379 333.5 366.5 c 128,-1,21
 360 354 360 354 406 354 c 0,22,23
 443 354 443 354 481 361.5 c 128,-1,24
 519 369 519 369 555 387 c 1,25,-1
 555 310 l 1,26,27
 516 292 516 292 461 281.5 c 128,-1,28
 406 271 406 271 346 271 c 0,0,1
459 0 m 1,29,-1
 459 83 l 1,30,-1
 467 83 l 2,31,32
 481 83 481 83 495 84 c 128,-1,33
 509 85 509 85 519 87.5 c 128,-1,34
 529 90 529 90 529 93 c 2,35,-1
 529 618 l 2,36,37
 529 621 529 621 519 623 c 128,-1,38
 509 625 509 625 495 626 c 128,-1,39
 481 627 481 627 467 627 c 2,40,-1
 459 627 l 1,41,-1
 459 710 l 1,42,-1
 781 710 l 1,43,-1
 781 627 l 1,44,-1
 770 627 l 2,45,46
 743 627 743 627 725 620 c 128,-1,47
 707 613 707 613 707 591 c 2,48,-1
 707 0 l 1,49,-1
 459 0 l 1,29,-1
586 0 m 2,50,-1
 565 0 l 1,51,-1
 581 83 l 1,52,-1
 806 83 l 1,53,-1
 806 -189 l 1,54,-1
 714 -189 l 1,55,-1
 702 -53 l 2,56,57
 701 -35 701 -35 690 -23 c 128,-1,58
 679 -11 679 -11 654.5 -5.5 c 128,-1,59
 630 0 630 0 586 0 c 2,50,-1
EndSplineSet
EndChar

StartChar: Chevertcyr
Encoding: 1208 1208 316
Width: 871
GlyphClass: 2
Flags: W
AnchorPoint: "Anchor-0" 427 741 basechar 0
LayerCount: 2
Fore
SplineSet
503 0 m 1,0,-1
 503 83 l 1,1,-1
 511 83 l 2,2,3
 525 83 525 83 539 84 c 128,-1,4
 553 85 553 85 563 87.5 c 128,-1,5
 573 90 573 90 573 93 c 2,6,-1
 573 618 l 2,7,8
 573 621 573 621 563 623 c 128,-1,9
 553 625 553 625 539 626 c 128,-1,10
 525 627 525 627 511 627 c 2,11,-1
 503 627 l 1,12,-1
 503 710 l 1,13,-1
 825 710 l 1,14,-1
 825 627 l 1,15,-1
 814 627 l 2,16,17
 787 627 787 627 769 620 c 128,-1,18
 751 613 751 613 751 591 c 2,19,-1
 751 119 l 2,20,21
 751 97 751 97 769 90 c 128,-1,22
 787 83 787 83 814 83 c 2,23,-1
 825 83 l 1,24,-1
 825 0 l 1,25,-1
 503 0 l 1,0,-1
368 271 m 0,26,27
 280 271 280 271 222 291.5 c 128,-1,28
 164 312 164 312 135 357.5 c 128,-1,29
 106 403 106 403 106 476 c 2,30,-1
 106 591 l 2,31,32
 106 613 106 613 88 620 c 128,-1,33
 70 627 70 627 42 627 c 2,34,-1
 32 627 l 1,35,-1
 32 710 l 1,36,-1
 354 710 l 1,37,-1
 354 627 l 1,38,-1
 345 627 l 2,39,40
 333 627 333 627 318.5 626 c 128,-1,41
 304 625 304 625 294 623 c 128,-1,42
 284 621 284 621 284 617 c 2,43,-1
 284 484 l 2,44,45
 284 436 284 436 297.5 407.5 c 128,-1,46
 311 379 311 379 342.5 366.5 c 128,-1,47
 374 354 374 354 428 354 c 0,48,49
 471 354 471 354 515 361 c 128,-1,50
 559 368 559 368 599 387 c 1,51,-1
 599 310 l 1,52,53
 557 291 557 291 496 281 c 128,-1,54
 435 271 435 271 368 271 c 0,26,27
389 158 m 1,55,-1
 389 531 l 1,56,-1
 472 531 l 1,57,-1
 472 158 l 1,58,-1
 389 158 l 1,55,-1
EndSplineSet
EndChar

StartChar: Shhacyr
Encoding: 1210 1210 317
Width: 827
GlyphClass: 1
Flags: W
LayerCount: 2
Fore
SplineSet
368 710 m 1,0,-1
 368 627 l 1,1,-1
 359 627 l 2,2,3
 347 627 347 627 332.5 626 c 128,-1,4
 318 625 318 625 308 623 c 128,-1,5
 298 621 298 621 298 617 c 2,6,-1
 298 92 l 2,7,8
 298 90 298 90 308 87.5 c 128,-1,9
 318 85 318 85 332.5 84 c 128,-1,10
 347 83 347 83 360 83 c 2,11,-1
 368 83 l 1,12,-1
 368 0 l 1,13,-1
 46 0 l 1,14,-1
 46 83 l 1,15,-1
 56 83 l 2,16,17
 84 83 84 83 102 90 c 128,-1,18
 120 97 120 97 120 119 c 2,19,-1
 120 591 l 2,20,21
 120 613 120 613 102 620 c 128,-1,22
 84 627 84 627 56 627 c 2,23,-1
 46 627 l 1,24,-1
 46 710 l 1,25,-1
 368 710 l 1,0,-1
481 439 m 0,26,27
 562 439 562 439 615 418.5 c 128,-1,28
 668 398 668 398 694.5 353 c 128,-1,29
 721 308 721 308 721 234 c 2,30,-1
 721 119 l 2,31,32
 721 97 721 97 739 90 c 128,-1,33
 757 83 757 83 784 83 c 2,34,-1
 795 83 l 1,35,-1
 795 0 l 1,36,-1
 473 0 l 1,37,-1
 473 83 l 1,38,-1
 481 83 l 2,39,40
 495 83 495 83 509 84 c 128,-1,41
 523 85 523 85 533 87.5 c 128,-1,42
 543 90 543 90 543 93 c 2,43,-1
 543 226 l 2,44,45
 543 275 543 275 531.5 303 c 128,-1,46
 520 331 520 331 493.5 343.5 c 128,-1,47
 467 356 467 356 421 356 c 0,48,49
 384 356 384 356 345.5 349 c 128,-1,50
 307 342 307 342 272 324 c 1,51,-1
 272 401 l 1,52,53
 311 419 311 419 365.5 429 c 128,-1,54
 420 439 420 439 481 439 c 0,26,27
EndSplineSet
EndChar

StartChar: Obarcyr
Encoding: 1256 1256 320
Width: 837
GlyphClass: 2
Flags: W
AnchorPoint: "Anchor-1" 410 0 basechar 0
AnchorPoint: "Anchor-0" 410 741 basechar 0
LayerCount: 2
Fore
SplineSet
170 407 m 1,0,-1
 667 407 l 1,1,-1
 667 324 l 1,2,-1
 170 324 l 1,3,-1
 170 407 l 1,0,-1
419 -25 m 256,4,5
 335 -25 335 -25 267.5 -1 c 128,-1,6
 200 23 200 23 151 70.5 c 128,-1,7
 102 118 102 118 76 189.5 c 128,-1,8
 50 261 50 261 50 355 c 0,9,10
 50 450 50 450 76 521 c 128,-1,11
 102 592 102 592 151 639.5 c 128,-1,12
 200 687 200 687 267.5 711 c 128,-1,13
 335 735 335 735 419 735 c 256,14,15
 503 735 503 735 571 711 c 128,-1,16
 639 687 639 687 687 639.5 c 128,-1,17
 735 592 735 592 761 521 c 128,-1,18
 787 450 787 450 787 355 c 0,19,20
 787 261 787 261 761 189.5 c 128,-1,21
 735 118 735 118 687 70.5 c 128,-1,22
 639 23 639 23 571 -1 c 128,-1,23
 503 -25 503 -25 419 -25 c 256,4,5
419 63 m 256,24,25
 465 63 465 63 499.5 78.5 c 128,-1,26
 534 94 534 94 556.5 128.5 c 128,-1,27
 579 163 579 163 590 219 c 128,-1,28
 601 275 601 275 601 355 c 256,29,30
 601 435 601 435 590 491 c 128,-1,31
 579 547 579 547 556.5 581.5 c 128,-1,32
 534 616 534 616 499.5 631.5 c 128,-1,33
 465 647 465 647 419 647 c 256,34,35
 373 647 373 647 338.5 631.5 c 128,-1,36
 304 616 304 616 281.5 581.5 c 128,-1,37
 259 547 259 547 247.5 491 c 128,-1,38
 236 435 236 435 236 355 c 256,39,40
 236 275 236 275 247.5 219 c 128,-1,41
 259 163 259 163 281 128.5 c 128,-1,42
 303 94 303 94 338 78.5 c 128,-1,43
 373 63 373 63 419 63 c 256,24,25
EndSplineSet
EndChar

StartChar: Hastrokecyr
Encoding: 1278 1278 321
Width: 774
GlyphClass: 2
Flags: W
AnchorPoint: "Anchor-1" 364 0 basechar 0
AnchorPoint: "Anchor-0" 395 741 basechar 0
LayerCount: 2
Fore
SplineSet
136 408 m 1,0,-1
 626 408 l 1,1,-1
 626 325 l 1,2,-1
 136 325 l 1,3,-1
 136 408 l 1,0,-1
33 627 m 1,4,-1
 33 710 l 1,5,-1
 366 710 l 1,6,-1
 366 627 l 1,7,-1
 351 627 l 2,8,9
 338 627 338 627 323.5 626 c 128,-1,10
 309 625 309 625 300 623 c 128,-1,11
 291 621 291 621 291 618 c 2,12,-1
 453 396 l 1,13,-1
 466 389 l 1,14,-1
 668 117 l 2,15,16
 684 96 684 96 697 89.5 c 128,-1,17
 710 83 710 83 732 83 c 2,18,-1
 747 83 l 1,19,-1
 747 0 l 1,20,-1
 407 0 l 1,21,-1
 407 83 l 1,22,-1
 422 83 l 2,23,24
 436 83 436 83 449.5 84 c 128,-1,25
 463 85 463 85 473 87.5 c 128,-1,26
 483 90 483 90 483 93 c 2,27,-1
 307 333 l 1,28,-1
 295 339 l 1,29,-1
 106 593 l 2,30,31
 90 615 90 615 77 621 c 128,-1,32
 64 627 64 627 41 627 c 2,33,-1
 33 627 l 1,4,-1
28 0 m 1,34,-1
 28 83 l 1,35,-1
 42 83 l 2,36,37
 64 83 64 83 78.5 93 c 128,-1,38
 93 103 93 103 111 129 c 2,39,-1
 299 392 l 1,40,-1
 358 348 l 1,41,-1
 185 100 l 2,42,43
 185 96 185 96 194.5 92 c 128,-1,44
 204 88 204 88 218 85.5 c 128,-1,45
 232 83 232 83 245 83 c 2,46,-1
 263 83 l 1,47,-1
 263 0 l 1,48,-1
 28 0 l 1,34,-1
462 333 m 1,49,-1
 419 399 l 1,50,-1
 567 610 l 2,51,52
 567 615 567 615 557.5 619 c 128,-1,53
 548 623 548 623 533.5 625 c 128,-1,54
 519 627 519 627 505 627 c 2,55,-1
 492 627 l 1,56,-1
 492 710 l 1,57,-1
 722 710 l 1,58,-1
 722 627 l 1,59,-1
 714 627 l 2,60,61
 692 627 692 627 676 617.5 c 128,-1,62
 660 608 660 608 641 582 c 2,63,-1
 462 333 l 1,49,-1
EndSplineSet
EndChar

StartChar: a
Encoding: 97 97 322
Width: 661
GlyphClass: 2
Flags: W
AnchorPoint: "Anchor-2" 496 -10 basechar 0
AnchorPoint: "Anchor-1" 340 0 basechar 0
AnchorPoint: "Anchor-0" 306 569 basechar 0
LayerCount: 2
Fore
SplineSet
409 346 m 1,0,-1
 409 277 l 1,1,2
 352 267 352 267 315 255.5 c 128,-1,3
 278 244 278 244 256 232 c 128,-1,4
 234 220 234 220 223.5 206.5 c 128,-1,5
 213 193 213 193 210 178 c 128,-1,6
 207 163 207 163 207 146 c 0,7,8
 207 116 207 116 215.5 100 c 128,-1,9
 224 84 224 84 240.5 77.5 c 128,-1,10
 257 71 257 71 280 71 c 0,11,12
 300 71 300 71 319 78.5 c 128,-1,13
 338 86 338 86 360 106 c 128,-1,14
 382 126 382 126 408 164 c 1,15,-1
 421 134 l 1,16,17
 396 81 396 81 368 49.5 c 128,-1,18
 340 18 340 18 305 3 c 128,-1,19
 270 -12 270 -12 224 -12 c 0,20,21
 165 -12 165 -12 126.5 3.5 c 128,-1,22
 88 19 88 19 69.5 51.5 c 128,-1,23
 51 84 51 84 51 136 c 0,24,25
 51 180 51 180 67.5 212 c 128,-1,26
 84 244 84 244 124.5 268 c 128,-1,27
 165 292 165 292 234 310.5 c 128,-1,28
 303 329 303 329 409 346 c 1,0,-1
428 0 m 1,29,-1
 404 120 l 1,30,-1
 401 120 l 1,31,-1
 401 433 l 2,32,33
 401 452 401 452 395.5 466.5 c 128,-1,34
 390 481 390 481 371 488.5 c 128,-1,35
 352 496 352 496 311 496 c 0,36,37
 254 496 254 496 217 486.5 c 128,-1,38
 180 477 180 477 168 469 c 1,39,40
 163 471 163 471 163.5 478 c 128,-1,41
 164 485 164 485 171 492 c 128,-1,42
 178 499 178 499 190 504 c 128,-1,43
 202 509 202 509 221 507 c 1,44,-1
 221 378 l 1,45,-1
 80 378 l 1,46,-1
 80 524 l 1,47,48
 96 533 96 533 129 546 c 128,-1,49
 162 559 162 559 211 569.5 c 128,-1,50
 260 580 260 580 325 580 c 0,51,52
 384 580 384 580 429 570 c 128,-1,53
 474 560 474 560 505 540 c 128,-1,54
 536 520 536 520 551.5 489.5 c 128,-1,55
 567 459 567 459 567 417 c 2,56,-1
 567 114 l 2,57,58
 567 104 567 104 573.5 98 c 128,-1,59
 580 92 580 92 592.5 88.5 c 128,-1,60
 605 85 605 85 624 80 c 2,61,-1
 633 78 l 1,62,-1
 633 0 l 1,63,-1
 428 0 l 1,29,-1
EndSplineSet
Substitution2: "'ss06' Style Set 6 lookup 66 subtable" a.alt
EndChar

StartChar: aogonek
Encoding: 261 261 331
Width: 661
GlyphClass: 1
Flags: W
LayerCount: 2
Fore
SplineSet
234 -155 m 0,0,1
 234 -128 234 -128 246.5 -108 c 128,-1,2
 259 -88 259 -88 288.5 -68.5 c 128,-1,3
 318 -49 318 -49 369.5 -23.5 c 128,-1,4
 421 2 421 2 497 41 c 1,5,-1
 521 7 l 1,6,7
 477 -24 477 -24 451 -44 c 128,-1,8
 425 -64 425 -64 411 -78.5 c 128,-1,9
 397 -93 397 -93 392 -105.5 c 128,-1,10
 387 -118 387 -118 387 -134 c 0,11,12
 387 -157 387 -157 400.5 -169 c 128,-1,13
 414 -181 414 -181 440 -181 c 0,14,15
 469 -181 469 -181 489 -166 c 128,-1,16
 509 -151 509 -151 523 -137 c 1,17,-1
 565 -183 l 1,18,19
 536 -214 536 -214 497 -233 c 128,-1,20
 458 -252 458 -252 390 -252 c 0,21,22
 319 -252 319 -252 276.5 -229.5 c 128,-1,23
 234 -207 234 -207 234 -155 c 0,0,1
633 0 m 1,24,-1
 428 0 l 1,25,-1
 404 120 l 1,26,-1
 401 120 l 1,27,-1
 401 433 l 2,28,29
 401 452 401 452 395.5 466.5 c 128,-1,30
 390 481 390 481 371 488.5 c 128,-1,31
 352 496 352 496 311 496 c 0,32,33
 254 496 254 496 217 486.5 c 128,-1,34
 180 477 180 477 168 469 c 1,35,36
 163 471 163 471 163.5 478 c 128,-1,37
 164 485 164 485 171 492 c 128,-1,38
 178 499 178 499 190 504 c 128,-1,39
 202 509 202 509 221 507 c 1,40,-1
 221 378 l 1,41,-1
 80 378 l 1,42,-1
 80 524 l 1,43,44
 96 533 96 533 129 546 c 128,-1,45
 162 559 162 559 211 569.5 c 128,-1,46
 260 580 260 580 325 580 c 0,47,48
 384 580 384 580 429 570 c 128,-1,49
 474 560 474 560 505 540 c 128,-1,50
 536 520 536 520 551.5 489.5 c 128,-1,51
 567 459 567 459 567 417 c 2,52,-1
 567 114 l 2,53,54
 567 104 567 104 573.5 98 c 128,-1,55
 580 92 580 92 592.5 88.5 c 128,-1,56
 605 85 605 85 624 80 c 2,57,-1
 633 78 l 1,58,-1
 633 0 l 1,24,-1
51 136 m 0,59,60
 51 180 51 180 67.5 212 c 128,-1,61
 84 244 84 244 124.5 268 c 128,-1,62
 165 292 165 292 234 310.5 c 128,-1,63
 303 329 303 329 409 346 c 1,64,-1
 409 277 l 1,65,66
 352 267 352 267 315 255.5 c 128,-1,67
 278 244 278 244 256 232 c 128,-1,68
 234 220 234 220 223.5 206.5 c 128,-1,69
 213 193 213 193 210 178 c 128,-1,70
 207 163 207 163 207 146 c 0,71,72
 207 116 207 116 215.5 100 c 128,-1,73
 224 84 224 84 240.5 77.5 c 128,-1,74
 257 71 257 71 280 71 c 0,75,76
 300 71 300 71 319 78.5 c 128,-1,77
 338 86 338 86 360 106 c 128,-1,78
 382 126 382 126 408 164 c 1,79,-1
 421 134 l 1,80,81
 396 81 396 81 368 49.5 c 128,-1,82
 340 18 340 18 305 3 c 128,-1,83
 270 -12 270 -12 224 -12 c 0,84,85
 165 -12 165 -12 126.5 3.5 c 128,-1,86
 88 19 88 19 69.5 51.5 c 128,-1,87
 51 84 51 84 51 136 c 0,59,60
EndSplineSet
Substitution2: "'ss06' Style Set 6 lookup 66 subtable" aogonek.alt
EndChar

StartChar: acaron
Encoding: 462 462 332
Width: 661
GlyphClass: 1
Flags: W
LayerCount: 2
Fore
SplineSet
265 640 m 1,0,-1
 379 640 l 1,1,-1
 522 827 l 1,2,-1
 522 865 l 1,3,-1
 465 865 l 1,4,-1
 289 735 l 1,5,-1
 365 737 l 1,6,-1
 185 865 l 1,7,-1
 122 865 l 1,8,-1
 122 827 l 1,9,-1
 265 640 l 1,0,-1
409 346 m 1,10,-1
 409 277 l 1,11,12
 352 267 352 267 315 255.5 c 128,-1,13
 278 244 278 244 256 232 c 128,-1,14
 234 220 234 220 223.5 206.5 c 128,-1,15
 213 193 213 193 210 178 c 128,-1,16
 207 163 207 163 207 146 c 0,17,18
 207 116 207 116 215.5 100 c 128,-1,19
 224 84 224 84 240.5 77.5 c 128,-1,20
 257 71 257 71 280 71 c 0,21,22
 300 71 300 71 319 78.5 c 128,-1,23
 338 86 338 86 360 106 c 128,-1,24
 382 126 382 126 408 164 c 1,25,-1
 421 134 l 1,26,27
 396 81 396 81 368 49.5 c 128,-1,28
 340 18 340 18 305 3 c 128,-1,29
 270 -12 270 -12 224 -12 c 0,30,31
 165 -12 165 -12 126.5 3.5 c 128,-1,32
 88 19 88 19 69.5 51.5 c 128,-1,33
 51 84 51 84 51 136 c 0,34,35
 51 180 51 180 67.5 212 c 128,-1,36
 84 244 84 244 124.5 268 c 128,-1,37
 165 292 165 292 234 310.5 c 128,-1,38
 303 329 303 329 409 346 c 1,10,-1
428 0 m 1,39,-1
 404 120 l 1,40,-1
 401 120 l 1,41,-1
 401 433 l 2,42,43
 401 452 401 452 395.5 466.5 c 128,-1,44
 390 481 390 481 371 488.5 c 128,-1,45
 352 496 352 496 311 496 c 0,46,47
 254 496 254 496 217 486.5 c 128,-1,48
 180 477 180 477 168 469 c 1,49,50
 163 471 163 471 163.5 478 c 128,-1,51
 164 485 164 485 171 492 c 128,-1,52
 178 499 178 499 190 504 c 128,-1,53
 202 509 202 509 221 507 c 1,54,-1
 221 378 l 1,55,-1
 80 378 l 1,56,-1
 80 524 l 1,57,58
 96 533 96 533 129 546 c 128,-1,59
 162 559 162 559 211 569.5 c 128,-1,60
 260 580 260 580 325 580 c 0,61,62
 384 580 384 580 429 570 c 128,-1,63
 474 560 474 560 505 540 c 128,-1,64
 536 520 536 520 551.5 489.5 c 128,-1,65
 567 459 567 459 567 417 c 2,66,-1
 567 114 l 2,67,68
 567 104 567 104 573.5 98 c 128,-1,69
 580 92 580 92 592.5 88.5 c 128,-1,70
 605 85 605 85 624 80 c 2,71,-1
 633 78 l 1,72,-1
 633 0 l 1,73,-1
 428 0 l 1,39,-1
EndSplineSet
Substitution2: "'ss06' Style Set 6 lookup 66 subtable" acaron.alt
EndChar

StartChar: adblgrave
Encoding: 513 513 334
Width: 661
GlyphClass: 1
Flags: W
LayerCount: 2
Fore
SplineSet
454 800 m 2,0,-1
 482 680 l 1,1,-1
 482 644 l 1,2,-1
 438 644 l 1,3,-1
 354 719 l 2,4,5
 325 743 325 743 308.5 764 c 128,-1,6
 292 785 292 785 292 814 c 256,7,8
 292 843 292 843 311 863 c 128,-1,9
 330 883 330 883 366 883 c 0,10,11
 406 883 406 883 426 859.5 c 128,-1,12
 446 836 446 836 454 800 c 2,0,-1
231 800 m 2,13,-1
 260 680 l 1,14,-1
 260 644 l 1,15,-1
 215 644 l 1,16,-1
 131 719 l 2,17,18
 103 743 103 743 86 764 c 128,-1,19
 69 785 69 785 69 814 c 256,20,21
 69 843 69 843 88 863 c 128,-1,22
 107 883 107 883 143 883 c 0,23,24
 183 883 183 883 203 859.5 c 128,-1,25
 223 836 223 836 231 800 c 2,13,-1
409 346 m 1,26,-1
 409 277 l 1,27,28
 352 267 352 267 315 255.5 c 128,-1,29
 278 244 278 244 256 232 c 128,-1,30
 234 220 234 220 223.5 206.5 c 128,-1,31
 213 193 213 193 210 178 c 128,-1,32
 207 163 207 163 207 146 c 0,33,34
 207 116 207 116 215.5 100 c 128,-1,35
 224 84 224 84 240.5 77.5 c 128,-1,36
 257 71 257 71 280 71 c 0,37,38
 300 71 300 71 319 78.5 c 128,-1,39
 338 86 338 86 360 106 c 128,-1,40
 382 126 382 126 408 164 c 1,41,-1
 421 134 l 1,42,43
 396 81 396 81 368 49.5 c 128,-1,44
 340 18 340 18 305 3 c 128,-1,45
 270 -12 270 -12 224 -12 c 0,46,47
 165 -12 165 -12 126.5 3.5 c 128,-1,48
 88 19 88 19 69.5 51.5 c 128,-1,49
 51 84 51 84 51 136 c 0,50,51
 51 180 51 180 67.5 212 c 128,-1,52
 84 244 84 244 124.5 268 c 128,-1,53
 165 292 165 292 234 310.5 c 128,-1,54
 303 329 303 329 409 346 c 1,26,-1
428 0 m 1,55,-1
 404 120 l 1,56,-1
 401 120 l 1,57,-1
 401 433 l 2,58,59
 401 452 401 452 395.5 466.5 c 128,-1,60
 390 481 390 481 371 488.5 c 128,-1,61
 352 496 352 496 311 496 c 0,62,63
 254 496 254 496 217 486.5 c 128,-1,64
 180 477 180 477 168 469 c 1,65,66
 163 471 163 471 163.5 478 c 128,-1,67
 164 485 164 485 171 492 c 128,-1,68
 178 499 178 499 190 504 c 128,-1,69
 202 509 202 509 221 507 c 1,70,-1
 221 378 l 1,71,-1
 80 378 l 1,72,-1
 80 524 l 1,73,74
 96 533 96 533 129 546 c 128,-1,75
 162 559 162 559 211 569.5 c 128,-1,76
 260 580 260 580 325 580 c 0,77,78
 384 580 384 580 429 570 c 128,-1,79
 474 560 474 560 505 540 c 128,-1,80
 536 520 536 520 551.5 489.5 c 128,-1,81
 567 459 567 459 567 417 c 2,82,-1
 567 114 l 2,83,84
 567 104 567 104 573.5 98 c 128,-1,85
 580 92 580 92 592.5 88.5 c 128,-1,86
 605 85 605 85 624 80 c 2,87,-1
 633 78 l 1,88,-1
 633 0 l 1,89,-1
 428 0 l 1,55,-1
EndSplineSet
Substitution2: "'ss06' Style Set 6 lookup 66 subtable" adblgrave.alt
EndChar

StartChar: ainvertedbreve
Encoding: 515 515 335
Width: 661
GlyphClass: 1
Flags: W
LayerCount: 2
Fore
SplineSet
320 838 m 0,0,1
 257 838 257 838 215.5 817.5 c 128,-1,2
 174 797 174 797 153.5 753.5 c 128,-1,3
 133 710 133 710 133 641 c 1,4,-1
 220 641 l 1,5,6
 222 675 222 675 229.5 693 c 128,-1,7
 237 711 237 711 257.5 718 c 128,-1,8
 278 725 278 725 317 725 c 0,9,10
 357 725 357 725 377.5 718 c 128,-1,11
 398 711 398 711 406 693 c 128,-1,12
 414 675 414 675 415 641 c 1,13,-1
 506 641 l 1,14,15
 507 710 507 710 486.5 753.5 c 128,-1,16
 466 797 466 797 425 817.5 c 128,-1,17
 384 838 384 838 320 838 c 0,0,1
409 346 m 1,18,-1
 409 277 l 1,19,20
 352 267 352 267 315 255.5 c 128,-1,21
 278 244 278 244 256 232 c 128,-1,22
 234 220 234 220 223.5 206.5 c 128,-1,23
 213 193 213 193 210 178 c 128,-1,24
 207 163 207 163 207 146 c 0,25,26
 207 116 207 116 215.5 100 c 128,-1,27
 224 84 224 84 240.5 77.5 c 128,-1,28
 257 71 257 71 280 71 c 0,29,30
 300 71 300 71 319 78.5 c 128,-1,31
 338 86 338 86 360 106 c 128,-1,32
 382 126 382 126 408 164 c 1,33,-1
 421 134 l 1,34,35
 396 81 396 81 368 49.5 c 128,-1,36
 340 18 340 18 305 3 c 128,-1,37
 270 -12 270 -12 224 -12 c 0,38,39
 165 -12 165 -12 126.5 3.5 c 128,-1,40
 88 19 88 19 69.5 51.5 c 128,-1,41
 51 84 51 84 51 136 c 0,42,43
 51 180 51 180 67.5 212 c 128,-1,44
 84 244 84 244 124.5 268 c 128,-1,45
 165 292 165 292 234 310.5 c 128,-1,46
 303 329 303 329 409 346 c 1,18,-1
428 0 m 1,47,-1
 404 120 l 1,48,-1
 401 120 l 1,49,-1
 401 433 l 2,50,51
 401 452 401 452 395.5 466.5 c 128,-1,52
 390 481 390 481 371 488.5 c 128,-1,53
 352 496 352 496 311 496 c 0,54,55
 254 496 254 496 217 486.5 c 128,-1,56
 180 477 180 477 168 469 c 1,57,58
 163 471 163 471 163.5 478 c 128,-1,59
 164 485 164 485 171 492 c 128,-1,60
 178 499 178 499 190 504 c 128,-1,61
 202 509 202 509 221 507 c 1,62,-1
 221 378 l 1,63,-1
 80 378 l 1,64,-1
 80 524 l 1,65,66
 96 533 96 533 129 546 c 128,-1,67
 162 559 162 559 211 569.5 c 128,-1,68
 260 580 260 580 325 580 c 0,69,70
 384 580 384 580 429 570 c 128,-1,71
 474 560 474 560 505 540 c 128,-1,72
 536 520 536 520 551.5 489.5 c 128,-1,73
 567 459 567 459 567 417 c 2,74,-1
 567 114 l 2,75,76
 567 104 567 104 573.5 98 c 128,-1,77
 580 92 580 92 592.5 88.5 c 128,-1,78
 605 85 605 85 624 80 c 2,79,-1
 633 78 l 1,80,-1
 633 0 l 1,81,-1
 428 0 l 1,47,-1
EndSplineSet
Substitution2: "'ss06' Style Set 6 lookup 66 subtable" ainvertedbreve.alt
EndChar

StartChar: b
Encoding: 98 98 348
Width: 730
GlyphClass: 2
Flags: W
AnchorPoint: "Anchor-1" 349 0 basechar 0
AnchorPoint: "Anchor-0" 329 755 basechar 0
LayerCount: 2
Fore
SplineSet
436 -12 m 0,0,1
 376 -12 376 -12 334 10 c 128,-1,2
 292 32 292 32 264 72.5 c 128,-1,3
 236 113 236 113 216 168 c 1,4,-1
 224 206 l 1,5,6
 255 168 255 168 279.5 141.5 c 128,-1,7
 304 115 304 115 329.5 101.5 c 128,-1,8
 355 88 355 88 389 88 c 0,9,10
 421 88 421 88 445 100 c 128,-1,11
 469 112 469 112 484 136.5 c 128,-1,12
 499 161 499 161 506.5 199 c 128,-1,13
 514 237 514 237 514 289 c 0,14,15
 514 339 514 339 508 375 c 128,-1,16
 502 411 502 411 489 433.5 c 128,-1,17
 476 456 476 456 454 467 c 128,-1,18
 432 478 432 478 399 478 c 256,19,20
 366 478 366 478 338.5 466.5 c 128,-1,21
 311 455 311 455 284 427 c 128,-1,22
 257 399 257 399 223 352 c 1,23,-1
 222 394 l 1,24,25
 247 451 247 451 278 492.5 c 128,-1,26
 309 534 309 534 350.5 556.5 c 128,-1,27
 392 579 392 579 448 579 c 0,28,29
 529 579 529 579 582 542 c 128,-1,30
 635 505 635 505 661.5 440 c 128,-1,31
 688 375 688 375 688 289 c 0,32,33
 688 204 688 204 659 135.5 c 128,-1,34
 630 67 630 67 573.5 27.5 c 128,-1,35
 517 -12 517 -12 436 -12 c 0,0,1
91 666 m 2,36,37
 91 677 91 677 84.5 682.5 c 128,-1,38
 78 688 78 688 65.5 692 c 128,-1,39
 53 696 53 696 34 700 c 2,40,-1
 25 702 l 1,41,-1
 25 780 l 1,42,-1
 259 780 l 1,43,-1
 259 132 l 1,44,-1
 255 130 l 1,45,-1
 193 -19 l 1,46,-1
 91 -19 l 1,47,-1
 91 666 l 2,36,37
EndSplineSet
EndChar

StartChar: c
Encoding: 99 99 349
Width: 618
GlyphClass: 2
Flags: W
AnchorPoint: "Anchor-1" 342 0 basechar 0
AnchorPoint: "Anchor-0" 331 569 basechar 0
LayerCount: 2
Fore
SplineSet
375 77 m 0,0,1
 410 77 410 77 436.5 88.5 c 128,-1,2
 463 100 463 100 483.5 121 c 128,-1,3
 504 142 504 142 519 169 c 1,4,-1
 586 128 l 1,5,6
 568 84 568 84 534 52.5 c 128,-1,7
 500 21 500 21 454 4.5 c 128,-1,8
 408 -12 408 -12 352 -12 c 0,9,10
 257 -12 257 -12 187.5 21 c 128,-1,11
 118 54 118 54 80 120 c 128,-1,12
 42 186 42 186 42 284 c 256,13,14
 42 382 42 382 78.5 447.5 c 128,-1,15
 115 513 115 513 184 546 c 128,-1,16
 253 579 253 579 353 579 c 0,17,18
 408 579 408 579 450.5 573.5 c 128,-1,19
 493 568 493 568 522 561 c 128,-1,20
 551 554 551 554 565 548 c 1,21,-1
 565 352 l 1,22,-1
 430 352 l 1,23,-1
 430 519 l 1,24,25
 442 520 442 520 449.5 513 c 128,-1,26
 457 506 457 506 461 496 c 128,-1,27
 465 486 465 486 466.5 477.5 c 128,-1,28
 468 469 468 469 470 466 c 1,29,30
 449 478 449 478 422.5 485 c 128,-1,31
 396 492 396 492 360 492 c 0,32,33
 307 492 307 492 275.5 471.5 c 128,-1,34
 244 451 244 451 230 405 c 128,-1,35
 216 359 216 359 216 284 c 0,36,37
 216 226 216 226 224.5 186 c 128,-1,38
 233 146 233 146 251.5 122 c 128,-1,39
 270 98 270 98 300.5 87.5 c 128,-1,40
 331 77 331 77 375 77 c 0,0,1
EndSplineSet
EndChar

StartChar: ccaron
Encoding: 269 269 354
Width: 618
GlyphClass: 1
Flags: W
LayerCount: 2
Fore
SplineSet
280 640 m 1,0,-1
 393 640 l 1,1,-1
 536 827 l 1,2,-1
 536 865 l 1,3,-1
 479 865 l 1,4,-1
 303 735 l 1,5,-1
 379 737 l 1,6,-1
 199 865 l 1,7,-1
 137 865 l 1,8,-1
 137 827 l 1,9,-1
 280 640 l 1,0,-1
375 77 m 0,10,11
 410 77 410 77 436.5 88.5 c 128,-1,12
 463 100 463 100 483.5 121 c 128,-1,13
 504 142 504 142 519 169 c 1,14,-1
 586 128 l 1,15,16
 568 84 568 84 534 52.5 c 128,-1,17
 500 21 500 21 454 4.5 c 128,-1,18
 408 -12 408 -12 352 -12 c 0,19,20
 257 -12 257 -12 187.5 21 c 128,-1,21
 118 54 118 54 80 120 c 128,-1,22
 42 186 42 186 42 284 c 256,23,24
 42 382 42 382 78.5 447.5 c 128,-1,25
 115 513 115 513 184 546 c 128,-1,26
 253 579 253 579 353 579 c 0,27,28
 408 579 408 579 450.5 573.5 c 128,-1,29
 493 568 493 568 522 561 c 128,-1,30
 551 554 551 554 565 548 c 1,31,-1
 565 352 l 1,32,-1
 430 352 l 1,33,-1
 430 519 l 1,34,35
 442 520 442 520 449.5 513 c 128,-1,36
 457 506 457 506 461 496 c 128,-1,37
 465 486 465 486 466.5 477.5 c 128,-1,38
 468 469 468 469 470 466 c 1,39,40
 449 478 449 478 422.5 485 c 128,-1,41
 396 492 396 492 360 492 c 0,42,43
 307 492 307 492 275.5 471.5 c 128,-1,44
 244 451 244 451 230 405 c 128,-1,45
 216 359 216 359 216 284 c 0,46,47
 216 226 216 226 224.5 186 c 128,-1,48
 233 146 233 146 251.5 122 c 128,-1,49
 270 98 270 98 300.5 87.5 c 128,-1,50
 331 77 331 77 375 77 c 0,10,11
EndSplineSet
EndChar

StartChar: d
Encoding: 100 100 356
Width: 734
GlyphClass: 2
Flags: W
AnchorPoint: "Anchor-2" 696 735 basechar 0
AnchorPoint: "Anchor-1" 343 0 basechar 0
LayerCount: 2
Fore
SplineSet
640 114 m 2,0,1
 640 98 640 98 654.5 92.5 c 128,-1,2
 669 87 669 87 697 80 c 2,3,-1
 706 78 l 1,4,-1
 706 0 l 1,5,-1
 501 0 l 1,6,-1
 474 127 l 1,7,-1
 471 116 l 1,8,-1
 471 666 l 2,9,10
 471 677 471 677 464.5 682.5 c 128,-1,11
 458 688 458 688 445 691.5 c 128,-1,12
 432 695 432 695 413 700 c 2,13,-1
 405 702 l 1,14,-1
 405 780 l 1,15,-1
 640 780 l 1,16,-1
 640 114 l 2,0,1
294 579 m 0,17,18
 346 579 346 579 386.5 557 c 128,-1,19
 427 535 427 535 457 494.5 c 128,-1,20
 487 454 487 454 508 398 c 1,21,-1
 505 361 l 1,22,23
 475 400 475 400 450.5 426 c 128,-1,24
 426 452 426 452 400.5 465 c 128,-1,25
 375 478 375 478 341 478 c 0,26,27
 308 478 308 478 284.5 466.5 c 128,-1,28
 261 455 261 455 245.5 430.5 c 128,-1,29
 230 406 230 406 223 368 c 128,-1,30
 216 330 216 330 216 278 c 0,31,32
 216 228 216 228 221.5 192 c 128,-1,33
 227 156 227 156 240.5 133 c 128,-1,34
 254 110 254 110 275.5 99 c 128,-1,35
 297 88 297 88 330 88 c 0,36,37
 364 88 364 88 391 100 c 128,-1,38
 418 112 418 112 446 140 c 128,-1,39
 474 168 474 168 507 215 c 1,40,-1
 508 173 l 1,41,42
 484 116 484 116 453 74.5 c 128,-1,43
 422 33 422 33 380.5 10.5 c 128,-1,44
 339 -12 339 -12 282 -12 c 0,45,46
 201 -12 201 -12 147.5 25 c 128,-1,47
 94 62 94 62 68 127.5 c 128,-1,48
 42 193 42 193 42 278 c 0,49,50
 42 364 42 364 71 432 c 128,-1,51
 100 500 100 500 156.5 539.5 c 128,-1,52
 213 579 213 579 294 579 c 0,17,18
EndSplineSet
EndChar

StartChar: e
Encoding: 101 101 360
Width: 646
GlyphClass: 2
Flags: W
AnchorPoint: "Anchor-2" 511 1 basechar 0
AnchorPoint: "Anchor-1" 354 0 basechar 0
AnchorPoint: "Anchor-0" 330 569 basechar 0
LayerCount: 2
Fore
SplineSet
207 280 m 0,0,1
 207 218 207 218 217.5 177.5 c 128,-1,2
 228 137 228 137 248.5 114.5 c 128,-1,3
 269 92 269 92 299.5 83 c 128,-1,4
 330 74 330 74 370 74 c 256,5,6
 410 74 410 74 439.5 84 c 128,-1,7
 469 94 469 94 491.5 113 c 128,-1,8
 514 132 514 132 532 160 c 1,9,-1
 602 112 l 1,10,11
 580 71 580 71 544.5 42.5 c 128,-1,12
 509 14 509 14 462 0 c 128,-1,13
 415 -14 415 -14 353 -14 c 0,14,15
 258 -14 258 -14 187.5 18 c 128,-1,16
 117 50 117 50 79.5 115 c 128,-1,17
 42 180 42 180 42 278 c 0,18,19
 42 370 42 370 77.5 437.5 c 128,-1,20
 113 505 113 505 179 542.5 c 128,-1,21
 245 580 245 580 335 580 c 0,22,23
 406 580 406 580 456.5 559.5 c 128,-1,24
 507 539 507 539 539.5 497.5 c 128,-1,25
 572 456 572 456 588 395 c 128,-1,26
 604 334 604 334 605 252 c 1,27,-1
 141 252 l 1,28,-1
 141 321 l 1,29,-1
 471 321 l 1,30,-1
 450 295 l 1,31,32
 449 358 449 358 442 398.5 c 128,-1,33
 435 439 435 439 422.5 461 c 128,-1,34
 410 483 410 483 388.5 491.5 c 128,-1,35
 367 500 367 500 337 500 c 0,36,37
 305 500 305 500 281 490 c 128,-1,38
 257 480 257 480 240 455.5 c 128,-1,39
 223 431 223 431 215 388.5 c 128,-1,40
 207 346 207 346 207 280 c 0,0,1
EndSplineSet
EndChar

StartChar: eogonek
Encoding: 281 281 368
Width: 646
GlyphClass: 1
Flags: W
LayerCount: 2
Fore
SplineSet
481 33 m 1,0,-1
 461 -1 l 1,1,2
 438 -7 438 -7 411 -10.5 c 128,-1,3
 384 -14 384 -14 353 -14 c 0,4,5
 258 -14 258 -14 187.5 18 c 128,-1,6
 117 50 117 50 79.5 115 c 128,-1,7
 42 180 42 180 42 278 c 0,8,9
 42 370 42 370 77.5 437.5 c 128,-1,10
 113 505 113 505 179 542.5 c 128,-1,11
 245 580 245 580 335 580 c 0,12,13
 406 580 406 580 456.5 559.5 c 128,-1,14
 507 539 507 539 539.5 497.5 c 128,-1,15
 572 456 572 456 588 395 c 128,-1,16
 604 334 604 334 605 252 c 1,17,-1
 141 252 l 1,18,-1
 141 321 l 1,19,-1
 471 321 l 1,20,-1
 450 295 l 1,21,22
 449 358 449 358 442 398.5 c 128,-1,23
 435 439 435 439 422.5 461 c 128,-1,24
 410 483 410 483 388.5 491.5 c 128,-1,25
 367 500 367 500 337 500 c 0,26,27
 305 500 305 500 281 490 c 128,-1,28
 257 480 257 480 240 455.5 c 128,-1,29
 223 431 223 431 215 388.5 c 128,-1,30
 207 346 207 346 207 280 c 0,31,32
 207 218 207 218 217.5 177.5 c 128,-1,33
 228 137 228 137 248.5 114.5 c 128,-1,34
 269 92 269 92 299.5 83 c 128,-1,35
 330 74 330 74 370 74 c 256,36,37
 410 74 410 74 439.5 84 c 128,-1,38
 469 94 469 94 491.5 113 c 128,-1,39
 514 132 514 132 532 160 c 1,40,-1
 602 112 l 1,41,42
 592 93 592 93 578 76 c 128,-1,43
 564 59 564 59 544 43 c 0,44,45
 516 19 516 19 484.5 -2.5 c 128,-1,46
 453 -24 453 -24 425.5 -45 c 128,-1,47
 398 -66 398 -66 381 -87.5 c 128,-1,48
 364 -109 364 -109 364 -134 c 0,49,50
 364 -157 364 -157 377.5 -169 c 128,-1,51
 391 -181 391 -181 417 -181 c 0,52,53
 446 -181 446 -181 466 -166 c 128,-1,54
 486 -151 486 -151 500 -137 c 1,55,-1
 542 -183 l 1,56,57
 513 -214 513 -214 475 -233 c 128,-1,58
 437 -252 437 -252 372 -252 c 0,59,60
 323 -252 323 -252 286.5 -242 c 128,-1,61
 250 -232 250 -232 230 -210.5 c 128,-1,62
 210 -189 210 -189 210 -155 c 0,63,64
 210 -128 210 -128 223 -108 c 128,-1,65
 236 -88 236 -88 266.5 -69 c 128,-1,66
 297 -50 297 -50 349.5 -26 c 128,-1,67
 402 -2 402 -2 481 33 c 1,0,-1
EndSplineSet
EndChar

